<?xml version="1.0" encoding="utf-8" standalone="no"?>
<!DOCTYPE svg PUBLIC "-//W3C//DTD SVG 1.1//EN"
  "http://www.w3.org/Graphics/SVG/1.1/DTD/svg11.dtd">
<!-- Created with matplotlib (https://matplotlib.org/) -->
<svg height="864pt" version="1.1" viewBox="0 0 1152 864" width="1152pt" xmlns="http://www.w3.org/2000/svg" xmlns:xlink="http://www.w3.org/1999/xlink">
 <defs>
  <style type="text/css">
*{stroke-linecap:butt;stroke-linejoin:round;}
  </style>
 </defs>
 <g id="figure_1">
  <g id="patch_1">
   <path d="M 0 864 
L 1152 864 
L 1152 0 
L 0 0 
z
" style="fill:#ffffff;"/>
  </g>
  <g id="axes_1">
   <g id="patch_2">
    <path d="M 144 756 
L 1036.8 756 
L 1036.8 103.68 
L 144 103.68 
z
" style="fill:#ffffff;"/>
   </g>
   <g id="PolyCollection_1">
    <defs>
     <path d="M 184.581818 -137.650909 
L 184.581818 -137.650909 
L 190.065848 -137.650909 
L 195.549877 -137.650909 
L 201.033907 -137.650909 
L 206.517936 -137.650909 
L 212.001966 -137.650909 
L 217.485995 -137.650909 
L 222.970025 -137.650909 
L 228.454054 -137.650909 
L 233.938084 -137.650909 
L 239.422113 -137.650909 
L 244.906143 -137.650909 
L 250.390172 -137.650909 
L 255.874201 -137.650909 
L 261.358231 -137.650909 
L 266.84226 -137.650909 
L 272.32629 -137.650909 
L 277.810319 -137.650909 
L 283.294349 -137.650909 
L 288.778378 -137.650909 
L 294.262408 -137.650909 
L 299.746437 -137.650909 
L 305.230467 -137.650909 
L 310.714496 -137.650909 
L 316.198526 -137.650909 
L 321.682555 -137.650909 
L 327.166585 -137.650909 
L 332.650614 -137.650909 
L 338.134644 -139.927105 
L 343.618673 -143.029484 
L 349.102703 -146.211033 
L 354.586732 -147.769886 
L 360.070762 -152.064109 
L 365.554791 -154.990647 
L 371.038821 -157.917185 
L 376.52285 -163.119919 
L 382.00688 -167.940578 
L 387.490909 -170.867116 
L 392.974939 -173.793654 
L 398.458968 -176.720192 
L 403.942998 -179.64673 
L 409.427027 -182.573268 
L 414.911057 -185.499806 
L 420.395086 -188.097032 
L 425.879115 -188.097032 
L 431.363145 -188.097032 
L 436.847174 -189.072544 
L 442.331204 -191.999082 
L 447.815233 -194.92562 
L 453.299263 -197.852158 
L 458.783292 -200.778697 
L 464.267322 -201.824636 
L 469.751351 -201.824636 
L 475.235381 -201.824636 
L 480.71941 -201.824636 
L 486.20344 -201.824636 
L 491.687469 -201.824636 
L 497.171499 -203.608683 
L 502.655528 -206.046465 
L 508.139558 -206.046465 
L 513.623587 -206.046465 
L 519.107617 -208.973003 
L 524.591646 -211.899541 
L 530.075676 -214.826079 
L 535.559705 -217.752617 
L 541.043735 -220.679155 
L 546.527764 -223.605693 
L 552.011794 -226.532231 
L 557.495823 -229.458769 
L 562.979853 -232.385308 
L 568.463882 -235.311846 
L 573.947912 -237.104427 
L 579.431941 -237.104427 
L 584.915971 -237.104427 
L 590.4 -237.104427 
L 595.884029 -237.104427 
L 601.368059 -237.104427 
L 606.852088 -237.104427 
L 612.336118 -237.104427 
L 617.820147 -237.104427 
L 623.304177 -237.104427 
L 628.788206 -237.104427 
L 634.272236 -237.104427 
L 639.756265 -237.104427 
L 645.240295 -237.104427 
L 650.724324 -237.104427 
L 656.208354 -237.104427 
L 661.692383 -237.104427 
L 667.176413 -237.104427 
L 672.660442 -237.104427 
L 678.144472 -237.104427 
L 683.628501 -237.104427 
L 689.112531 -237.104427 
L 694.59656 -237.104427 
L 700.08059 -237.104427 
L 705.564619 -237.104427 
L 711.048649 -237.104427 
L 716.532678 -237.104427 
L 722.016708 -237.104427 
L 727.500737 -237.104427 
L 732.984767 -237.104427 
L 738.468796 -237.104427 
L 743.952826 -237.104427 
L 749.436855 -237.104427 
L 754.920885 -237.104427 
L 760.404914 -237.104427 
L 765.888943 -237.104427 
L 776.857002 -237.104427 
L 782.341032 -237.104427 
L 787.825061 -237.104427 
L 793.309091 -237.104427 
L 798.79312 -237.104427 
L 804.27715 -237.104427 
L 809.761179 -237.104427 
L 815.245209 -237.104427 
L 820.729238 -237.104427 
L 826.213268 -237.104427 
L 837.181327 -237.104427 
L 842.665356 -237.104427 
L 848.149386 -237.104427 
L 853.633415 -237.104427 
L 864.601474 -237.104427 
L 952.345946 -237.104427 
L 968.798034 -237.104427 
L 996.218182 -237.104427 
L 996.218182 -431.751761 
L 996.218182 -431.751761 
L 968.798034 -431.751761 
L 952.345946 -431.751761 
L 864.601474 -431.751761 
L 853.633415 -431.751761 
L 848.149386 -431.751761 
L 842.665356 -431.751761 
L 837.181327 -431.751761 
L 826.213268 -431.751761 
L 820.729238 -431.751761 
L 815.245209 -431.751761 
L 809.761179 -431.751761 
L 804.27715 -431.751761 
L 798.79312 -431.751761 
L 793.309091 -431.751761 
L 787.825061 -431.751761 
L 782.341032 -431.751761 
L 776.857002 -431.751761 
L 765.888943 -431.751761 
L 760.404914 -431.751761 
L 754.920885 -431.751761 
L 749.436855 -429.280426 
L 743.952826 -426.353888 
L 738.468796 -423.42735 
L 732.984767 -420.500812 
L 727.500737 -417.574274 
L 722.016708 -414.647736 
L 716.532678 -412.190236 
L 711.048649 -412.190236 
L 705.564619 -411.265995 
L 700.08059 -408.339457 
L 694.59656 -405.412918 
L 689.112531 -402.48638 
L 683.628501 -399.559842 
L 678.144472 -396.633304 
L 672.660442 -393.99276 
L 667.176413 -391.797857 
L 661.692383 -388.365053 
L 656.208354 -384.927152 
L 650.724324 -382.062031 
L 645.240295 -382.062031 
L 639.756265 -382.062031 
L 634.272236 -382.062031 
L 628.788206 -382.062031 
L 623.304177 -382.000614 
L 617.820147 -379.202107 
L 612.336118 -374.8123 
L 606.852088 -367.495955 
L 601.368059 -361.576264 
L 595.884029 -355.723188 
L 590.4 -349.870112 
L 584.915971 -346.943574 
L 579.431941 -343.814391 
L 573.947912 -337.961315 
L 568.463882 -332.108238 
L 562.979853 -329.051675 
L 557.495823 -329.051675 
L 552.011794 -327.540367 
L 546.527764 -324.613828 
L 541.043735 -321.68729 
L 535.559705 -318.760752 
L 530.075676 -315.834214 
L 524.591646 -309.981138 
L 519.107617 -307.0546 
L 513.623587 -301.201524 
L 508.139558 -295.348448 
L 502.655528 -289.495372 
L 497.171499 -285.55289 
L 491.687469 -278.982955 
L 486.20344 -278.333774 
L 480.71941 -276.773275 
L 475.235381 -273.846737 
L 469.751351 -270.920199 
L 464.267322 -268.272823 
L 458.783292 -268.272823 
L 453.299263 -268.272823 
L 447.815233 -268.272823 
L 442.331204 -268.272823 
L 436.847174 -265.346285 
L 431.363145 -262.419747 
L 425.879115 -259.493209 
L 420.395086 -256.078914 
L 414.911057 -253.152376 
L 409.427027 -248.891926 
L 403.942998 -243.03885 
L 398.458968 -237.185773 
L 392.974939 -231.332697 
L 387.490909 -225.479621 
L 382.00688 -219.626545 
L 376.52285 -210.421696 
L 371.038821 -204.961284 
L 365.554791 -199.108208 
L 360.070762 -193.255132 
L 354.586732 -190.328594 
L 349.102703 -184.520712 
L 343.618673 -181.594174 
L 338.134644 -176.636577 
L 332.650614 -170.783501 
L 327.166585 -164.930425 
L 321.682555 -157.993918 
L 316.198526 -153.955907 
L 310.714496 -150.625228 
L 305.230467 -147.69869 
L 299.746437 -144.772152 
L 294.262408 -141.845614 
L 288.778378 -138.981154 
L 283.294349 -137.650909 
L 277.810319 -137.650909 
L 272.32629 -137.650909 
L 266.84226 -137.650909 
L 261.358231 -137.650909 
L 255.874201 -137.650909 
L 250.390172 -137.650909 
L 244.906143 -137.650909 
L 239.422113 -137.650909 
L 233.938084 -137.650909 
L 228.454054 -137.650909 
L 222.970025 -137.650909 
L 217.485995 -137.650909 
L 212.001966 -137.650909 
L 206.517936 -137.650909 
L 201.033907 -137.650909 
L 195.549877 -137.650909 
L 190.065848 -137.650909 
L 184.581818 -137.650909 
z
" id="m7827fe015a" style="stroke:#0000ff;stroke-opacity:0.1;"/>
    </defs>
    <g clip-path="url(#p115b214e84)">
     <use style="fill:#0000ff;fill-opacity:0.1;stroke:#0000ff;stroke-opacity:0.1;" x="0" xlink:href="#m7827fe015a" y="864"/>
    </g>
   </g>
   <g id="PolyCollection_2">
    <defs>
     <path d="M 184.581818 -137.650909 
L 184.581818 -137.650909 
L 190.065848 -137.650909 
L 195.549877 -137.650909 
L 201.033907 -137.650909 
L 206.517936 -137.650909 
L 212.001966 -137.650909 
L 217.485995 -137.650909 
L 222.970025 -137.650909 
L 228.454054 -137.650909 
L 233.938084 -137.650909 
L 239.422113 -137.650909 
L 244.906143 -137.650909 
L 250.390172 -137.650909 
L 255.874201 -137.650909 
L 261.358231 -137.650909 
L 266.84226 -137.650909 
L 272.32629 -137.650909 
L 277.810319 -137.650909 
L 283.294349 -137.650909 
L 288.778378 -137.650909 
L 294.262408 -137.650909 
L 299.746437 -137.650909 
L 305.230467 -137.650909 
L 310.714496 -137.650909 
L 316.198526 -137.650909 
L 321.682555 -137.650909 
L 327.166585 -137.650909 
L 332.650614 -137.650909 
L 338.134644 -137.650909 
L 343.618673 -137.650909 
L 349.102703 -137.650909 
L 354.586732 -137.650909 
L 360.070762 -137.650909 
L 365.554791 -137.650909 
L 371.038821 -137.650909 
L 376.52285 -137.650909 
L 382.00688 -137.650909 
L 387.490909 -137.650909 
L 392.974939 -137.650909 
L 398.458968 -137.650909 
L 403.942998 -137.650909 
L 409.427027 -137.650909 
L 414.911057 -137.650909 
L 420.395086 -137.650909 
L 425.879115 -137.650909 
L 431.363145 -137.650909 
L 436.847174 -137.650909 
L 442.331204 -137.650909 
L 447.815233 -137.650909 
L 453.299263 -137.650909 
L 458.783292 -137.650909 
L 464.267322 -137.650909 
L 469.751351 -137.650909 
L 475.235381 -137.650909 
L 480.71941 -137.650909 
L 486.20344 -137.650909 
L 491.687469 -137.650909 
L 497.171499 -137.650909 
L 502.655528 -137.650909 
L 508.139558 -137.650909 
L 513.623587 -137.650909 
L 519.107617 -137.650909 
L 524.591646 -137.650909 
L 530.075676 -137.650909 
L 535.559705 -137.650909 
L 541.043735 -137.650909 
L 546.527764 -137.650909 
L 552.011794 -137.650909 
L 557.495823 -137.650909 
L 562.979853 -137.650909 
L 568.463882 -137.650909 
L 573.947912 -137.650909 
L 579.431941 -137.650909 
L 584.915971 -139.114178 
L 590.4 -142.040716 
L 595.884029 -144.967254 
L 601.368059 -147.893792 
L 606.852088 -153.746868 
L 612.336118 -158.01277 
L 617.820147 -158.01277 
L 623.304177 -158.01277 
L 628.788206 -158.01277 
L 634.272236 -158.01277 
L 639.756265 -158.01277 
L 645.240295 -158.01277 
L 650.724324 -158.01277 
L 656.208354 -158.01277 
L 661.692383 -158.01277 
L 667.176413 -158.01277 
L 672.660442 -158.01277 
L 678.144472 -158.01277 
L 683.628501 -158.01277 
L 689.112531 -158.01277 
L 694.59656 -158.01277 
L 700.08059 -158.01277 
L 705.564619 -158.01277 
L 711.048649 -158.01277 
L 716.532678 -158.01277 
L 722.016708 -158.01277 
L 727.500737 -158.01277 
L 732.984767 -158.01277 
L 738.468796 -158.01277 
L 743.952826 -158.01277 
L 749.436855 -158.01277 
L 754.920885 -158.01277 
L 760.404914 -158.01277 
L 765.888943 -158.01277 
L 776.857002 -158.01277 
L 782.341032 -158.01277 
L 787.825061 -158.01277 
L 793.309091 -158.01277 
L 798.79312 -158.01277 
L 804.27715 -158.01277 
L 809.761179 -158.01277 
L 815.245209 -158.01277 
L 820.729238 -158.01277 
L 826.213268 -158.01277 
L 837.181327 -158.01277 
L 842.665356 -158.01277 
L 848.149386 -158.01277 
L 853.633415 -158.01277 
L 864.601474 -158.01277 
L 952.345946 -158.01277 
L 968.798034 -158.01277 
L 996.218182 -158.01277 
L 996.218182 -730.669091 
L 996.218182 -730.669091 
L 968.798034 -730.669091 
L 952.345946 -730.669091 
L 864.601474 -730.669091 
L 853.633415 -730.669091 
L 848.149386 -730.669091 
L 842.665356 -730.669091 
L 837.181327 -730.669091 
L 826.213268 -730.669091 
L 820.729238 -730.669091 
L 815.245209 -730.669091 
L 809.761179 -730.669091 
L 804.27715 -730.669091 
L 798.79312 -730.669091 
L 793.309091 -730.669091 
L 787.825061 -730.669091 
L 782.341032 -730.669091 
L 776.857002 -730.669091 
L 765.888943 -730.669091 
L 760.404914 -730.669091 
L 754.920885 -730.669091 
L 749.436855 -730.669091 
L 743.952826 -730.669091 
L 738.468796 -730.669091 
L 732.984767 -730.669091 
L 727.500737 -730.669091 
L 722.016708 -730.669091 
L 716.532678 -730.669091 
L 711.048649 -730.669091 
L 705.564619 -730.669091 
L 700.08059 -730.669091 
L 694.59656 -730.669091 
L 689.112531 -730.669091 
L 683.628501 -730.669091 
L 678.144472 -730.669091 
L 672.660442 -730.669091 
L 667.176413 -730.669091 
L 661.692383 -730.669091 
L 656.208354 -730.669091 
L 650.724324 -730.669091 
L 645.240295 -730.669091 
L 639.756265 -730.669091 
L 634.272236 -730.669091 
L 628.788206 -730.669091 
L 623.304177 -727.742553 
L 617.820147 -724.816015 
L 612.336118 -721.889477 
L 606.852088 -718.962939 
L 601.368059 -716.036401 
L 595.884029 -713.109863 
L 590.4 -707.256786 
L 584.915971 -701.40371 
L 579.431941 -695.550634 
L 573.947912 -689.697558 
L 568.463882 -683.844482 
L 562.979853 -677.991406 
L 557.495823 -672.13833 
L 552.011794 -666.285254 
L 546.527764 -660.432178 
L 541.043735 -651.652563 
L 535.559705 -642.872949 
L 530.075676 -634.093335 
L 524.591646 -625.313721 
L 519.107617 -616.534107 
L 513.623587 -604.827955 
L 508.139558 -593.121802 
L 502.655528 -581.41565 
L 497.171499 -569.709498 
L 491.687469 -560.929884 
L 486.20344 -552.15027 
L 480.71941 -540.444117 
L 475.235381 -528.737965 
L 469.751351 -517.031813 
L 464.267322 -505.325661 
L 458.783292 -496.546047 
L 453.299263 -487.766432 
L 447.815233 -478.986818 
L 442.331204 -470.207204 
L 436.847174 -461.42759 
L 431.363145 -452.647976 
L 425.879115 -440.941824 
L 420.395086 -429.235671 
L 414.911057 -417.529519 
L 409.427027 -405.823367 
L 403.942998 -394.117215 
L 398.458968 -382.411063 
L 392.974939 -370.70491 
L 387.490909 -358.998758 
L 382.00688 -347.292606 
L 376.52285 -335.586454 
L 371.038821 -326.80684 
L 365.554791 -318.027225 
L 360.070762 -309.247611 
L 354.586732 -300.467997 
L 349.102703 -291.688383 
L 343.618673 -282.908769 
L 338.134644 -271.202617 
L 332.650614 -259.496464 
L 327.166585 -247.790312 
L 321.682555 -236.08416 
L 316.198526 -224.378008 
L 310.714496 -212.671855 
L 305.230467 -201.248917 
L 299.746437 -192.469302 
L 294.262408 -183.689688 
L 288.778378 -174.910074 
L 283.294349 -166.13046 
L 277.810319 -158.86831 
L 272.32629 -153.015234 
L 266.84226 -147.162158 
L 261.358231 -141.309082 
L 255.874201 -138.504483 
L 250.390172 -138.504483 
L 244.906143 -138.504483 
L 239.422113 -138.504483 
L 233.938084 -137.650909 
L 228.454054 -137.650909 
L 222.970025 -137.650909 
L 217.485995 -137.650909 
L 212.001966 -137.650909 
L 206.517936 -137.650909 
L 201.033907 -137.650909 
L 195.549877 -137.650909 
L 190.065848 -137.650909 
L 184.581818 -137.650909 
z
" id="ma13a5621ca" style="stroke:#0000ff;stroke-opacity:0.05;"/>
    </defs>
    <g clip-path="url(#p115b214e84)">
     <use style="fill:#0000ff;fill-opacity:0.05;stroke:#0000ff;stroke-opacity:0.05;" x="0" xlink:href="#ma13a5621ca" y="864"/>
    </g>
   </g>
   <g id="matplotlib.axis_1">
    <g id="xtick_1">
     <g id="line2d_1">
      <path clip-path="url(#p115b214e84)" d="M 184.581818 756 
L 184.581818 103.68 
" style="fill:none;stroke:#b0b0b0;stroke-linecap:square;stroke-width:0.8;"/>
     </g>
     <g id="line2d_2">
      <defs>
       <path d="M 0 0 
L 0 3.5 
" id="me9d5516da4" style="stroke:#000000;stroke-width:0.8;"/>
      </defs>
      <g>
       <use style="stroke:#000000;stroke-width:0.8;" x="184.581818" xlink:href="#me9d5516da4" y="756"/>
      </g>
     </g>
     <g id="text_1">
      <!-- 2020-04 -->
      <defs>
       <path d="M 19.1875 8.296875 
L 53.609375 8.296875 
L 53.609375 0 
L 7.328125 0 
L 7.328125 8.296875 
Q 12.9375 14.109375 22.625 23.890625 
Q 32.328125 33.6875 34.8125 36.53125 
Q 39.546875 41.84375 41.421875 45.53125 
Q 43.3125 49.21875 43.3125 52.78125 
Q 43.3125 58.59375 39.234375 62.25 
Q 35.15625 65.921875 28.609375 65.921875 
Q 23.96875 65.921875 18.8125 64.3125 
Q 13.671875 62.703125 7.8125 59.421875 
L 7.8125 69.390625 
Q 13.765625 71.78125 18.9375 73 
Q 24.125 74.21875 28.421875 74.21875 
Q 39.75 74.21875 46.484375 68.546875 
Q 53.21875 62.890625 53.21875 53.421875 
Q 53.21875 48.921875 51.53125 44.890625 
Q 49.859375 40.875 45.40625 35.40625 
Q 44.1875 33.984375 37.640625 27.21875 
Q 31.109375 20.453125 19.1875 8.296875 
z
" id="DejaVuSans-50"/>
       <path d="M 31.78125 66.40625 
Q 24.171875 66.40625 20.328125 58.90625 
Q 16.5 51.421875 16.5 36.375 
Q 16.5 21.390625 20.328125 13.890625 
Q 24.171875 6.390625 31.78125 6.390625 
Q 39.453125 6.390625 43.28125 13.890625 
Q 47.125 21.390625 47.125 36.375 
Q 47.125 51.421875 43.28125 58.90625 
Q 39.453125 66.40625 31.78125 66.40625 
z
M 31.78125 74.21875 
Q 44.046875 74.21875 50.515625 64.515625 
Q 56.984375 54.828125 56.984375 36.375 
Q 56.984375 17.96875 50.515625 8.265625 
Q 44.046875 -1.421875 31.78125 -1.421875 
Q 19.53125 -1.421875 13.0625 8.265625 
Q 6.59375 17.96875 6.59375 36.375 
Q 6.59375 54.828125 13.0625 64.515625 
Q 19.53125 74.21875 31.78125 74.21875 
z
" id="DejaVuSans-48"/>
       <path d="M 4.890625 31.390625 
L 31.203125 31.390625 
L 31.203125 23.390625 
L 4.890625 23.390625 
z
" id="DejaVuSans-45"/>
       <path d="M 37.796875 64.3125 
L 12.890625 25.390625 
L 37.796875 25.390625 
z
M 35.203125 72.90625 
L 47.609375 72.90625 
L 47.609375 25.390625 
L 58.015625 25.390625 
L 58.015625 17.1875 
L 47.609375 17.1875 
L 47.609375 0 
L 37.796875 0 
L 37.796875 17.1875 
L 4.890625 17.1875 
L 4.890625 26.703125 
z
" id="DejaVuSans-52"/>
      </defs>
      <g transform="translate(142.799006 778.196875)scale(0.2 -0.2)">
       <use xlink:href="#DejaVuSans-50"/>
       <use x="63.623047" xlink:href="#DejaVuSans-48"/>
       <use x="127.246094" xlink:href="#DejaVuSans-50"/>
       <use x="190.869141" xlink:href="#DejaVuSans-48"/>
       <use x="254.492188" xlink:href="#DejaVuSans-45"/>
       <use x="290.576172" xlink:href="#DejaVuSans-48"/>
       <use x="354.199219" xlink:href="#DejaVuSans-52"/>
      </g>
     </g>
    </g>
    <g id="xtick_2">
     <g id="line2d_3">
      <path clip-path="url(#p115b214e84)" d="M 349.102703 756 
L 349.102703 103.68 
" style="fill:none;stroke:#b0b0b0;stroke-linecap:square;stroke-width:0.8;"/>
     </g>
     <g id="line2d_4">
      <g>
       <use style="stroke:#000000;stroke-width:0.8;" x="349.102703" xlink:href="#me9d5516da4" y="756"/>
      </g>
     </g>
     <g id="text_2">
      <!-- 2020-05 -->
      <defs>
       <path d="M 10.796875 72.90625 
L 49.515625 72.90625 
L 49.515625 64.59375 
L 19.828125 64.59375 
L 19.828125 46.734375 
Q 21.96875 47.46875 24.109375 47.828125 
Q 26.265625 48.1875 28.421875 48.1875 
Q 40.625 48.1875 47.75 41.5 
Q 54.890625 34.8125 54.890625 23.390625 
Q 54.890625 11.625 47.5625 5.09375 
Q 40.234375 -1.421875 26.90625 -1.421875 
Q 22.3125 -1.421875 17.546875 -0.640625 
Q 12.796875 0.140625 7.71875 1.703125 
L 7.71875 11.625 
Q 12.109375 9.234375 16.796875 8.0625 
Q 21.484375 6.890625 26.703125 6.890625 
Q 35.15625 6.890625 40.078125 11.328125 
Q 45.015625 15.765625 45.015625 23.390625 
Q 45.015625 31 40.078125 35.4375 
Q 35.15625 39.890625 26.703125 39.890625 
Q 22.75 39.890625 18.8125 39.015625 
Q 14.890625 38.140625 10.796875 36.28125 
z
" id="DejaVuSans-53"/>
      </defs>
      <g transform="translate(307.31989 778.196875)scale(0.2 -0.2)">
       <use xlink:href="#DejaVuSans-50"/>
       <use x="63.623047" xlink:href="#DejaVuSans-48"/>
       <use x="127.246094" xlink:href="#DejaVuSans-50"/>
       <use x="190.869141" xlink:href="#DejaVuSans-48"/>
       <use x="254.492188" xlink:href="#DejaVuSans-45"/>
       <use x="290.576172" xlink:href="#DejaVuSans-48"/>
       <use x="354.199219" xlink:href="#DejaVuSans-53"/>
      </g>
     </g>
    </g>
    <g id="xtick_3">
     <g id="line2d_5">
      <path clip-path="url(#p115b214e84)" d="M 519.107617 756 
L 519.107617 103.68 
" style="fill:none;stroke:#b0b0b0;stroke-linecap:square;stroke-width:0.8;"/>
     </g>
     <g id="line2d_6">
      <g>
       <use style="stroke:#000000;stroke-width:0.8;" x="519.107617" xlink:href="#me9d5516da4" y="756"/>
      </g>
     </g>
     <g id="text_3">
      <!-- 2020-06 -->
      <defs>
       <path d="M 33.015625 40.375 
Q 26.375 40.375 22.484375 35.828125 
Q 18.609375 31.296875 18.609375 23.390625 
Q 18.609375 15.53125 22.484375 10.953125 
Q 26.375 6.390625 33.015625 6.390625 
Q 39.65625 6.390625 43.53125 10.953125 
Q 47.40625 15.53125 47.40625 23.390625 
Q 47.40625 31.296875 43.53125 35.828125 
Q 39.65625 40.375 33.015625 40.375 
z
M 52.59375 71.296875 
L 52.59375 62.3125 
Q 48.875 64.0625 45.09375 64.984375 
Q 41.3125 65.921875 37.59375 65.921875 
Q 27.828125 65.921875 22.671875 59.328125 
Q 17.53125 52.734375 16.796875 39.40625 
Q 19.671875 43.65625 24.015625 45.921875 
Q 28.375 48.1875 33.59375 48.1875 
Q 44.578125 48.1875 50.953125 41.515625 
Q 57.328125 34.859375 57.328125 23.390625 
Q 57.328125 12.15625 50.6875 5.359375 
Q 44.046875 -1.421875 33.015625 -1.421875 
Q 20.359375 -1.421875 13.671875 8.265625 
Q 6.984375 17.96875 6.984375 36.375 
Q 6.984375 53.65625 15.1875 63.9375 
Q 23.390625 74.21875 37.203125 74.21875 
Q 40.921875 74.21875 44.703125 73.484375 
Q 48.484375 72.75 52.59375 71.296875 
z
" id="DejaVuSans-54"/>
      </defs>
      <g transform="translate(477.324804 778.196875)scale(0.2 -0.2)">
       <use xlink:href="#DejaVuSans-50"/>
       <use x="63.623047" xlink:href="#DejaVuSans-48"/>
       <use x="127.246094" xlink:href="#DejaVuSans-50"/>
       <use x="190.869141" xlink:href="#DejaVuSans-48"/>
       <use x="254.492188" xlink:href="#DejaVuSans-45"/>
       <use x="290.576172" xlink:href="#DejaVuSans-48"/>
       <use x="354.199219" xlink:href="#DejaVuSans-54"/>
      </g>
     </g>
    </g>
    <g id="xtick_4">
     <g id="line2d_7">
      <path clip-path="url(#p115b214e84)" d="M 683.628501 756 
L 683.628501 103.68 
" style="fill:none;stroke:#b0b0b0;stroke-linecap:square;stroke-width:0.8;"/>
     </g>
     <g id="line2d_8">
      <g>
       <use style="stroke:#000000;stroke-width:0.8;" x="683.628501" xlink:href="#me9d5516da4" y="756"/>
      </g>
     </g>
     <g id="text_4">
      <!-- 2020-07 -->
      <defs>
       <path d="M 8.203125 72.90625 
L 55.078125 72.90625 
L 55.078125 68.703125 
L 28.609375 0 
L 18.3125 0 
L 43.21875 64.59375 
L 8.203125 64.59375 
z
" id="DejaVuSans-55"/>
      </defs>
      <g transform="translate(641.845689 778.196875)scale(0.2 -0.2)">
       <use xlink:href="#DejaVuSans-50"/>
       <use x="63.623047" xlink:href="#DejaVuSans-48"/>
       <use x="127.246094" xlink:href="#DejaVuSans-50"/>
       <use x="190.869141" xlink:href="#DejaVuSans-48"/>
       <use x="254.492188" xlink:href="#DejaVuSans-45"/>
       <use x="290.576172" xlink:href="#DejaVuSans-48"/>
       <use x="354.199219" xlink:href="#DejaVuSans-55"/>
      </g>
     </g>
    </g>
    <g id="xtick_5">
     <g id="line2d_9">
      <path clip-path="url(#p115b214e84)" d="M 853.633415 756 
L 853.633415 103.68 
" style="fill:none;stroke:#b0b0b0;stroke-linecap:square;stroke-width:0.8;"/>
     </g>
     <g id="line2d_10">
      <g>
       <use style="stroke:#000000;stroke-width:0.8;" x="853.633415" xlink:href="#me9d5516da4" y="756"/>
      </g>
     </g>
     <g id="text_5">
      <!-- 2020-08 -->
      <defs>
       <path d="M 31.78125 34.625 
Q 24.75 34.625 20.71875 30.859375 
Q 16.703125 27.09375 16.703125 20.515625 
Q 16.703125 13.921875 20.71875 10.15625 
Q 24.75 6.390625 31.78125 6.390625 
Q 38.8125 6.390625 42.859375 10.171875 
Q 46.921875 13.96875 46.921875 20.515625 
Q 46.921875 27.09375 42.890625 30.859375 
Q 38.875 34.625 31.78125 34.625 
z
M 21.921875 38.8125 
Q 15.578125 40.375 12.03125 44.71875 
Q 8.5 49.078125 8.5 55.328125 
Q 8.5 64.0625 14.71875 69.140625 
Q 20.953125 74.21875 31.78125 74.21875 
Q 42.671875 74.21875 48.875 69.140625 
Q 55.078125 64.0625 55.078125 55.328125 
Q 55.078125 49.078125 51.53125 44.71875 
Q 48 40.375 41.703125 38.8125 
Q 48.828125 37.15625 52.796875 32.3125 
Q 56.78125 27.484375 56.78125 20.515625 
Q 56.78125 9.90625 50.3125 4.234375 
Q 43.84375 -1.421875 31.78125 -1.421875 
Q 19.734375 -1.421875 13.25 4.234375 
Q 6.78125 9.90625 6.78125 20.515625 
Q 6.78125 27.484375 10.78125 32.3125 
Q 14.796875 37.15625 21.921875 38.8125 
z
M 18.3125 54.390625 
Q 18.3125 48.734375 21.84375 45.5625 
Q 25.390625 42.390625 31.78125 42.390625 
Q 38.140625 42.390625 41.71875 45.5625 
Q 45.3125 48.734375 45.3125 54.390625 
Q 45.3125 60.0625 41.71875 63.234375 
Q 38.140625 66.40625 31.78125 66.40625 
Q 25.390625 66.40625 21.84375 63.234375 
Q 18.3125 60.0625 18.3125 54.390625 
z
" id="DejaVuSans-56"/>
      </defs>
      <g transform="translate(811.850603 778.196875)scale(0.2 -0.2)">
       <use xlink:href="#DejaVuSans-50"/>
       <use x="63.623047" xlink:href="#DejaVuSans-48"/>
       <use x="127.246094" xlink:href="#DejaVuSans-50"/>
       <use x="190.869141" xlink:href="#DejaVuSans-48"/>
       <use x="254.492188" xlink:href="#DejaVuSans-45"/>
       <use x="290.576172" xlink:href="#DejaVuSans-48"/>
       <use x="354.199219" xlink:href="#DejaVuSans-56"/>
      </g>
     </g>
    </g>
    <g id="xtick_6">
     <g id="line2d_11">
      <path clip-path="url(#p115b214e84)" d="M 1023.638329 756 
L 1023.638329 103.68 
" style="fill:none;stroke:#b0b0b0;stroke-linecap:square;stroke-width:0.8;"/>
     </g>
     <g id="line2d_12">
      <g>
       <use style="stroke:#000000;stroke-width:0.8;" x="1023.638329" xlink:href="#me9d5516da4" y="756"/>
      </g>
     </g>
     <g id="text_6">
      <!-- 2020-09 -->
      <defs>
       <path d="M 10.984375 1.515625 
L 10.984375 10.5 
Q 14.703125 8.734375 18.5 7.8125 
Q 22.3125 6.890625 25.984375 6.890625 
Q 35.75 6.890625 40.890625 13.453125 
Q 46.046875 20.015625 46.78125 33.40625 
Q 43.953125 29.203125 39.59375 26.953125 
Q 35.25 24.703125 29.984375 24.703125 
Q 19.046875 24.703125 12.671875 31.3125 
Q 6.296875 37.9375 6.296875 49.421875 
Q 6.296875 60.640625 12.9375 67.421875 
Q 19.578125 74.21875 30.609375 74.21875 
Q 43.265625 74.21875 49.921875 64.515625 
Q 56.59375 54.828125 56.59375 36.375 
Q 56.59375 19.140625 48.40625 8.859375 
Q 40.234375 -1.421875 26.421875 -1.421875 
Q 22.703125 -1.421875 18.890625 -0.6875 
Q 15.09375 0.046875 10.984375 1.515625 
z
M 30.609375 32.421875 
Q 37.25 32.421875 41.125 36.953125 
Q 45.015625 41.5 45.015625 49.421875 
Q 45.015625 57.28125 41.125 61.84375 
Q 37.25 66.40625 30.609375 66.40625 
Q 23.96875 66.40625 20.09375 61.84375 
Q 16.21875 57.28125 16.21875 49.421875 
Q 16.21875 41.5 20.09375 36.953125 
Q 23.96875 32.421875 30.609375 32.421875 
z
" id="DejaVuSans-57"/>
      </defs>
      <g transform="translate(981.855517 778.196875)scale(0.2 -0.2)">
       <use xlink:href="#DejaVuSans-50"/>
       <use x="63.623047" xlink:href="#DejaVuSans-48"/>
       <use x="127.246094" xlink:href="#DejaVuSans-50"/>
       <use x="190.869141" xlink:href="#DejaVuSans-48"/>
       <use x="254.492188" xlink:href="#DejaVuSans-45"/>
       <use x="290.576172" xlink:href="#DejaVuSans-48"/>
       <use x="354.199219" xlink:href="#DejaVuSans-57"/>
      </g>
     </g>
    </g>
   </g>
   <g id="matplotlib.axis_2">
    <g id="ytick_1">
     <g id="line2d_13">
      <path clip-path="url(#p115b214e84)" d="M 144 726.349091 
L 1036.8 726.349091 
" style="fill:none;stroke:#b0b0b0;stroke-linecap:square;stroke-width:0.8;"/>
     </g>
     <g id="line2d_14">
      <defs>
       <path d="M 0 0 
L -3.5 0 
" id="me93bf2dd3a" style="stroke:#000000;stroke-width:0.8;"/>
      </defs>
      <g>
       <use style="stroke:#000000;stroke-width:0.8;" x="144" xlink:href="#me93bf2dd3a" y="726.349091"/>
      </g>
     </g>
     <g id="text_7">
      <!-- 0.0 -->
      <defs>
       <path d="M 10.6875 12.40625 
L 21 12.40625 
L 21 0 
L 10.6875 0 
z
" id="DejaVuSans-46"/>
      </defs>
      <g transform="translate(105.19375 733.947528)scale(0.2 -0.2)">
       <use xlink:href="#DejaVuSans-48"/>
       <use x="63.623047" xlink:href="#DejaVuSans-46"/>
       <use x="95.410156" xlink:href="#DejaVuSans-48"/>
      </g>
     </g>
    </g>
    <g id="ytick_2">
     <g id="line2d_15">
      <path clip-path="url(#p115b214e84)" d="M 144 650.346898 
L 1036.8 650.346898 
" style="fill:none;stroke:#b0b0b0;stroke-linecap:square;stroke-width:0.8;"/>
     </g>
     <g id="line2d_16">
      <g>
       <use style="stroke:#000000;stroke-width:0.8;" x="144" xlink:href="#me93bf2dd3a" y="650.346898"/>
      </g>
     </g>
     <g id="text_8">
      <!-- 0.5 -->
      <g transform="translate(105.19375 657.945335)scale(0.2 -0.2)">
       <use xlink:href="#DejaVuSans-48"/>
       <use x="63.623047" xlink:href="#DejaVuSans-46"/>
       <use x="95.410156" xlink:href="#DejaVuSans-53"/>
      </g>
     </g>
    </g>
    <g id="ytick_3">
     <g id="line2d_17">
      <path clip-path="url(#p115b214e84)" d="M 144 574.344704 
L 1036.8 574.344704 
" style="fill:none;stroke:#b0b0b0;stroke-linecap:square;stroke-width:0.8;"/>
     </g>
     <g id="line2d_18">
      <g>
       <use style="stroke:#000000;stroke-width:0.8;" x="144" xlink:href="#me93bf2dd3a" y="574.344704"/>
      </g>
     </g>
     <g id="text_9">
      <!-- 1.0 -->
      <defs>
       <path d="M 12.40625 8.296875 
L 28.515625 8.296875 
L 28.515625 63.921875 
L 10.984375 60.40625 
L 10.984375 69.390625 
L 28.421875 72.90625 
L 38.28125 72.90625 
L 38.28125 8.296875 
L 54.390625 8.296875 
L 54.390625 0 
L 12.40625 0 
z
" id="DejaVuSans-49"/>
      </defs>
      <g transform="translate(105.19375 581.943142)scale(0.2 -0.2)">
       <use xlink:href="#DejaVuSans-49"/>
       <use x="63.623047" xlink:href="#DejaVuSans-46"/>
       <use x="95.410156" xlink:href="#DejaVuSans-48"/>
      </g>
     </g>
    </g>
    <g id="ytick_4">
     <g id="line2d_19">
      <path clip-path="url(#p115b214e84)" d="M 144 498.342511 
L 1036.8 498.342511 
" style="fill:none;stroke:#b0b0b0;stroke-linecap:square;stroke-width:0.8;"/>
     </g>
     <g id="line2d_20">
      <g>
       <use style="stroke:#000000;stroke-width:0.8;" x="144" xlink:href="#me93bf2dd3a" y="498.342511"/>
      </g>
     </g>
     <g id="text_10">
      <!-- 1.5 -->
      <g transform="translate(105.19375 505.940949)scale(0.2 -0.2)">
       <use xlink:href="#DejaVuSans-49"/>
       <use x="63.623047" xlink:href="#DejaVuSans-46"/>
       <use x="95.410156" xlink:href="#DejaVuSans-53"/>
      </g>
     </g>
    </g>
    <g id="ytick_5">
     <g id="line2d_21">
      <path clip-path="url(#p115b214e84)" d="M 144 422.340318 
L 1036.8 422.340318 
" style="fill:none;stroke:#b0b0b0;stroke-linecap:square;stroke-width:0.8;"/>
     </g>
     <g id="line2d_22">
      <g>
       <use style="stroke:#000000;stroke-width:0.8;" x="144" xlink:href="#me93bf2dd3a" y="422.340318"/>
      </g>
     </g>
     <g id="text_11">
      <!-- 2.0 -->
      <g transform="translate(105.19375 429.938755)scale(0.2 -0.2)">
       <use xlink:href="#DejaVuSans-50"/>
       <use x="63.623047" xlink:href="#DejaVuSans-46"/>
       <use x="95.410156" xlink:href="#DejaVuSans-48"/>
      </g>
     </g>
    </g>
    <g id="ytick_6">
     <g id="line2d_23">
      <path clip-path="url(#p115b214e84)" d="M 144 346.338125 
L 1036.8 346.338125 
" style="fill:none;stroke:#b0b0b0;stroke-linecap:square;stroke-width:0.8;"/>
     </g>
     <g id="line2d_24">
      <g>
       <use style="stroke:#000000;stroke-width:0.8;" x="144" xlink:href="#me93bf2dd3a" y="346.338125"/>
      </g>
     </g>
     <g id="text_12">
      <!-- 2.5 -->
      <g transform="translate(105.19375 353.936562)scale(0.2 -0.2)">
       <use xlink:href="#DejaVuSans-50"/>
       <use x="63.623047" xlink:href="#DejaVuSans-46"/>
       <use x="95.410156" xlink:href="#DejaVuSans-53"/>
      </g>
     </g>
    </g>
    <g id="ytick_7">
     <g id="line2d_25">
      <path clip-path="url(#p115b214e84)" d="M 144 270.335931 
L 1036.8 270.335931 
" style="fill:none;stroke:#b0b0b0;stroke-linecap:square;stroke-width:0.8;"/>
     </g>
     <g id="line2d_26">
      <g>
       <use style="stroke:#000000;stroke-width:0.8;" x="144" xlink:href="#me93bf2dd3a" y="270.335931"/>
      </g>
     </g>
     <g id="text_13">
      <!-- 3.0 -->
      <defs>
       <path d="M 40.578125 39.3125 
Q 47.65625 37.796875 51.625 33 
Q 55.609375 28.21875 55.609375 21.1875 
Q 55.609375 10.40625 48.1875 4.484375 
Q 40.765625 -1.421875 27.09375 -1.421875 
Q 22.515625 -1.421875 17.65625 -0.515625 
Q 12.796875 0.390625 7.625 2.203125 
L 7.625 11.71875 
Q 11.71875 9.328125 16.59375 8.109375 
Q 21.484375 6.890625 26.8125 6.890625 
Q 36.078125 6.890625 40.9375 10.546875 
Q 45.796875 14.203125 45.796875 21.1875 
Q 45.796875 27.640625 41.28125 31.265625 
Q 36.765625 34.90625 28.71875 34.90625 
L 20.21875 34.90625 
L 20.21875 43.015625 
L 29.109375 43.015625 
Q 36.375 43.015625 40.234375 45.921875 
Q 44.09375 48.828125 44.09375 54.296875 
Q 44.09375 59.90625 40.109375 62.90625 
Q 36.140625 65.921875 28.71875 65.921875 
Q 24.65625 65.921875 20.015625 65.03125 
Q 15.375 64.15625 9.8125 62.3125 
L 9.8125 71.09375 
Q 15.4375 72.65625 20.34375 73.4375 
Q 25.25 74.21875 29.59375 74.21875 
Q 40.828125 74.21875 47.359375 69.109375 
Q 53.90625 64.015625 53.90625 55.328125 
Q 53.90625 49.265625 50.4375 45.09375 
Q 46.96875 40.921875 40.578125 39.3125 
z
" id="DejaVuSans-51"/>
      </defs>
      <g transform="translate(105.19375 277.934369)scale(0.2 -0.2)">
       <use xlink:href="#DejaVuSans-51"/>
       <use x="63.623047" xlink:href="#DejaVuSans-46"/>
       <use x="95.410156" xlink:href="#DejaVuSans-48"/>
      </g>
     </g>
    </g>
    <g id="ytick_8">
     <g id="line2d_27">
      <path clip-path="url(#p115b214e84)" d="M 144 194.333738 
L 1036.8 194.333738 
" style="fill:none;stroke:#b0b0b0;stroke-linecap:square;stroke-width:0.8;"/>
     </g>
     <g id="line2d_28">
      <g>
       <use style="stroke:#000000;stroke-width:0.8;" x="144" xlink:href="#me93bf2dd3a" y="194.333738"/>
      </g>
     </g>
     <g id="text_14">
      <!-- 3.5 -->
      <g transform="translate(105.19375 201.932176)scale(0.2 -0.2)">
       <use xlink:href="#DejaVuSans-51"/>
       <use x="63.623047" xlink:href="#DejaVuSans-46"/>
       <use x="95.410156" xlink:href="#DejaVuSans-53"/>
      </g>
     </g>
    </g>
    <g id="ytick_9">
     <g id="line2d_29">
      <path clip-path="url(#p115b214e84)" d="M 144 118.331545 
L 1036.8 118.331545 
" style="fill:none;stroke:#b0b0b0;stroke-linecap:square;stroke-width:0.8;"/>
     </g>
     <g id="line2d_30">
      <g>
       <use style="stroke:#000000;stroke-width:0.8;" x="144" xlink:href="#me93bf2dd3a" y="118.331545"/>
      </g>
     </g>
     <g id="text_15">
      <!-- 4.0 -->
      <g transform="translate(105.19375 125.929982)scale(0.2 -0.2)">
       <use xlink:href="#DejaVuSans-52"/>
       <use x="63.623047" xlink:href="#DejaVuSans-46"/>
       <use x="95.410156" xlink:href="#DejaVuSans-48"/>
      </g>
     </g>
    </g>
   </g>
   <g id="line2d_31">
    <path clip-path="url(#p115b214e84)" d="M 184.581818 726.349091 
L 190.065848 726.349091 
L 195.549877 726.349091 
L 201.033907 726.349091 
L 206.517936 726.349091 
L 212.001966 726.349091 
L 217.485995 726.349091 
L 222.970025 726.349091 
L 228.454054 726.349091 
L 233.938084 726.349091 
L 239.422113 726.349091 
L 244.906143 726.349091 
L 250.390172 726.349091 
L 255.874201 726.349091 
L 261.358231 726.349091 
L 266.84226 726.349091 
L 272.32629 726.349091 
L 277.810319 726.349091 
L 283.294349 726.349091 
L 288.778378 726.349091 
L 294.262408 726.349091 
L 299.746437 726.349091 
L 305.230467 725.877069 
L 310.714496 723.190061 
L 316.198526 718.072967 
L 321.682555 712.464258 
L 327.166585 709.53772 
L 332.650614 705.071242 
L 338.134644 698.952117 
L 343.618673 695.924219 
L 349.102703 692.997681 
L 354.586732 690.071143 
L 360.070762 687.144605 
L 365.554791 684.109392 
L 371.038821 681.182854 
L 376.52285 678.256316 
L 382.00688 675.329778 
L 387.490909 671.492725 
L 392.974939 665.639649 
L 398.458968 662.090677 
L 403.942998 656.822908 
L 409.427027 653.89637 
L 414.911057 650.969832 
L 420.395086 648.043294 
L 425.879115 644.91817 
L 431.363145 639.626013 
L 436.847174 636.699475 
L 442.331204 633.772937 
L 447.815233 630.846399 
L 453.299263 628.003476 
L 458.783292 625.076938 
L 464.267322 622.1504 
L 469.751351 620.687131 
L 475.235381 620.687131 
L 480.71941 614.282426 
L 486.20344 610.908289 
L 491.687469 607.981751 
L 497.171499 605.055213 
L 502.655528 602.128675 
L 508.139558 596.275599 
L 513.623587 595.727177 
L 519.107617 595.727177 
L 524.591646 595.727177 
L 530.075676 595.727177 
L 535.559705 591.28936 
L 541.043735 586.899553 
L 546.527764 582.739688 
L 552.011794 582.739688 
L 557.495823 582.739688 
L 562.979853 582.739688 
L 568.463882 582.739688 
L 573.947912 582.739688 
L 579.431941 582.739688 
L 584.915971 582.739688 
L 590.4 582.739688 
L 595.884029 582.739688 
L 601.368059 581.485457 
L 606.852088 577.09565 
L 612.336118 572.705843 
L 617.820147 572.705843 
L 623.304177 572.705843 
L 628.788206 572.705843 
L 634.272236 571.704257 
L 639.756265 571.704257 
L 645.240295 571.704257 
L 650.724324 571.704257 
L 656.208354 571.704257 
L 661.692383 571.704257 
L 667.176413 570.157393 
L 672.660442 564.304317 
L 678.144472 558.451241 
L 683.628501 555.524703 
L 689.112531 555.524703 
L 694.59656 555.524703 
L 700.08059 552.628863 
L 705.564619 549.702325 
L 711.048649 546.775787 
L 716.532678 543.849249 
L 722.016708 540.922711 
L 727.500737 537.996173 
L 732.984767 535.069635 
L 738.468796 534.948325 
L 743.952826 534.948325 
L 749.436855 534.948325 
L 754.920885 533.659262 
L 760.404914 530.732724 
L 765.888943 527.806186 
L 776.857002 526.290021 
L 782.341032 526.290021 
L 787.825061 526.290021 
L 793.309091 526.290021 
L 798.79312 526.290021 
L 804.27715 526.290021 
L 809.761179 526.290021 
L 815.245209 526.290021 
L 820.729238 526.290021 
L 826.213268 526.290021 
L 837.181327 526.290021 
L 842.665356 526.290021 
L 848.149386 526.290021 
L 853.633415 526.290021 
L 864.601474 526.290021 
L 952.345946 526.290021 
L 968.798034 526.290021 
L 996.218182 526.290021 
" style="fill:none;stroke:#1f77b4;stroke-linecap:square;stroke-width:1.5;"/>
   </g>
   <g id="line2d_32">
    <path clip-path="url(#p115b214e84)" d="M 184.581818 726.349091 
L 190.065848 726.349091 
L 195.549877 726.349091 
L 201.033907 726.349091 
L 206.517936 726.349091 
L 212.001966 726.349091 
L 217.485995 726.349091 
L 222.970025 726.349091 
L 228.454054 726.349091 
L 233.938084 726.349091 
L 239.422113 726.349091 
L 244.906143 726.349091 
L 250.390172 726.349091 
L 255.874201 726.349091 
L 261.358231 726.349091 
L 266.84226 726.349091 
L 272.32629 726.349091 
L 277.810319 726.349091 
L 283.294349 726.349091 
L 288.778378 726.349091 
L 294.262408 726.349091 
L 299.746437 723.422553 
L 305.230467 723.422553 
L 310.714496 723.422553 
L 316.198526 723.422553 
L 321.682555 720.496015 
L 327.166585 720.496015 
L 332.650614 720.496015 
L 338.134644 714.642939 
L 343.618673 714.642939 
L 349.102703 714.642939 
L 354.586732 711.716401 
L 360.070762 711.716401 
L 365.554791 711.716401 
L 371.038821 711.716401 
L 376.52285 708.789863 
L 382.00688 708.789863 
L 387.490909 708.789863 
L 392.974939 708.789863 
L 398.458968 708.789863 
L 403.942998 708.789863 
L 409.427027 705.863325 
L 414.911057 705.863325 
L 420.395086 705.863325 
L 425.879115 705.863325 
L 431.363145 705.863325 
" style="fill:none;stroke:#008000;stroke-linecap:square;stroke-width:1.5;"/>
   </g>
   <g id="line2d_33">
    <path clip-path="url(#p115b214e84)" d="M 184.581818 726.349091 
L 190.065848 726.349091 
L 195.549877 726.349091 
L 201.033907 726.349091 
L 206.517936 726.349091 
L 212.001966 726.349091 
L 217.485995 726.349091 
L 222.970025 726.349091 
L 228.454054 726.349091 
L 233.938084 726.349091 
L 239.422113 726.349091 
L 244.906143 726.349091 
L 250.390172 726.349091 
L 255.874201 726.349091 
L 261.358231 726.349091 
L 266.84226 726.349091 
L 272.32629 726.349091 
L 277.810319 726.349091 
L 283.294349 726.349091 
L 288.778378 726.349091 
L 294.262408 726.349091 
L 299.746437 723.422553 
L 305.230467 723.422553 
L 310.714496 723.422553 
L 316.198526 723.422553 
L 321.682555 720.496015 
L 327.166585 720.496015 
L 332.650614 720.496015 
L 338.134644 714.642939 
L 343.618673 714.642939 
L 349.102703 714.642939 
L 354.586732 711.716401 
L 360.070762 711.716401 
L 365.554791 711.716401 
L 371.038821 711.716401 
L 376.52285 708.789863 
L 382.00688 708.789863 
L 387.490909 708.789863 
" style="fill:none;stroke:#ff0000;stroke-linecap:square;stroke-width:1.5;"/>
   </g>
   <g id="patch_3">
    <path d="M 144 756 
L 144 103.68 
" style="fill:none;stroke:#000000;stroke-linecap:square;stroke-linejoin:miter;stroke-width:0.8;"/>
   </g>
   <g id="patch_4">
    <path d="M 1036.8 756 
L 1036.8 103.68 
" style="fill:none;stroke:#000000;stroke-linecap:square;stroke-linejoin:miter;stroke-width:0.8;"/>
   </g>
   <g id="patch_5">
    <path d="M 144 756 
L 1036.8 756 
" style="fill:none;stroke:#000000;stroke-linecap:square;stroke-linejoin:miter;stroke-width:0.8;"/>
   </g>
   <g id="patch_6">
    <path d="M 144 103.68 
L 1036.8 103.68 
" style="fill:none;stroke:#000000;stroke-linecap:square;stroke-linejoin:miter;stroke-width:0.8;"/>
   </g>
   <g id="legend_1">
    <g id="patch_7">
     <path d="M 158 266.46125 
L 451.41875 266.46125 
Q 455.41875 266.46125 455.41875 262.46125 
L 455.41875 117.68 
Q 455.41875 113.68 451.41875 113.68 
L 158 113.68 
Q 154 113.68 154 117.68 
L 154 262.46125 
Q 154 266.46125 158 266.46125 
z
" style="fill:#ffffff;opacity:0.8;stroke:#cccccc;stroke-linejoin:miter;"/>
    </g>
    <g id="line2d_34">
     <path d="M 162 129.876875 
L 202 129.876875 
" style="fill:none;stroke:#1f77b4;stroke-linecap:square;stroke-width:1.5;"/>
    </g>
    <g id="line2d_35"/>
    <g id="text_16">
     <!-- Total Detected Cases -->
     <defs>
      <path d="M -0.296875 72.90625 
L 61.375 72.90625 
L 61.375 64.59375 
L 35.5 64.59375 
L 35.5 0 
L 25.59375 0 
L 25.59375 64.59375 
L -0.296875 64.59375 
z
" id="DejaVuSans-84"/>
      <path d="M 30.609375 48.390625 
Q 23.390625 48.390625 19.1875 42.75 
Q 14.984375 37.109375 14.984375 27.296875 
Q 14.984375 17.484375 19.15625 11.84375 
Q 23.34375 6.203125 30.609375 6.203125 
Q 37.796875 6.203125 41.984375 11.859375 
Q 46.1875 17.53125 46.1875 27.296875 
Q 46.1875 37.015625 41.984375 42.703125 
Q 37.796875 48.390625 30.609375 48.390625 
z
M 30.609375 56 
Q 42.328125 56 49.015625 48.375 
Q 55.71875 40.765625 55.71875 27.296875 
Q 55.71875 13.875 49.015625 6.21875 
Q 42.328125 -1.421875 30.609375 -1.421875 
Q 18.84375 -1.421875 12.171875 6.21875 
Q 5.515625 13.875 5.515625 27.296875 
Q 5.515625 40.765625 12.171875 48.375 
Q 18.84375 56 30.609375 56 
z
" id="DejaVuSans-111"/>
      <path d="M 18.3125 70.21875 
L 18.3125 54.6875 
L 36.8125 54.6875 
L 36.8125 47.703125 
L 18.3125 47.703125 
L 18.3125 18.015625 
Q 18.3125 11.328125 20.140625 9.421875 
Q 21.96875 7.515625 27.59375 7.515625 
L 36.8125 7.515625 
L 36.8125 0 
L 27.59375 0 
Q 17.1875 0 13.234375 3.875 
Q 9.28125 7.765625 9.28125 18.015625 
L 9.28125 47.703125 
L 2.6875 47.703125 
L 2.6875 54.6875 
L 9.28125 54.6875 
L 9.28125 70.21875 
z
" id="DejaVuSans-116"/>
      <path d="M 34.28125 27.484375 
Q 23.390625 27.484375 19.1875 25 
Q 14.984375 22.515625 14.984375 16.5 
Q 14.984375 11.71875 18.140625 8.90625 
Q 21.296875 6.109375 26.703125 6.109375 
Q 34.1875 6.109375 38.703125 11.40625 
Q 43.21875 16.703125 43.21875 25.484375 
L 43.21875 27.484375 
z
M 52.203125 31.203125 
L 52.203125 0 
L 43.21875 0 
L 43.21875 8.296875 
Q 40.140625 3.328125 35.546875 0.953125 
Q 30.953125 -1.421875 24.3125 -1.421875 
Q 15.921875 -1.421875 10.953125 3.296875 
Q 6 8.015625 6 15.921875 
Q 6 25.140625 12.171875 29.828125 
Q 18.359375 34.515625 30.609375 34.515625 
L 43.21875 34.515625 
L 43.21875 35.40625 
Q 43.21875 41.609375 39.140625 45 
Q 35.0625 48.390625 27.6875 48.390625 
Q 23 48.390625 18.546875 47.265625 
Q 14.109375 46.140625 10.015625 43.890625 
L 10.015625 52.203125 
Q 14.9375 54.109375 19.578125 55.046875 
Q 24.21875 56 28.609375 56 
Q 40.484375 56 46.34375 49.84375 
Q 52.203125 43.703125 52.203125 31.203125 
z
" id="DejaVuSans-97"/>
      <path d="M 9.421875 75.984375 
L 18.40625 75.984375 
L 18.40625 0 
L 9.421875 0 
z
" id="DejaVuSans-108"/>
      <path id="DejaVuSans-32"/>
      <path d="M 19.671875 64.796875 
L 19.671875 8.109375 
L 31.59375 8.109375 
Q 46.6875 8.109375 53.6875 14.9375 
Q 60.6875 21.78125 60.6875 36.53125 
Q 60.6875 51.171875 53.6875 57.984375 
Q 46.6875 64.796875 31.59375 64.796875 
z
M 9.8125 72.90625 
L 30.078125 72.90625 
Q 51.265625 72.90625 61.171875 64.09375 
Q 71.09375 55.28125 71.09375 36.53125 
Q 71.09375 17.671875 61.125 8.828125 
Q 51.171875 0 30.078125 0 
L 9.8125 0 
z
" id="DejaVuSans-68"/>
      <path d="M 56.203125 29.59375 
L 56.203125 25.203125 
L 14.890625 25.203125 
Q 15.484375 15.921875 20.484375 11.0625 
Q 25.484375 6.203125 34.421875 6.203125 
Q 39.59375 6.203125 44.453125 7.46875 
Q 49.3125 8.734375 54.109375 11.28125 
L 54.109375 2.78125 
Q 49.265625 0.734375 44.1875 -0.34375 
Q 39.109375 -1.421875 33.890625 -1.421875 
Q 20.796875 -1.421875 13.15625 6.1875 
Q 5.515625 13.8125 5.515625 26.8125 
Q 5.515625 40.234375 12.765625 48.109375 
Q 20.015625 56 32.328125 56 
Q 43.359375 56 49.78125 48.890625 
Q 56.203125 41.796875 56.203125 29.59375 
z
M 47.21875 32.234375 
Q 47.125 39.59375 43.09375 43.984375 
Q 39.0625 48.390625 32.421875 48.390625 
Q 24.90625 48.390625 20.390625 44.140625 
Q 15.875 39.890625 15.1875 32.171875 
z
" id="DejaVuSans-101"/>
      <path d="M 48.78125 52.59375 
L 48.78125 44.1875 
Q 44.96875 46.296875 41.140625 47.34375 
Q 37.3125 48.390625 33.40625 48.390625 
Q 24.65625 48.390625 19.8125 42.84375 
Q 14.984375 37.3125 14.984375 27.296875 
Q 14.984375 17.28125 19.8125 11.734375 
Q 24.65625 6.203125 33.40625 6.203125 
Q 37.3125 6.203125 41.140625 7.25 
Q 44.96875 8.296875 48.78125 10.40625 
L 48.78125 2.09375 
Q 45.015625 0.34375 40.984375 -0.53125 
Q 36.96875 -1.421875 32.421875 -1.421875 
Q 20.0625 -1.421875 12.78125 6.34375 
Q 5.515625 14.109375 5.515625 27.296875 
Q 5.515625 40.671875 12.859375 48.328125 
Q 20.21875 56 33.015625 56 
Q 37.15625 56 41.109375 55.140625 
Q 45.0625 54.296875 48.78125 52.59375 
z
" id="DejaVuSans-99"/>
      <path d="M 45.40625 46.390625 
L 45.40625 75.984375 
L 54.390625 75.984375 
L 54.390625 0 
L 45.40625 0 
L 45.40625 8.203125 
Q 42.578125 3.328125 38.25 0.953125 
Q 33.9375 -1.421875 27.875 -1.421875 
Q 17.96875 -1.421875 11.734375 6.484375 
Q 5.515625 14.40625 5.515625 27.296875 
Q 5.515625 40.1875 11.734375 48.09375 
Q 17.96875 56 27.875 56 
Q 33.9375 56 38.25 53.625 
Q 42.578125 51.265625 45.40625 46.390625 
z
M 14.796875 27.296875 
Q 14.796875 17.390625 18.875 11.75 
Q 22.953125 6.109375 30.078125 6.109375 
Q 37.203125 6.109375 41.296875 11.75 
Q 45.40625 17.390625 45.40625 27.296875 
Q 45.40625 37.203125 41.296875 42.84375 
Q 37.203125 48.484375 30.078125 48.484375 
Q 22.953125 48.484375 18.875 42.84375 
Q 14.796875 37.203125 14.796875 27.296875 
z
" id="DejaVuSans-100"/>
      <path d="M 64.40625 67.28125 
L 64.40625 56.890625 
Q 59.421875 61.53125 53.78125 63.8125 
Q 48.140625 66.109375 41.796875 66.109375 
Q 29.296875 66.109375 22.65625 58.46875 
Q 16.015625 50.828125 16.015625 36.375 
Q 16.015625 21.96875 22.65625 14.328125 
Q 29.296875 6.6875 41.796875 6.6875 
Q 48.140625 6.6875 53.78125 8.984375 
Q 59.421875 11.28125 64.40625 15.921875 
L 64.40625 5.609375 
Q 59.234375 2.09375 53.4375 0.328125 
Q 47.65625 -1.421875 41.21875 -1.421875 
Q 24.65625 -1.421875 15.125 8.703125 
Q 5.609375 18.84375 5.609375 36.375 
Q 5.609375 53.953125 15.125 64.078125 
Q 24.65625 74.21875 41.21875 74.21875 
Q 47.75 74.21875 53.53125 72.484375 
Q 59.328125 70.75 64.40625 67.28125 
z
" id="DejaVuSans-67"/>
      <path d="M 44.28125 53.078125 
L 44.28125 44.578125 
Q 40.484375 46.53125 36.375 47.5 
Q 32.28125 48.484375 27.875 48.484375 
Q 21.1875 48.484375 17.84375 46.4375 
Q 14.5 44.390625 14.5 40.28125 
Q 14.5 37.15625 16.890625 35.375 
Q 19.28125 33.59375 26.515625 31.984375 
L 29.59375 31.296875 
Q 39.15625 29.25 43.1875 25.515625 
Q 47.21875 21.78125 47.21875 15.09375 
Q 47.21875 7.46875 41.1875 3.015625 
Q 35.15625 -1.421875 24.609375 -1.421875 
Q 20.21875 -1.421875 15.453125 -0.5625 
Q 10.6875 0.296875 5.421875 2 
L 5.421875 11.28125 
Q 10.40625 8.6875 15.234375 7.390625 
Q 20.0625 6.109375 24.8125 6.109375 
Q 31.15625 6.109375 34.5625 8.28125 
Q 37.984375 10.453125 37.984375 14.40625 
Q 37.984375 18.0625 35.515625 20.015625 
Q 33.0625 21.96875 24.703125 23.78125 
L 21.578125 24.515625 
Q 13.234375 26.265625 9.515625 29.90625 
Q 5.8125 33.546875 5.8125 39.890625 
Q 5.8125 47.609375 11.28125 51.796875 
Q 16.75 56 26.8125 56 
Q 31.78125 56 36.171875 55.265625 
Q 40.578125 54.546875 44.28125 53.078125 
z
" id="DejaVuSans-115"/>
     </defs>
     <g transform="translate(218 136.876875)scale(0.2 -0.2)">
      <use xlink:href="#DejaVuSans-84"/>
      <use x="44.083984" xlink:href="#DejaVuSans-111"/>
      <use x="105.265625" xlink:href="#DejaVuSans-116"/>
      <use x="144.474609" xlink:href="#DejaVuSans-97"/>
      <use x="205.753906" xlink:href="#DejaVuSans-108"/>
      <use x="233.537109" xlink:href="#DejaVuSans-32"/>
      <use x="265.324219" xlink:href="#DejaVuSans-68"/>
      <use x="342.326172" xlink:href="#DejaVuSans-101"/>
      <use x="403.849609" xlink:href="#DejaVuSans-116"/>
      <use x="443.058594" xlink:href="#DejaVuSans-101"/>
      <use x="504.582031" xlink:href="#DejaVuSans-99"/>
      <use x="559.5625" xlink:href="#DejaVuSans-116"/>
      <use x="598.771484" xlink:href="#DejaVuSans-101"/>
      <use x="660.294922" xlink:href="#DejaVuSans-100"/>
      <use x="723.771484" xlink:href="#DejaVuSans-32"/>
      <use x="755.558594" xlink:href="#DejaVuSans-67"/>
      <use x="825.382812" xlink:href="#DejaVuSans-97"/>
      <use x="886.662109" xlink:href="#DejaVuSans-115"/>
      <use x="938.761719" xlink:href="#DejaVuSans-101"/>
      <use x="1000.285156" xlink:href="#DejaVuSans-115"/>
     </g>
    </g>
    <g id="line2d_36">
     <path d="M 162 159.233125 
L 202 159.233125 
" style="fill:none;stroke:#008000;stroke-linecap:square;stroke-width:1.5;"/>
    </g>
    <g id="line2d_37"/>
    <g id="text_17">
     <!-- Ground Truth - Testing -->
     <defs>
      <path d="M 59.515625 10.40625 
L 59.515625 29.984375 
L 43.40625 29.984375 
L 43.40625 38.09375 
L 69.28125 38.09375 
L 69.28125 6.78125 
Q 63.578125 2.734375 56.6875 0.65625 
Q 49.8125 -1.421875 42 -1.421875 
Q 24.90625 -1.421875 15.25 8.5625 
Q 5.609375 18.5625 5.609375 36.375 
Q 5.609375 54.25 15.25 64.234375 
Q 24.90625 74.21875 42 74.21875 
Q 49.125 74.21875 55.546875 72.453125 
Q 61.96875 70.703125 67.390625 67.28125 
L 67.390625 56.78125 
Q 61.921875 61.421875 55.765625 63.765625 
Q 49.609375 66.109375 42.828125 66.109375 
Q 29.4375 66.109375 22.71875 58.640625 
Q 16.015625 51.171875 16.015625 36.375 
Q 16.015625 21.625 22.71875 14.15625 
Q 29.4375 6.6875 42.828125 6.6875 
Q 48.046875 6.6875 52.140625 7.59375 
Q 56.25 8.5 59.515625 10.40625 
z
" id="DejaVuSans-71"/>
      <path d="M 41.109375 46.296875 
Q 39.59375 47.171875 37.8125 47.578125 
Q 36.03125 48 33.890625 48 
Q 26.265625 48 22.1875 43.046875 
Q 18.109375 38.09375 18.109375 28.8125 
L 18.109375 0 
L 9.078125 0 
L 9.078125 54.6875 
L 18.109375 54.6875 
L 18.109375 46.1875 
Q 20.953125 51.171875 25.484375 53.578125 
Q 30.03125 56 36.53125 56 
Q 37.453125 56 38.578125 55.875 
Q 39.703125 55.765625 41.0625 55.515625 
z
" id="DejaVuSans-114"/>
      <path d="M 8.5 21.578125 
L 8.5 54.6875 
L 17.484375 54.6875 
L 17.484375 21.921875 
Q 17.484375 14.15625 20.5 10.265625 
Q 23.53125 6.390625 29.59375 6.390625 
Q 36.859375 6.390625 41.078125 11.03125 
Q 45.3125 15.671875 45.3125 23.6875 
L 45.3125 54.6875 
L 54.296875 54.6875 
L 54.296875 0 
L 45.3125 0 
L 45.3125 8.40625 
Q 42.046875 3.421875 37.71875 1 
Q 33.40625 -1.421875 27.6875 -1.421875 
Q 18.265625 -1.421875 13.375 4.4375 
Q 8.5 10.296875 8.5 21.578125 
z
M 31.109375 56 
z
" id="DejaVuSans-117"/>
      <path d="M 54.890625 33.015625 
L 54.890625 0 
L 45.90625 0 
L 45.90625 32.71875 
Q 45.90625 40.484375 42.875 44.328125 
Q 39.84375 48.1875 33.796875 48.1875 
Q 26.515625 48.1875 22.3125 43.546875 
Q 18.109375 38.921875 18.109375 30.90625 
L 18.109375 0 
L 9.078125 0 
L 9.078125 54.6875 
L 18.109375 54.6875 
L 18.109375 46.1875 
Q 21.34375 51.125 25.703125 53.5625 
Q 30.078125 56 35.796875 56 
Q 45.21875 56 50.046875 50.171875 
Q 54.890625 44.34375 54.890625 33.015625 
z
" id="DejaVuSans-110"/>
      <path d="M 54.890625 33.015625 
L 54.890625 0 
L 45.90625 0 
L 45.90625 32.71875 
Q 45.90625 40.484375 42.875 44.328125 
Q 39.84375 48.1875 33.796875 48.1875 
Q 26.515625 48.1875 22.3125 43.546875 
Q 18.109375 38.921875 18.109375 30.90625 
L 18.109375 0 
L 9.078125 0 
L 9.078125 75.984375 
L 18.109375 75.984375 
L 18.109375 46.1875 
Q 21.34375 51.125 25.703125 53.5625 
Q 30.078125 56 35.796875 56 
Q 45.21875 56 50.046875 50.171875 
Q 54.890625 44.34375 54.890625 33.015625 
z
" id="DejaVuSans-104"/>
      <path d="M 9.421875 54.6875 
L 18.40625 54.6875 
L 18.40625 0 
L 9.421875 0 
z
M 9.421875 75.984375 
L 18.40625 75.984375 
L 18.40625 64.59375 
L 9.421875 64.59375 
z
" id="DejaVuSans-105"/>
      <path d="M 45.40625 27.984375 
Q 45.40625 37.75 41.375 43.109375 
Q 37.359375 48.484375 30.078125 48.484375 
Q 22.859375 48.484375 18.828125 43.109375 
Q 14.796875 37.75 14.796875 27.984375 
Q 14.796875 18.265625 18.828125 12.890625 
Q 22.859375 7.515625 30.078125 7.515625 
Q 37.359375 7.515625 41.375 12.890625 
Q 45.40625 18.265625 45.40625 27.984375 
z
M 54.390625 6.78125 
Q 54.390625 -7.171875 48.1875 -13.984375 
Q 42 -20.796875 29.203125 -20.796875 
Q 24.46875 -20.796875 20.265625 -20.09375 
Q 16.0625 -19.390625 12.109375 -17.921875 
L 12.109375 -9.1875 
Q 16.0625 -11.328125 19.921875 -12.34375 
Q 23.78125 -13.375 27.78125 -13.375 
Q 36.625 -13.375 41.015625 -8.765625 
Q 45.40625 -4.15625 45.40625 5.171875 
L 45.40625 9.625 
Q 42.625 4.78125 38.28125 2.390625 
Q 33.9375 0 27.875 0 
Q 17.828125 0 11.671875 7.65625 
Q 5.515625 15.328125 5.515625 27.984375 
Q 5.515625 40.671875 11.671875 48.328125 
Q 17.828125 56 27.875 56 
Q 33.9375 56 38.28125 53.609375 
Q 42.625 51.21875 45.40625 46.390625 
L 45.40625 54.6875 
L 54.390625 54.6875 
z
" id="DejaVuSans-103"/>
     </defs>
     <g transform="translate(218 166.233125)scale(0.2 -0.2)">
      <use xlink:href="#DejaVuSans-71"/>
      <use x="77.490234" xlink:href="#DejaVuSans-114"/>
      <use x="116.353516" xlink:href="#DejaVuSans-111"/>
      <use x="177.535156" xlink:href="#DejaVuSans-117"/>
      <use x="240.914062" xlink:href="#DejaVuSans-110"/>
      <use x="304.292969" xlink:href="#DejaVuSans-100"/>
      <use x="367.769531" xlink:href="#DejaVuSans-32"/>
      <use x="399.556641" xlink:href="#DejaVuSans-84"/>
      <use x="445.890625" xlink:href="#DejaVuSans-114"/>
      <use x="487.003906" xlink:href="#DejaVuSans-117"/>
      <use x="550.382812" xlink:href="#DejaVuSans-116"/>
      <use x="589.591797" xlink:href="#DejaVuSans-104"/>
      <use x="652.970703" xlink:href="#DejaVuSans-32"/>
      <use x="684.757812" xlink:href="#DejaVuSans-45"/>
      <use x="720.841797" xlink:href="#DejaVuSans-32"/>
      <use x="752.628906" xlink:href="#DejaVuSans-84"/>
      <use x="796.712891" xlink:href="#DejaVuSans-101"/>
      <use x="858.236328" xlink:href="#DejaVuSans-115"/>
      <use x="910.335938" xlink:href="#DejaVuSans-116"/>
      <use x="949.544922" xlink:href="#DejaVuSans-105"/>
      <use x="977.328125" xlink:href="#DejaVuSans-110"/>
      <use x="1040.707031" xlink:href="#DejaVuSans-103"/>
     </g>
    </g>
    <g id="line2d_38">
     <path d="M 162 188.589375 
L 202 188.589375 
" style="fill:none;stroke:#ff0000;stroke-linecap:square;stroke-width:1.5;"/>
    </g>
    <g id="line2d_39"/>
    <g id="text_18">
     <!-- Ground Truth - Training -->
     <g transform="translate(218 195.589375)scale(0.2 -0.2)">
      <use xlink:href="#DejaVuSans-71"/>
      <use x="77.490234" xlink:href="#DejaVuSans-114"/>
      <use x="116.353516" xlink:href="#DejaVuSans-111"/>
      <use x="177.535156" xlink:href="#DejaVuSans-117"/>
      <use x="240.914062" xlink:href="#DejaVuSans-110"/>
      <use x="304.292969" xlink:href="#DejaVuSans-100"/>
      <use x="367.769531" xlink:href="#DejaVuSans-32"/>
      <use x="399.556641" xlink:href="#DejaVuSans-84"/>
      <use x="445.890625" xlink:href="#DejaVuSans-114"/>
      <use x="487.003906" xlink:href="#DejaVuSans-117"/>
      <use x="550.382812" xlink:href="#DejaVuSans-116"/>
      <use x="589.591797" xlink:href="#DejaVuSans-104"/>
      <use x="652.970703" xlink:href="#DejaVuSans-32"/>
      <use x="684.757812" xlink:href="#DejaVuSans-45"/>
      <use x="720.841797" xlink:href="#DejaVuSans-32"/>
      <use x="752.628906" xlink:href="#DejaVuSans-84"/>
      <use x="798.962891" xlink:href="#DejaVuSans-114"/>
      <use x="840.076172" xlink:href="#DejaVuSans-97"/>
      <use x="901.355469" xlink:href="#DejaVuSans-105"/>
      <use x="929.138672" xlink:href="#DejaVuSans-110"/>
      <use x="992.517578" xlink:href="#DejaVuSans-105"/>
      <use x="1020.300781" xlink:href="#DejaVuSans-110"/>
      <use x="1083.679688" xlink:href="#DejaVuSans-103"/>
     </g>
    </g>
    <g id="patch_8">
     <path d="M 162 224.945625 
L 202 224.945625 
L 202 210.945625 
L 162 210.945625 
z
" style="fill:#0000ff;opacity:0.1;stroke:#0000ff;stroke-linejoin:miter;"/>
    </g>
    <g id="text_19">
     <!-- IQR -->
     <defs>
      <path d="M 9.8125 72.90625 
L 19.671875 72.90625 
L 19.671875 0 
L 9.8125 0 
z
" id="DejaVuSans-73"/>
      <path d="M 39.40625 66.21875 
Q 28.65625 66.21875 22.328125 58.203125 
Q 16.015625 50.203125 16.015625 36.375 
Q 16.015625 22.609375 22.328125 14.59375 
Q 28.65625 6.59375 39.40625 6.59375 
Q 50.140625 6.59375 56.421875 14.59375 
Q 62.703125 22.609375 62.703125 36.375 
Q 62.703125 50.203125 56.421875 58.203125 
Q 50.140625 66.21875 39.40625 66.21875 
z
M 53.21875 1.3125 
L 66.21875 -12.890625 
L 54.296875 -12.890625 
L 43.5 -1.21875 
Q 41.890625 -1.3125 41.03125 -1.359375 
Q 40.1875 -1.421875 39.40625 -1.421875 
Q 24.03125 -1.421875 14.8125 8.859375 
Q 5.609375 19.140625 5.609375 36.375 
Q 5.609375 53.65625 14.8125 63.9375 
Q 24.03125 74.21875 39.40625 74.21875 
Q 54.734375 74.21875 63.90625 63.9375 
Q 73.09375 53.65625 73.09375 36.375 
Q 73.09375 23.6875 67.984375 14.640625 
Q 62.890625 5.609375 53.21875 1.3125 
z
" id="DejaVuSans-81"/>
      <path d="M 44.390625 34.1875 
Q 47.5625 33.109375 50.5625 29.59375 
Q 53.5625 26.078125 56.59375 19.921875 
L 66.609375 0 
L 56 0 
L 46.6875 18.703125 
Q 43.0625 26.03125 39.671875 28.421875 
Q 36.28125 30.8125 30.421875 30.8125 
L 19.671875 30.8125 
L 19.671875 0 
L 9.8125 0 
L 9.8125 72.90625 
L 32.078125 72.90625 
Q 44.578125 72.90625 50.734375 67.671875 
Q 56.890625 62.453125 56.890625 51.90625 
Q 56.890625 45.015625 53.6875 40.46875 
Q 50.484375 35.9375 44.390625 34.1875 
z
M 19.671875 64.796875 
L 19.671875 38.921875 
L 32.078125 38.921875 
Q 39.203125 38.921875 42.84375 42.21875 
Q 46.484375 45.515625 46.484375 51.90625 
Q 46.484375 58.296875 42.84375 61.546875 
Q 39.203125 64.796875 32.078125 64.796875 
z
" id="DejaVuSans-82"/>
     </defs>
     <g transform="translate(218 224.945625)scale(0.2 -0.2)">
      <use xlink:href="#DejaVuSans-73"/>
      <use x="29.492188" xlink:href="#DejaVuSans-81"/>
      <use x="108.203125" xlink:href="#DejaVuSans-82"/>
     </g>
    </g>
    <g id="patch_9">
     <path d="M 162 254.301875 
L 202 254.301875 
L 202 240.301875 
L 162 240.301875 
z
" style="fill:#0000ff;opacity:0.05;stroke:#0000ff;stroke-linejoin:miter;"/>
    </g>
    <g id="text_20">
     <!-- 95% CI -->
     <defs>
      <path d="M 72.703125 32.078125 
Q 68.453125 32.078125 66.03125 28.46875 
Q 63.625 24.859375 63.625 18.40625 
Q 63.625 12.0625 66.03125 8.421875 
Q 68.453125 4.78125 72.703125 4.78125 
Q 76.859375 4.78125 79.265625 8.421875 
Q 81.6875 12.0625 81.6875 18.40625 
Q 81.6875 24.8125 79.265625 28.4375 
Q 76.859375 32.078125 72.703125 32.078125 
z
M 72.703125 38.28125 
Q 80.421875 38.28125 84.953125 32.90625 
Q 89.5 27.546875 89.5 18.40625 
Q 89.5 9.28125 84.9375 3.921875 
Q 80.375 -1.421875 72.703125 -1.421875 
Q 64.890625 -1.421875 60.34375 3.921875 
Q 55.8125 9.28125 55.8125 18.40625 
Q 55.8125 27.59375 60.375 32.9375 
Q 64.9375 38.28125 72.703125 38.28125 
z
M 22.3125 68.015625 
Q 18.109375 68.015625 15.6875 64.375 
Q 13.28125 60.75 13.28125 54.390625 
Q 13.28125 47.953125 15.671875 44.328125 
Q 18.0625 40.71875 22.3125 40.71875 
Q 26.5625 40.71875 28.96875 44.328125 
Q 31.390625 47.953125 31.390625 54.390625 
Q 31.390625 60.6875 28.953125 64.34375 
Q 26.515625 68.015625 22.3125 68.015625 
z
M 66.40625 74.21875 
L 74.21875 74.21875 
L 28.609375 -1.421875 
L 20.796875 -1.421875 
z
M 22.3125 74.21875 
Q 30.03125 74.21875 34.609375 68.875 
Q 39.203125 63.53125 39.203125 54.390625 
Q 39.203125 45.171875 34.640625 39.84375 
Q 30.078125 34.515625 22.3125 34.515625 
Q 14.546875 34.515625 10.03125 39.859375 
Q 5.515625 45.21875 5.515625 54.390625 
Q 5.515625 63.484375 10.046875 68.84375 
Q 14.59375 74.21875 22.3125 74.21875 
z
" id="DejaVuSans-37"/>
     </defs>
     <g transform="translate(218 254.301875)scale(0.2 -0.2)">
      <use xlink:href="#DejaVuSans-57"/>
      <use x="63.623047" xlink:href="#DejaVuSans-53"/>
      <use x="127.246094" xlink:href="#DejaVuSans-37"/>
      <use x="222.265625" xlink:href="#DejaVuSans-32"/>
      <use x="254.052734" xlink:href="#DejaVuSans-67"/>
      <use x="323.876953" xlink:href="#DejaVuSans-73"/>
     </g>
    </g>
   </g>
  </g>
 </g>
 <defs>
  <clipPath id="p115b214e84">
   <rect height="652.32" width="892.8" x="144" y="103.68"/>
  </clipPath>
 </defs>
</svg>
