<?xml version="1.0" encoding="utf-8" standalone="no"?>
<!DOCTYPE svg PUBLIC "-//W3C//DTD SVG 1.1//EN"
  "http://www.w3.org/Graphics/SVG/1.1/DTD/svg11.dtd">
<!-- Created with matplotlib (https://matplotlib.org/) -->
<svg height="864pt" version="1.1" viewBox="0 0 1152 864" width="1152pt" xmlns="http://www.w3.org/2000/svg" xmlns:xlink="http://www.w3.org/1999/xlink">
 <defs>
  <style type="text/css">
*{stroke-linecap:butt;stroke-linejoin:round;}
  </style>
 </defs>
 <g id="figure_1">
  <g id="patch_1">
   <path d="M 0 864 
L 1152 864 
L 1152 0 
L 0 0 
z
" style="fill:#ffffff;"/>
  </g>
  <g id="axes_1">
   <g id="patch_2">
    <path d="M 144 756 
L 1036.8 756 
L 1036.8 103.68 
L 144 103.68 
z
" style="fill:#ffffff;"/>
   </g>
   <g id="PolyCollection_1">
    <defs>
     <path d="M 184.581818 -137.650909 
L 184.581818 -137.650909 
L 189.686449 -137.650909 
L 194.791081 -137.650909 
L 199.895712 -137.650909 
L 205.000343 -137.650909 
L 210.104974 -137.650909 
L 215.209605 -137.650909 
L 220.314237 -137.650909 
L 225.418868 -137.650909 
L 230.523499 -137.650909 
L 235.62813 -137.650909 
L 240.732762 -137.650909 
L 245.837393 -137.650909 
L 250.942024 -137.650909 
L 256.046655 -137.650909 
L 261.151286 -137.650909 
L 266.255918 -137.650909 
L 271.360549 -137.650909 
L 276.46518 -137.650909 
L 281.569811 -137.650909 
L 286.674443 -137.650909 
L 291.779074 -137.650909 
L 296.883705 -137.650909 
L 301.988336 -137.650909 
L 307.092967 -137.650909 
L 312.197599 -137.650909 
L 317.30223 -138.297194 
L 322.406861 -140.968503 
L 327.511492 -143.338214 
L 332.616123 -145.543151 
L 337.720755 -148.013006 
L 342.825386 -150.447345 
L 347.930017 -152.817055 
L 353.034648 -155.186765 
L 358.13928 -155.897678 
L 363.243911 -157.865644 
L 368.348542 -160.235354 
L 373.453173 -162.497423 
L 378.557804 -164.867133 
L 383.662436 -167.236843 
L 388.767067 -169.606553 
L 393.871698 -172.766167 
L 398.976329 -175.250312 
L 404.080961 -178.330935 
L 409.185592 -183.070356 
L 414.290223 -187.809776 
L 419.394854 -192.549197 
L 424.499485 -195.209735 
L 429.604117 -195.209735 
L 434.708748 -195.209735 
L 439.813379 -195.209735 
L 444.91801 -195.209735 
L 450.022642 -195.209735 
L 455.127273 -195.209735 
L 460.231904 -195.209735 
L 465.336535 -195.209735 
L 470.441166 -195.209735 
L 475.545798 -195.682481 
L 480.650429 -199.237046 
L 485.75506 -202.643034 
L 490.859691 -202.643034 
L 495.964322 -203.121075 
L 501.068954 -205.490786 
L 506.173585 -207.860496 
L 511.278216 -210.230206 
L 516.382847 -212.599916 
L 521.487479 -217.339337 
L 526.59211 -220.893902 
L 531.696741 -224.448468 
L 536.801372 -226.818178 
L 541.906003 -229.187888 
L 547.010635 -231.557599 
L 552.115266 -233.927309 
L 557.219897 -236.297019 
L 562.324528 -238.666729 
L 567.42916 -239.710482 
L 572.533791 -239.710482 
L 577.638422 -239.710482 
L 582.743053 -239.710482 
L 587.847684 -239.710482 
L 592.952316 -239.710482 
L 598.056947 -239.710482 
L 603.161578 -239.710482 
L 608.266209 -239.710482 
L 613.37084 -239.710482 
L 618.475472 -239.710482 
L 623.580103 -239.710482 
L 628.684734 -239.710482 
L 633.789365 -239.710482 
L 638.893997 -239.710482 
L 643.998628 -239.710482 
L 649.103259 -239.710482 
L 654.20789 -239.710482 
L 659.312521 -240.733306 
L 664.417153 -243.103016 
L 669.521784 -245.472726 
L 674.626415 -247.842437 
L 679.731046 -250.212147 
L 684.835678 -252.581857 
L 689.940309 -254.951567 
L 695.04494 -257.321278 
L 700.149571 -259.690988 
L 705.254202 -262.060698 
L 710.358834 -262.363832 
L 715.463465 -264.374651 
L 720.568096 -266.744361 
L 725.672727 -269.114071 
L 730.777358 -271.483781 
L 735.88199 -273.853492 
L 740.986621 -273.90925 
L 746.091252 -273.90925 
L 751.195883 -273.90925 
L 756.300515 -273.90925 
L 761.405146 -273.90925 
L 766.509777 -273.90925 
L 771.614408 -273.90925 
L 776.719039 -273.90925 
L 781.823671 -273.90925 
L 786.928302 -273.90925 
L 792.032933 -273.90925 
L 797.137564 -273.90925 
L 802.242196 -273.90925 
L 807.346827 -273.90925 
L 812.451458 -273.90925 
L 822.66072 -273.90925 
L 832.869983 -273.90925 
L 843.079245 -273.90925 
L 848.183877 -273.90925 
L 858.393139 -273.90925 
L 873.707033 -273.90925 
L 878.811664 -273.90925 
L 909.439451 -273.90925 
L 940.067238 -273.90925 
L 960.485763 -273.90925 
L 996.218182 -273.90925 
L 996.218182 -510.105664 
L 996.218182 -510.105664 
L 960.485763 -510.105664 
L 940.067238 -510.105664 
L 909.439451 -510.105664 
L 878.811664 -510.105664 
L 873.707033 -510.105664 
L 858.393139 -510.105664 
L 848.183877 -510.105664 
L 843.079245 -510.105664 
L 832.869983 -510.105664 
L 822.66072 -510.105664 
L 812.451458 -510.105664 
L 807.346827 -510.105664 
L 802.242196 -510.105664 
L 797.137564 -510.105664 
L 792.032933 -510.105664 
L 786.928302 -510.105664 
L 781.823671 -510.105664 
L 776.719039 -510.105664 
L 771.614408 -510.105664 
L 766.509777 -510.105664 
L 761.405146 -510.105664 
L 756.300515 -510.105664 
L 751.195883 -508.920809 
L 746.091252 -507.735954 
L 740.986621 -506.551099 
L 735.88199 -505.366244 
L 730.777358 -504.181388 
L 725.672727 -502.996533 
L 720.568096 -501.811678 
L 715.463465 -500.626823 
L 710.358834 -499.441968 
L 705.254202 -498.257113 
L 700.149571 -497.072258 
L 695.04494 -495.887402 
L 689.940309 -494.702547 
L 684.835678 -493.517692 
L 679.731046 -492.332837 
L 674.626415 -489.963127 
L 669.521784 -487.593417 
L 664.417153 -485.223706 
L 659.312521 -482.853996 
L 654.20789 -480.484286 
L 649.103259 -478.114575 
L 643.998628 -475.744865 
L 638.893997 -473.375155 
L 633.789365 -471.005445 
L 628.684734 -468.635734 
L 623.580103 -466.266024 
L 618.475472 -463.896314 
L 613.37084 -461.526604 
L 608.266209 -459.152303 
L 603.161578 -454.412882 
L 598.056947 -449.673462 
L 592.952316 -445.180414 
L 587.847684 -445.180414 
L 582.743053 -445.180414 
L 577.638422 -444.938632 
L 572.533791 -442.568921 
L 567.42916 -440.199211 
L 562.324528 -437.829501 
L 557.219897 -433.09008 
L 552.115266 -428.35066 
L 547.010635 -422.821336 
L 541.906003 -416.743891 
L 536.801372 -412.00447 
L 531.696741 -407.26505 
L 526.59211 -402.525629 
L 521.487479 -399.517353 
L 516.382847 -397.147642 
L 511.278216 -392.408222 
L 506.173585 -387.668801 
L 501.068954 -384.114236 
L 495.964322 -380.55967 
L 490.859691 -378.18996 
L 485.75506 -371.908091 
L 480.650429 -364.798961 
L 475.545798 -358.456203 
L 470.441166 -353.716783 
L 465.336535 -350.392003 
L 460.231904 -348.022293 
L 455.127273 -345.652583 
L 450.022642 -343.282873 
L 444.91801 -340.913162 
L 439.813379 -337.114982 
L 434.708748 -332.375562 
L 429.604117 -326.451286 
L 424.499485 -319.342155 
L 419.394854 -314.602735 
L 414.290223 -309.863314 
L 409.185592 -305.123894 
L 404.080961 -300.384473 
L 398.976329 -295.645052 
L 393.871698 -290.905632 
L 388.767067 -286.166211 
L 383.662436 -278.658319 
L 378.557804 -271.549188 
L 373.453173 -264.440057 
L 368.348542 -257.330927 
L 363.243911 -250.221796 
L 358.13928 -241.615658 
L 353.034648 -232.136817 
L 347.930017 -222.657976 
L 342.825386 -213.179135 
L 337.720755 -203.700294 
L 332.616123 -194.221453 
L 327.511492 -185.795816 
L 322.406861 -180.612075 
L 317.30223 -175.872655 
L 312.197599 -171.133234 
L 307.092967 -166.393814 
L 301.988336 -161.654393 
L 296.883705 -156.914973 
L 291.779074 -152.959237 
L 286.674443 -149.669751 
L 281.569811 -145.035691 
L 276.46518 -141.241379 
L 271.360549 -138.871669 
L 266.255918 -137.650909 
L 261.151286 -137.650909 
L 256.046655 -137.650909 
L 250.942024 -137.650909 
L 245.837393 -137.650909 
L 240.732762 -137.650909 
L 235.62813 -137.650909 
L 230.523499 -137.650909 
L 225.418868 -137.650909 
L 220.314237 -137.650909 
L 215.209605 -137.650909 
L 210.104974 -137.650909 
L 205.000343 -137.650909 
L 199.895712 -137.650909 
L 194.791081 -137.650909 
L 189.686449 -137.650909 
L 184.581818 -137.650909 
z
" id="m2f1c9b7abb" style="stroke:#0000ff;stroke-opacity:0.1;"/>
    </defs>
    <g clip-path="url(#p81874f9f0c)">
     <use style="fill:#0000ff;fill-opacity:0.1;stroke:#0000ff;stroke-opacity:0.1;" x="0" xlink:href="#m2f1c9b7abb" y="864"/>
    </g>
   </g>
   <g id="PolyCollection_2">
    <defs>
     <path d="M 184.581818 -137.650909 
L 184.581818 -137.650909 
L 189.686449 -137.650909 
L 194.791081 -137.650909 
L 199.895712 -137.650909 
L 205.000343 -137.650909 
L 210.104974 -137.650909 
L 215.209605 -137.650909 
L 220.314237 -137.650909 
L 225.418868 -137.650909 
L 230.523499 -137.650909 
L 235.62813 -137.650909 
L 240.732762 -137.650909 
L 245.837393 -137.650909 
L 250.942024 -137.650909 
L 256.046655 -137.650909 
L 261.151286 -137.650909 
L 266.255918 -137.650909 
L 271.360549 -137.650909 
L 276.46518 -137.650909 
L 281.569811 -137.650909 
L 286.674443 -137.650909 
L 291.779074 -137.650909 
L 296.883705 -137.650909 
L 301.988336 -137.650909 
L 307.092967 -137.650909 
L 312.197599 -137.650909 
L 317.30223 -137.650909 
L 322.406861 -137.650909 
L 327.511492 -137.650909 
L 332.616123 -137.650909 
L 337.720755 -137.650909 
L 342.825386 -137.650909 
L 347.930017 -137.650909 
L 353.034648 -137.650909 
L 358.13928 -137.650909 
L 363.243911 -137.650909 
L 368.348542 -137.650909 
L 373.453173 -137.650909 
L 378.557804 -137.650909 
L 383.662436 -137.650909 
L 388.767067 -137.650909 
L 393.871698 -137.650909 
L 398.976329 -137.650909 
L 404.080961 -137.650909 
L 409.185592 -137.650909 
L 414.290223 -137.650909 
L 419.394854 -137.650909 
L 424.499485 -137.650909 
L 429.604117 -137.650909 
L 434.708748 -137.650909 
L 439.813379 -137.650909 
L 444.91801 -137.650909 
L 450.022642 -137.650909 
L 455.127273 -138.835764 
L 460.231904 -141.205474 
L 465.336535 -143.575185 
L 470.441166 -145.944895 
L 475.545798 -148.314605 
L 480.650429 -150.684316 
L 485.75506 -153.054026 
L 490.859691 -155.423736 
L 495.964322 -158.978302 
L 501.068954 -162.210113 
L 506.173585 -162.210113 
L 511.278216 -162.210113 
L 516.382847 -162.210113 
L 521.487479 -162.210113 
L 526.59211 -162.210113 
L 531.696741 -162.210113 
L 536.801372 -162.210113 
L 541.906003 -162.210113 
L 547.010635 -163.394968 
L 552.115266 -164.579823 
L 557.219897 -164.579823 
L 562.324528 -164.579823 
L 567.42916 -164.579823 
L 572.533791 -164.579823 
L 577.638422 -164.579823 
L 582.743053 -164.579823 
L 587.847684 -164.579823 
L 592.952316 -164.579823 
L 598.056947 -164.579823 
L 603.161578 -164.579823 
L 608.266209 -164.579823 
L 613.37084 -164.579823 
L 618.475472 -164.579823 
L 623.580103 -164.579823 
L 628.684734 -164.579823 
L 633.789365 -164.579823 
L 638.893997 -164.579823 
L 643.998628 -164.579823 
L 649.103259 -164.579823 
L 654.20789 -164.579823 
L 659.312521 -164.579823 
L 664.417153 -164.579823 
L 669.521784 -164.579823 
L 674.626415 -164.579823 
L 679.731046 -164.579823 
L 684.835678 -164.579823 
L 689.940309 -164.579823 
L 695.04494 -164.579823 
L 700.149571 -164.579823 
L 705.254202 -164.579823 
L 710.358834 -164.579823 
L 715.463465 -164.579823 
L 720.568096 -164.579823 
L 725.672727 -164.579823 
L 730.777358 -164.579823 
L 735.88199 -164.579823 
L 740.986621 -164.579823 
L 746.091252 -164.579823 
L 751.195883 -164.579823 
L 756.300515 -164.579823 
L 761.405146 -164.579823 
L 766.509777 -164.579823 
L 771.614408 -164.579823 
L 776.719039 -164.579823 
L 781.823671 -164.579823 
L 786.928302 -164.579823 
L 792.032933 -164.579823 
L 797.137564 -164.579823 
L 802.242196 -164.579823 
L 807.346827 -164.579823 
L 812.451458 -164.579823 
L 822.66072 -164.579823 
L 832.869983 -164.579823 
L 843.079245 -164.579823 
L 848.183877 -164.579823 
L 858.393139 -164.579823 
L 873.707033 -164.579823 
L 878.811664 -164.579823 
L 909.439451 -164.579823 
L 940.067238 -164.579823 
L 960.485763 -164.579823 
L 996.218182 -164.579823 
L 996.218182 -730.669091 
L 996.218182 -730.669091 
L 960.485763 -730.669091 
L 940.067238 -730.669091 
L 909.439451 -730.669091 
L 878.811664 -730.669091 
L 873.707033 -730.669091 
L 858.393139 -730.669091 
L 848.183877 -730.669091 
L 843.079245 -730.669091 
L 832.869983 -730.669091 
L 822.66072 -730.669091 
L 812.451458 -730.669091 
L 807.346827 -730.669091 
L 802.242196 -730.669091 
L 797.137564 -730.669091 
L 792.032933 -730.669091 
L 786.928302 -728.299381 
L 781.823671 -725.92967 
L 776.719039 -723.55996 
L 771.614408 -721.19025 
L 766.509777 -718.82054 
L 761.405146 -716.450829 
L 756.300515 -714.081119 
L 751.195883 -711.711409 
L 746.091252 -709.341698 
L 740.986621 -706.971988 
L 735.88199 -704.602278 
L 730.777358 -702.232568 
L 725.672727 -699.862857 
L 720.568096 -697.493147 
L 715.463465 -695.123437 
L 710.358834 -692.753727 
L 705.254202 -690.384016 
L 700.149571 -688.014306 
L 695.04494 -685.644596 
L 689.940309 -683.274886 
L 684.835678 -680.905175 
L 679.731046 -678.535465 
L 674.626415 -676.165755 
L 669.521784 -673.796044 
L 664.417153 -671.426334 
L 659.312521 -669.056624 
L 654.20789 -666.686914 
L 649.103259 -664.317203 
L 643.998628 -661.947493 
L 638.893997 -659.577783 
L 633.789365 -657.208073 
L 628.684734 -654.838362 
L 623.580103 -652.468652 
L 618.475472 -650.098942 
L 613.37084 -647.729232 
L 608.266209 -645.359521 
L 603.161578 -642.989811 
L 598.056947 -640.620101 
L 592.952316 -638.25039 
L 587.847684 -634.695825 
L 582.743053 -631.14126 
L 577.638422 -627.586694 
L 572.533791 -624.032129 
L 567.42916 -621.662419 
L 562.324528 -619.292708 
L 557.219897 -616.922998 
L 552.115266 -614.553288 
L 547.010635 -612.183577 
L 541.906003 -609.813867 
L 536.801372 -607.444157 
L 531.696741 -605.074447 
L 526.59211 -602.704736 
L 521.487479 -600.335026 
L 516.382847 -597.965316 
L 511.278216 -595.595606 
L 506.173585 -593.225895 
L 501.068954 -590.856185 
L 495.964322 -588.486475 
L 490.859691 -585.326861 
L 485.75506 -580.587441 
L 480.650429 -574.663165 
L 475.545798 -567.554034 
L 470.441166 -560.444903 
L 465.336535 -553.335772 
L 460.231904 -546.226642 
L 455.127273 -539.117511 
L 450.022642 -529.63867 
L 444.91801 -522.529539 
L 439.813379 -515.420408 
L 434.708748 -507.126422 
L 429.604117 -497.647581 
L 424.499485 -488.16874 
L 419.394854 -477.110092 
L 414.290223 -465.261541 
L 409.185592 -453.412989 
L 404.080961 -441.564438 
L 398.976329 -429.715887 
L 393.871698 -419.052191 
L 388.767067 -409.57335 
L 383.662436 -400.094508 
L 378.557804 -390.615667 
L 373.453173 -381.136826 
L 368.348542 -371.657985 
L 363.243911 -362.179144 
L 358.13928 -352.700303 
L 353.034648 -343.221462 
L 347.930017 -333.742621 
L 342.825386 -324.26378 
L 337.720755 -314.509854 
L 332.616123 -303.079486 
L 327.511492 -289.508029 
L 322.406861 -277.659478 
L 317.30223 -265.218499 
L 312.197599 -248.505806 
L 307.092967 -235.305773 
L 301.988336 -225.826932 
L 296.883705 -216.348091 
L 291.779074 -206.86925 
L 286.674443 -195.831389 
L 281.569811 -180.084282 
L 276.46518 -165.165878 
L 271.360549 -152.96187 
L 266.255918 -144.694215 
L 261.151286 -139.954794 
L 256.046655 -137.650909 
L 250.942024 -137.650909 
L 245.837393 -137.650909 
L 240.732762 -137.650909 
L 235.62813 -137.650909 
L 230.523499 -137.650909 
L 225.418868 -137.650909 
L 220.314237 -137.650909 
L 215.209605 -137.650909 
L 210.104974 -137.650909 
L 205.000343 -137.650909 
L 199.895712 -137.650909 
L 194.791081 -137.650909 
L 189.686449 -137.650909 
L 184.581818 -137.650909 
z
" id="m80046c51ff" style="stroke:#0000ff;stroke-opacity:0.05;"/>
    </defs>
    <g clip-path="url(#p81874f9f0c)">
     <use style="fill:#0000ff;fill-opacity:0.05;stroke:#0000ff;stroke-opacity:0.05;" x="0" xlink:href="#m80046c51ff" y="864"/>
    </g>
   </g>
   <g id="matplotlib.axis_1">
    <g id="xtick_1">
     <g id="line2d_1">
      <path clip-path="url(#p81874f9f0c)" d="M 184.581818 756 
L 184.581818 103.68 
" style="fill:none;stroke:#b0b0b0;stroke-linecap:square;stroke-width:0.8;"/>
     </g>
     <g id="line2d_2">
      <defs>
       <path d="M 0 0 
L 0 3.5 
" id="m8dede6582e" style="stroke:#000000;stroke-width:0.8;"/>
      </defs>
      <g>
       <use style="stroke:#000000;stroke-width:0.8;" x="184.581818" xlink:href="#m8dede6582e" y="756"/>
      </g>
     </g>
     <g id="text_1">
      <!-- 2020-04 -->
      <defs>
       <path d="M 19.1875 8.296875 
L 53.609375 8.296875 
L 53.609375 0 
L 7.328125 0 
L 7.328125 8.296875 
Q 12.9375 14.109375 22.625 23.890625 
Q 32.328125 33.6875 34.8125 36.53125 
Q 39.546875 41.84375 41.421875 45.53125 
Q 43.3125 49.21875 43.3125 52.78125 
Q 43.3125 58.59375 39.234375 62.25 
Q 35.15625 65.921875 28.609375 65.921875 
Q 23.96875 65.921875 18.8125 64.3125 
Q 13.671875 62.703125 7.8125 59.421875 
L 7.8125 69.390625 
Q 13.765625 71.78125 18.9375 73 
Q 24.125 74.21875 28.421875 74.21875 
Q 39.75 74.21875 46.484375 68.546875 
Q 53.21875 62.890625 53.21875 53.421875 
Q 53.21875 48.921875 51.53125 44.890625 
Q 49.859375 40.875 45.40625 35.40625 
Q 44.1875 33.984375 37.640625 27.21875 
Q 31.109375 20.453125 19.1875 8.296875 
z
" id="DejaVuSans-50"/>
       <path d="M 31.78125 66.40625 
Q 24.171875 66.40625 20.328125 58.90625 
Q 16.5 51.421875 16.5 36.375 
Q 16.5 21.390625 20.328125 13.890625 
Q 24.171875 6.390625 31.78125 6.390625 
Q 39.453125 6.390625 43.28125 13.890625 
Q 47.125 21.390625 47.125 36.375 
Q 47.125 51.421875 43.28125 58.90625 
Q 39.453125 66.40625 31.78125 66.40625 
z
M 31.78125 74.21875 
Q 44.046875 74.21875 50.515625 64.515625 
Q 56.984375 54.828125 56.984375 36.375 
Q 56.984375 17.96875 50.515625 8.265625 
Q 44.046875 -1.421875 31.78125 -1.421875 
Q 19.53125 -1.421875 13.0625 8.265625 
Q 6.59375 17.96875 6.59375 36.375 
Q 6.59375 54.828125 13.0625 64.515625 
Q 19.53125 74.21875 31.78125 74.21875 
z
" id="DejaVuSans-48"/>
       <path d="M 4.890625 31.390625 
L 31.203125 31.390625 
L 31.203125 23.390625 
L 4.890625 23.390625 
z
" id="DejaVuSans-45"/>
       <path d="M 37.796875 64.3125 
L 12.890625 25.390625 
L 37.796875 25.390625 
z
M 35.203125 72.90625 
L 47.609375 72.90625 
L 47.609375 25.390625 
L 58.015625 25.390625 
L 58.015625 17.1875 
L 47.609375 17.1875 
L 47.609375 0 
L 37.796875 0 
L 37.796875 17.1875 
L 4.890625 17.1875 
L 4.890625 26.703125 
z
" id="DejaVuSans-52"/>
      </defs>
      <g transform="translate(142.799006 778.196875)scale(0.2 -0.2)">
       <use xlink:href="#DejaVuSans-50"/>
       <use x="63.623047" xlink:href="#DejaVuSans-48"/>
       <use x="127.246094" xlink:href="#DejaVuSans-50"/>
       <use x="190.869141" xlink:href="#DejaVuSans-48"/>
       <use x="254.492188" xlink:href="#DejaVuSans-45"/>
       <use x="290.576172" xlink:href="#DejaVuSans-48"/>
       <use x="354.199219" xlink:href="#DejaVuSans-52"/>
      </g>
     </g>
    </g>
    <g id="xtick_2">
     <g id="line2d_3">
      <path clip-path="url(#p81874f9f0c)" d="M 337.720755 756 
L 337.720755 103.68 
" style="fill:none;stroke:#b0b0b0;stroke-linecap:square;stroke-width:0.8;"/>
     </g>
     <g id="line2d_4">
      <g>
       <use style="stroke:#000000;stroke-width:0.8;" x="337.720755" xlink:href="#m8dede6582e" y="756"/>
      </g>
     </g>
     <g id="text_2">
      <!-- 2020-05 -->
      <defs>
       <path d="M 10.796875 72.90625 
L 49.515625 72.90625 
L 49.515625 64.59375 
L 19.828125 64.59375 
L 19.828125 46.734375 
Q 21.96875 47.46875 24.109375 47.828125 
Q 26.265625 48.1875 28.421875 48.1875 
Q 40.625 48.1875 47.75 41.5 
Q 54.890625 34.8125 54.890625 23.390625 
Q 54.890625 11.625 47.5625 5.09375 
Q 40.234375 -1.421875 26.90625 -1.421875 
Q 22.3125 -1.421875 17.546875 -0.640625 
Q 12.796875 0.140625 7.71875 1.703125 
L 7.71875 11.625 
Q 12.109375 9.234375 16.796875 8.0625 
Q 21.484375 6.890625 26.703125 6.890625 
Q 35.15625 6.890625 40.078125 11.328125 
Q 45.015625 15.765625 45.015625 23.390625 
Q 45.015625 31 40.078125 35.4375 
Q 35.15625 39.890625 26.703125 39.890625 
Q 22.75 39.890625 18.8125 39.015625 
Q 14.890625 38.140625 10.796875 36.28125 
z
" id="DejaVuSans-53"/>
      </defs>
      <g transform="translate(295.937942 778.196875)scale(0.2 -0.2)">
       <use xlink:href="#DejaVuSans-50"/>
       <use x="63.623047" xlink:href="#DejaVuSans-48"/>
       <use x="127.246094" xlink:href="#DejaVuSans-50"/>
       <use x="190.869141" xlink:href="#DejaVuSans-48"/>
       <use x="254.492188" xlink:href="#DejaVuSans-45"/>
       <use x="290.576172" xlink:href="#DejaVuSans-48"/>
       <use x="354.199219" xlink:href="#DejaVuSans-53"/>
      </g>
     </g>
    </g>
    <g id="xtick_3">
     <g id="line2d_5">
      <path clip-path="url(#p81874f9f0c)" d="M 495.964322 756 
L 495.964322 103.68 
" style="fill:none;stroke:#b0b0b0;stroke-linecap:square;stroke-width:0.8;"/>
     </g>
     <g id="line2d_6">
      <g>
       <use style="stroke:#000000;stroke-width:0.8;" x="495.964322" xlink:href="#m8dede6582e" y="756"/>
      </g>
     </g>
     <g id="text_3">
      <!-- 2020-06 -->
      <defs>
       <path d="M 33.015625 40.375 
Q 26.375 40.375 22.484375 35.828125 
Q 18.609375 31.296875 18.609375 23.390625 
Q 18.609375 15.53125 22.484375 10.953125 
Q 26.375 6.390625 33.015625 6.390625 
Q 39.65625 6.390625 43.53125 10.953125 
Q 47.40625 15.53125 47.40625 23.390625 
Q 47.40625 31.296875 43.53125 35.828125 
Q 39.65625 40.375 33.015625 40.375 
z
M 52.59375 71.296875 
L 52.59375 62.3125 
Q 48.875 64.0625 45.09375 64.984375 
Q 41.3125 65.921875 37.59375 65.921875 
Q 27.828125 65.921875 22.671875 59.328125 
Q 17.53125 52.734375 16.796875 39.40625 
Q 19.671875 43.65625 24.015625 45.921875 
Q 28.375 48.1875 33.59375 48.1875 
Q 44.578125 48.1875 50.953125 41.515625 
Q 57.328125 34.859375 57.328125 23.390625 
Q 57.328125 12.15625 50.6875 5.359375 
Q 44.046875 -1.421875 33.015625 -1.421875 
Q 20.359375 -1.421875 13.671875 8.265625 
Q 6.984375 17.96875 6.984375 36.375 
Q 6.984375 53.65625 15.1875 63.9375 
Q 23.390625 74.21875 37.203125 74.21875 
Q 40.921875 74.21875 44.703125 73.484375 
Q 48.484375 72.75 52.59375 71.296875 
z
" id="DejaVuSans-54"/>
      </defs>
      <g transform="translate(454.18151 778.196875)scale(0.2 -0.2)">
       <use xlink:href="#DejaVuSans-50"/>
       <use x="63.623047" xlink:href="#DejaVuSans-48"/>
       <use x="127.246094" xlink:href="#DejaVuSans-50"/>
       <use x="190.869141" xlink:href="#DejaVuSans-48"/>
       <use x="254.492188" xlink:href="#DejaVuSans-45"/>
       <use x="290.576172" xlink:href="#DejaVuSans-48"/>
       <use x="354.199219" xlink:href="#DejaVuSans-54"/>
      </g>
     </g>
    </g>
    <g id="xtick_4">
     <g id="line2d_7">
      <path clip-path="url(#p81874f9f0c)" d="M 649.103259 756 
L 649.103259 103.68 
" style="fill:none;stroke:#b0b0b0;stroke-linecap:square;stroke-width:0.8;"/>
     </g>
     <g id="line2d_8">
      <g>
       <use style="stroke:#000000;stroke-width:0.8;" x="649.103259" xlink:href="#m8dede6582e" y="756"/>
      </g>
     </g>
     <g id="text_4">
      <!-- 2020-07 -->
      <defs>
       <path d="M 8.203125 72.90625 
L 55.078125 72.90625 
L 55.078125 68.703125 
L 28.609375 0 
L 18.3125 0 
L 43.21875 64.59375 
L 8.203125 64.59375 
z
" id="DejaVuSans-55"/>
      </defs>
      <g transform="translate(607.320447 778.196875)scale(0.2 -0.2)">
       <use xlink:href="#DejaVuSans-50"/>
       <use x="63.623047" xlink:href="#DejaVuSans-48"/>
       <use x="127.246094" xlink:href="#DejaVuSans-50"/>
       <use x="190.869141" xlink:href="#DejaVuSans-48"/>
       <use x="254.492188" xlink:href="#DejaVuSans-45"/>
       <use x="290.576172" xlink:href="#DejaVuSans-48"/>
       <use x="354.199219" xlink:href="#DejaVuSans-55"/>
      </g>
     </g>
    </g>
    <g id="xtick_5">
     <g id="line2d_9">
      <path clip-path="url(#p81874f9f0c)" d="M 807.346827 756 
L 807.346827 103.68 
" style="fill:none;stroke:#b0b0b0;stroke-linecap:square;stroke-width:0.8;"/>
     </g>
     <g id="line2d_10">
      <g>
       <use style="stroke:#000000;stroke-width:0.8;" x="807.346827" xlink:href="#m8dede6582e" y="756"/>
      </g>
     </g>
     <g id="text_5">
      <!-- 2020-08 -->
      <defs>
       <path d="M 31.78125 34.625 
Q 24.75 34.625 20.71875 30.859375 
Q 16.703125 27.09375 16.703125 20.515625 
Q 16.703125 13.921875 20.71875 10.15625 
Q 24.75 6.390625 31.78125 6.390625 
Q 38.8125 6.390625 42.859375 10.171875 
Q 46.921875 13.96875 46.921875 20.515625 
Q 46.921875 27.09375 42.890625 30.859375 
Q 38.875 34.625 31.78125 34.625 
z
M 21.921875 38.8125 
Q 15.578125 40.375 12.03125 44.71875 
Q 8.5 49.078125 8.5 55.328125 
Q 8.5 64.0625 14.71875 69.140625 
Q 20.953125 74.21875 31.78125 74.21875 
Q 42.671875 74.21875 48.875 69.140625 
Q 55.078125 64.0625 55.078125 55.328125 
Q 55.078125 49.078125 51.53125 44.71875 
Q 48 40.375 41.703125 38.8125 
Q 48.828125 37.15625 52.796875 32.3125 
Q 56.78125 27.484375 56.78125 20.515625 
Q 56.78125 9.90625 50.3125 4.234375 
Q 43.84375 -1.421875 31.78125 -1.421875 
Q 19.734375 -1.421875 13.25 4.234375 
Q 6.78125 9.90625 6.78125 20.515625 
Q 6.78125 27.484375 10.78125 32.3125 
Q 14.796875 37.15625 21.921875 38.8125 
z
M 18.3125 54.390625 
Q 18.3125 48.734375 21.84375 45.5625 
Q 25.390625 42.390625 31.78125 42.390625 
Q 38.140625 42.390625 41.71875 45.5625 
Q 45.3125 48.734375 45.3125 54.390625 
Q 45.3125 60.0625 41.71875 63.234375 
Q 38.140625 66.40625 31.78125 66.40625 
Q 25.390625 66.40625 21.84375 63.234375 
Q 18.3125 60.0625 18.3125 54.390625 
z
" id="DejaVuSans-56"/>
      </defs>
      <g transform="translate(765.564014 778.196875)scale(0.2 -0.2)">
       <use xlink:href="#DejaVuSans-50"/>
       <use x="63.623047" xlink:href="#DejaVuSans-48"/>
       <use x="127.246094" xlink:href="#DejaVuSans-50"/>
       <use x="190.869141" xlink:href="#DejaVuSans-48"/>
       <use x="254.492188" xlink:href="#DejaVuSans-45"/>
       <use x="290.576172" xlink:href="#DejaVuSans-48"/>
       <use x="354.199219" xlink:href="#DejaVuSans-56"/>
      </g>
     </g>
    </g>
    <g id="xtick_6">
     <g id="line2d_11">
      <path clip-path="url(#p81874f9f0c)" d="M 965.590395 756 
L 965.590395 103.68 
" style="fill:none;stroke:#b0b0b0;stroke-linecap:square;stroke-width:0.8;"/>
     </g>
     <g id="line2d_12">
      <g>
       <use style="stroke:#000000;stroke-width:0.8;" x="965.590395" xlink:href="#m8dede6582e" y="756"/>
      </g>
     </g>
     <g id="text_6">
      <!-- 2020-09 -->
      <defs>
       <path d="M 10.984375 1.515625 
L 10.984375 10.5 
Q 14.703125 8.734375 18.5 7.8125 
Q 22.3125 6.890625 25.984375 6.890625 
Q 35.75 6.890625 40.890625 13.453125 
Q 46.046875 20.015625 46.78125 33.40625 
Q 43.953125 29.203125 39.59375 26.953125 
Q 35.25 24.703125 29.984375 24.703125 
Q 19.046875 24.703125 12.671875 31.3125 
Q 6.296875 37.9375 6.296875 49.421875 
Q 6.296875 60.640625 12.9375 67.421875 
Q 19.578125 74.21875 30.609375 74.21875 
Q 43.265625 74.21875 49.921875 64.515625 
Q 56.59375 54.828125 56.59375 36.375 
Q 56.59375 19.140625 48.40625 8.859375 
Q 40.234375 -1.421875 26.421875 -1.421875 
Q 22.703125 -1.421875 18.890625 -0.6875 
Q 15.09375 0.046875 10.984375 1.515625 
z
M 30.609375 32.421875 
Q 37.25 32.421875 41.125 36.953125 
Q 45.015625 41.5 45.015625 49.421875 
Q 45.015625 57.28125 41.125 61.84375 
Q 37.25 66.40625 30.609375 66.40625 
Q 23.96875 66.40625 20.09375 61.84375 
Q 16.21875 57.28125 16.21875 49.421875 
Q 16.21875 41.5 20.09375 36.953125 
Q 23.96875 32.421875 30.609375 32.421875 
z
" id="DejaVuSans-57"/>
      </defs>
      <g transform="translate(923.807582 778.196875)scale(0.2 -0.2)">
       <use xlink:href="#DejaVuSans-50"/>
       <use x="63.623047" xlink:href="#DejaVuSans-48"/>
       <use x="127.246094" xlink:href="#DejaVuSans-50"/>
       <use x="190.869141" xlink:href="#DejaVuSans-48"/>
       <use x="254.492188" xlink:href="#DejaVuSans-45"/>
       <use x="290.576172" xlink:href="#DejaVuSans-48"/>
       <use x="354.199219" xlink:href="#DejaVuSans-57"/>
      </g>
     </g>
    </g>
   </g>
   <g id="matplotlib.axis_2">
    <g id="ytick_1">
     <g id="line2d_13">
      <path clip-path="url(#p81874f9f0c)" d="M 144 726.349091 
L 1036.8 726.349091 
" style="fill:none;stroke:#b0b0b0;stroke-linecap:square;stroke-width:0.8;"/>
     </g>
     <g id="line2d_14">
      <defs>
       <path d="M 0 0 
L -3.5 0 
" id="mf5d1c3384f" style="stroke:#000000;stroke-width:0.8;"/>
      </defs>
      <g>
       <use style="stroke:#000000;stroke-width:0.8;" x="144" xlink:href="#mf5d1c3384f" y="726.349091"/>
      </g>
     </g>
     <g id="text_7">
      <!-- 0.0 -->
      <defs>
       <path d="M 10.6875 12.40625 
L 21 12.40625 
L 21 0 
L 10.6875 0 
z
" id="DejaVuSans-46"/>
      </defs>
      <g transform="translate(105.19375 733.947528)scale(0.2 -0.2)">
       <use xlink:href="#DejaVuSans-48"/>
       <use x="63.623047" xlink:href="#DejaVuSans-46"/>
       <use x="95.410156" xlink:href="#DejaVuSans-48"/>
      </g>
     </g>
    </g>
    <g id="ytick_2">
     <g id="line2d_15">
      <path clip-path="url(#p81874f9f0c)" d="M 144 603.147854 
L 1036.8 603.147854 
" style="fill:none;stroke:#b0b0b0;stroke-linecap:square;stroke-width:0.8;"/>
     </g>
     <g id="line2d_16">
      <g>
       <use style="stroke:#000000;stroke-width:0.8;" x="144" xlink:href="#mf5d1c3384f" y="603.147854"/>
      </g>
     </g>
     <g id="text_8">
      <!-- 0.5 -->
      <g transform="translate(105.19375 610.746292)scale(0.2 -0.2)">
       <use xlink:href="#DejaVuSans-48"/>
       <use x="63.623047" xlink:href="#DejaVuSans-46"/>
       <use x="95.410156" xlink:href="#DejaVuSans-53"/>
      </g>
     </g>
    </g>
    <g id="ytick_3">
     <g id="line2d_17">
      <path clip-path="url(#p81874f9f0c)" d="M 144 479.946617 
L 1036.8 479.946617 
" style="fill:none;stroke:#b0b0b0;stroke-linecap:square;stroke-width:0.8;"/>
     </g>
     <g id="line2d_18">
      <g>
       <use style="stroke:#000000;stroke-width:0.8;" x="144" xlink:href="#mf5d1c3384f" y="479.946617"/>
      </g>
     </g>
     <g id="text_9">
      <!-- 1.0 -->
      <defs>
       <path d="M 12.40625 8.296875 
L 28.515625 8.296875 
L 28.515625 63.921875 
L 10.984375 60.40625 
L 10.984375 69.390625 
L 28.421875 72.90625 
L 38.28125 72.90625 
L 38.28125 8.296875 
L 54.390625 8.296875 
L 54.390625 0 
L 12.40625 0 
z
" id="DejaVuSans-49"/>
      </defs>
      <g transform="translate(105.19375 487.545055)scale(0.2 -0.2)">
       <use xlink:href="#DejaVuSans-49"/>
       <use x="63.623047" xlink:href="#DejaVuSans-46"/>
       <use x="95.410156" xlink:href="#DejaVuSans-48"/>
      </g>
     </g>
    </g>
    <g id="ytick_4">
     <g id="line2d_19">
      <path clip-path="url(#p81874f9f0c)" d="M 144 356.74538 
L 1036.8 356.74538 
" style="fill:none;stroke:#b0b0b0;stroke-linecap:square;stroke-width:0.8;"/>
     </g>
     <g id="line2d_20">
      <g>
       <use style="stroke:#000000;stroke-width:0.8;" x="144" xlink:href="#mf5d1c3384f" y="356.74538"/>
      </g>
     </g>
     <g id="text_10">
      <!-- 1.5 -->
      <g transform="translate(105.19375 364.343818)scale(0.2 -0.2)">
       <use xlink:href="#DejaVuSans-49"/>
       <use x="63.623047" xlink:href="#DejaVuSans-46"/>
       <use x="95.410156" xlink:href="#DejaVuSans-53"/>
      </g>
     </g>
    </g>
    <g id="ytick_5">
     <g id="line2d_21">
      <path clip-path="url(#p81874f9f0c)" d="M 144 233.544143 
L 1036.8 233.544143 
" style="fill:none;stroke:#b0b0b0;stroke-linecap:square;stroke-width:0.8;"/>
     </g>
     <g id="line2d_22">
      <g>
       <use style="stroke:#000000;stroke-width:0.8;" x="144" xlink:href="#mf5d1c3384f" y="233.544143"/>
      </g>
     </g>
     <g id="text_11">
      <!-- 2.0 -->
      <g transform="translate(105.19375 241.142581)scale(0.2 -0.2)">
       <use xlink:href="#DejaVuSans-50"/>
       <use x="63.623047" xlink:href="#DejaVuSans-46"/>
       <use x="95.410156" xlink:href="#DejaVuSans-48"/>
      </g>
     </g>
    </g>
    <g id="ytick_6">
     <g id="line2d_23">
      <path clip-path="url(#p81874f9f0c)" d="M 144 110.342907 
L 1036.8 110.342907 
" style="fill:none;stroke:#b0b0b0;stroke-linecap:square;stroke-width:0.8;"/>
     </g>
     <g id="line2d_24">
      <g>
       <use style="stroke:#000000;stroke-width:0.8;" x="144" xlink:href="#mf5d1c3384f" y="110.342907"/>
      </g>
     </g>
     <g id="text_12">
      <!-- 2.5 -->
      <g transform="translate(105.19375 117.941344)scale(0.2 -0.2)">
       <use xlink:href="#DejaVuSans-50"/>
       <use x="63.623047" xlink:href="#DejaVuSans-46"/>
       <use x="95.410156" xlink:href="#DejaVuSans-53"/>
      </g>
     </g>
    </g>
   </g>
   <g id="line2d_25">
    <path clip-path="url(#p81874f9f0c)" d="M 184.581818 726.349091 
L 281.569811 726.349091 
L 286.674443 725.644582 
L 291.779074 723.457158 
L 296.883705 722.046859 
L 301.988336 721.069565 
L 307.092967 719.293817 
L 312.197599 718.055105 
L 317.30223 714.86511 
L 322.406861 711.396322 
L 327.511492 710.493575 
L 332.616123 703.828765 
L 337.720755 700.670113 
L 342.825386 698.166465 
L 347.930017 693.427045 
L 353.034648 690.583392 
L 368.348542 683.474262 
L 373.453173 676.575949 
L 388.767067 655.248556 
L 393.871698 647.308553 
L 409.185592 625.98116 
L 414.290223 619.345972 
L 419.394854 613.670351 
L 424.499485 609.867131 
L 444.91801 590.909448 
L 455.127273 583.276957 
L 460.231904 579.945863 
L 465.336535 577.576153 
L 470.441166 575.502657 
L 475.545798 573.132946 
L 480.650429 569.87628 
L 485.75506 565.729287 
L 490.859691 560.845965 
L 495.964322 557.929397 
L 501.068954 556.152114 
L 506.173585 554.967259 
L 552.115266 533.639866 
L 557.219897 530.721102 
L 562.324528 527.166536 
L 567.42916 524.502402 
L 603.161578 507.91443 
L 608.266209 505.839144 
L 613.37084 504.654289 
L 618.475472 502.833633 
L 623.580103 501.459871 
L 633.789365 499.090161 
L 638.893997 498.606646 
L 643.998628 497.990108 
L 649.103259 496.805253 
L 996.218182 496.785807 
L 996.218182 496.785807 
" style="fill:none;stroke:#1f77b4;stroke-linecap:square;stroke-width:1.5;"/>
   </g>
   <g id="line2d_26">
    <path clip-path="url(#p81874f9f0c)" d="M 184.581818 726.349091 
L 189.686449 726.349091 
L 194.791081 726.349091 
L 199.895712 726.349091 
L 205.000343 726.349091 
L 210.104974 726.349091 
L 215.209605 726.349091 
L 220.314237 726.349091 
L 225.418868 726.349091 
L 230.523499 726.349091 
L 235.62813 726.349091 
L 240.732762 726.349091 
L 245.837393 726.349091 
L 250.942024 726.349091 
L 256.046655 726.349091 
L 261.151286 726.349091 
L 266.255918 726.349091 
L 271.360549 726.349091 
L 276.46518 726.349091 
L 281.569811 726.349091 
L 286.674443 723.979381 
L 291.779074 721.60967 
L 296.883705 721.60967 
L 301.988336 721.60967 
L 307.092967 721.60967 
L 312.197599 712.130829 
L 317.30223 712.130829 
L 322.406861 712.130829 
L 327.511492 690.803437 
L 332.616123 683.694306 
L 337.720755 681.324596 
L 342.825386 659.997203 
L 347.930017 657.627493 
L 353.034648 650.518362 
L 358.13928 645.778942 
L 363.243911 641.039521 
L 368.348542 638.669811 
L 373.453173 636.300101 
L 378.557804 633.93039 
L 383.662436 626.82126 
L 388.767067 624.451549 
L 393.871698 622.081839 
L 398.976329 619.712129 
L 404.080961 619.712129 
L 409.185592 619.712129 
L 414.290223 619.712129 
" style="fill:none;stroke:#008000;stroke-linecap:square;stroke-width:1.5;"/>
   </g>
   <g id="line2d_27">
    <path clip-path="url(#p81874f9f0c)" d="M 184.581818 726.349091 
L 189.686449 726.349091 
L 194.791081 726.349091 
L 199.895712 726.349091 
L 205.000343 726.349091 
L 210.104974 726.349091 
L 215.209605 726.349091 
L 220.314237 726.349091 
L 225.418868 726.349091 
L 230.523499 726.349091 
L 235.62813 726.349091 
L 240.732762 726.349091 
L 245.837393 726.349091 
L 250.942024 726.349091 
L 256.046655 726.349091 
L 261.151286 726.349091 
L 266.255918 726.349091 
L 271.360549 726.349091 
L 276.46518 726.349091 
L 281.569811 726.349091 
L 286.674443 723.979381 
L 291.779074 721.60967 
L 296.883705 721.60967 
L 301.988336 721.60967 
L 307.092967 721.60967 
L 312.197599 712.130829 
L 317.30223 712.130829 
L 322.406861 712.130829 
L 327.511492 690.803437 
L 332.616123 683.694306 
L 337.720755 681.324596 
L 342.825386 659.997203 
L 347.930017 657.627493 
L 353.034648 650.518362 
L 358.13928 645.778942 
L 363.243911 641.039521 
L 368.348542 638.669811 
L 373.453173 636.300101 
" style="fill:none;stroke:#ff0000;stroke-linecap:square;stroke-width:1.5;"/>
   </g>
   <g id="patch_3">
    <path d="M 144 756 
L 144 103.68 
" style="fill:none;stroke:#000000;stroke-linecap:square;stroke-linejoin:miter;stroke-width:0.8;"/>
   </g>
   <g id="patch_4">
    <path d="M 1036.8 756 
L 1036.8 103.68 
" style="fill:none;stroke:#000000;stroke-linecap:square;stroke-linejoin:miter;stroke-width:0.8;"/>
   </g>
   <g id="patch_5">
    <path d="M 144 756 
L 1036.8 756 
" style="fill:none;stroke:#000000;stroke-linecap:square;stroke-linejoin:miter;stroke-width:0.8;"/>
   </g>
   <g id="patch_6">
    <path d="M 144 103.68 
L 1036.8 103.68 
" style="fill:none;stroke:#000000;stroke-linecap:square;stroke-linejoin:miter;stroke-width:0.8;"/>
   </g>
   <g id="legend_1">
    <g id="patch_7">
     <path d="M 158 266.46125 
L 451.41875 266.46125 
Q 455.41875 266.46125 455.41875 262.46125 
L 455.41875 117.68 
Q 455.41875 113.68 451.41875 113.68 
L 158 113.68 
Q 154 113.68 154 117.68 
L 154 262.46125 
Q 154 266.46125 158 266.46125 
z
" style="fill:#ffffff;opacity:0.8;stroke:#cccccc;stroke-linejoin:miter;"/>
    </g>
    <g id="line2d_28">
     <path d="M 162 129.876875 
L 202 129.876875 
" style="fill:none;stroke:#1f77b4;stroke-linecap:square;stroke-width:1.5;"/>
    </g>
    <g id="line2d_29"/>
    <g id="text_13">
     <!-- Total Detected Cases -->
     <defs>
      <path d="M -0.296875 72.90625 
L 61.375 72.90625 
L 61.375 64.59375 
L 35.5 64.59375 
L 35.5 0 
L 25.59375 0 
L 25.59375 64.59375 
L -0.296875 64.59375 
z
" id="DejaVuSans-84"/>
      <path d="M 30.609375 48.390625 
Q 23.390625 48.390625 19.1875 42.75 
Q 14.984375 37.109375 14.984375 27.296875 
Q 14.984375 17.484375 19.15625 11.84375 
Q 23.34375 6.203125 30.609375 6.203125 
Q 37.796875 6.203125 41.984375 11.859375 
Q 46.1875 17.53125 46.1875 27.296875 
Q 46.1875 37.015625 41.984375 42.703125 
Q 37.796875 48.390625 30.609375 48.390625 
z
M 30.609375 56 
Q 42.328125 56 49.015625 48.375 
Q 55.71875 40.765625 55.71875 27.296875 
Q 55.71875 13.875 49.015625 6.21875 
Q 42.328125 -1.421875 30.609375 -1.421875 
Q 18.84375 -1.421875 12.171875 6.21875 
Q 5.515625 13.875 5.515625 27.296875 
Q 5.515625 40.765625 12.171875 48.375 
Q 18.84375 56 30.609375 56 
z
" id="DejaVuSans-111"/>
      <path d="M 18.3125 70.21875 
L 18.3125 54.6875 
L 36.8125 54.6875 
L 36.8125 47.703125 
L 18.3125 47.703125 
L 18.3125 18.015625 
Q 18.3125 11.328125 20.140625 9.421875 
Q 21.96875 7.515625 27.59375 7.515625 
L 36.8125 7.515625 
L 36.8125 0 
L 27.59375 0 
Q 17.1875 0 13.234375 3.875 
Q 9.28125 7.765625 9.28125 18.015625 
L 9.28125 47.703125 
L 2.6875 47.703125 
L 2.6875 54.6875 
L 9.28125 54.6875 
L 9.28125 70.21875 
z
" id="DejaVuSans-116"/>
      <path d="M 34.28125 27.484375 
Q 23.390625 27.484375 19.1875 25 
Q 14.984375 22.515625 14.984375 16.5 
Q 14.984375 11.71875 18.140625 8.90625 
Q 21.296875 6.109375 26.703125 6.109375 
Q 34.1875 6.109375 38.703125 11.40625 
Q 43.21875 16.703125 43.21875 25.484375 
L 43.21875 27.484375 
z
M 52.203125 31.203125 
L 52.203125 0 
L 43.21875 0 
L 43.21875 8.296875 
Q 40.140625 3.328125 35.546875 0.953125 
Q 30.953125 -1.421875 24.3125 -1.421875 
Q 15.921875 -1.421875 10.953125 3.296875 
Q 6 8.015625 6 15.921875 
Q 6 25.140625 12.171875 29.828125 
Q 18.359375 34.515625 30.609375 34.515625 
L 43.21875 34.515625 
L 43.21875 35.40625 
Q 43.21875 41.609375 39.140625 45 
Q 35.0625 48.390625 27.6875 48.390625 
Q 23 48.390625 18.546875 47.265625 
Q 14.109375 46.140625 10.015625 43.890625 
L 10.015625 52.203125 
Q 14.9375 54.109375 19.578125 55.046875 
Q 24.21875 56 28.609375 56 
Q 40.484375 56 46.34375 49.84375 
Q 52.203125 43.703125 52.203125 31.203125 
z
" id="DejaVuSans-97"/>
      <path d="M 9.421875 75.984375 
L 18.40625 75.984375 
L 18.40625 0 
L 9.421875 0 
z
" id="DejaVuSans-108"/>
      <path id="DejaVuSans-32"/>
      <path d="M 19.671875 64.796875 
L 19.671875 8.109375 
L 31.59375 8.109375 
Q 46.6875 8.109375 53.6875 14.9375 
Q 60.6875 21.78125 60.6875 36.53125 
Q 60.6875 51.171875 53.6875 57.984375 
Q 46.6875 64.796875 31.59375 64.796875 
z
M 9.8125 72.90625 
L 30.078125 72.90625 
Q 51.265625 72.90625 61.171875 64.09375 
Q 71.09375 55.28125 71.09375 36.53125 
Q 71.09375 17.671875 61.125 8.828125 
Q 51.171875 0 30.078125 0 
L 9.8125 0 
z
" id="DejaVuSans-68"/>
      <path d="M 56.203125 29.59375 
L 56.203125 25.203125 
L 14.890625 25.203125 
Q 15.484375 15.921875 20.484375 11.0625 
Q 25.484375 6.203125 34.421875 6.203125 
Q 39.59375 6.203125 44.453125 7.46875 
Q 49.3125 8.734375 54.109375 11.28125 
L 54.109375 2.78125 
Q 49.265625 0.734375 44.1875 -0.34375 
Q 39.109375 -1.421875 33.890625 -1.421875 
Q 20.796875 -1.421875 13.15625 6.1875 
Q 5.515625 13.8125 5.515625 26.8125 
Q 5.515625 40.234375 12.765625 48.109375 
Q 20.015625 56 32.328125 56 
Q 43.359375 56 49.78125 48.890625 
Q 56.203125 41.796875 56.203125 29.59375 
z
M 47.21875 32.234375 
Q 47.125 39.59375 43.09375 43.984375 
Q 39.0625 48.390625 32.421875 48.390625 
Q 24.90625 48.390625 20.390625 44.140625 
Q 15.875 39.890625 15.1875 32.171875 
z
" id="DejaVuSans-101"/>
      <path d="M 48.78125 52.59375 
L 48.78125 44.1875 
Q 44.96875 46.296875 41.140625 47.34375 
Q 37.3125 48.390625 33.40625 48.390625 
Q 24.65625 48.390625 19.8125 42.84375 
Q 14.984375 37.3125 14.984375 27.296875 
Q 14.984375 17.28125 19.8125 11.734375 
Q 24.65625 6.203125 33.40625 6.203125 
Q 37.3125 6.203125 41.140625 7.25 
Q 44.96875 8.296875 48.78125 10.40625 
L 48.78125 2.09375 
Q 45.015625 0.34375 40.984375 -0.53125 
Q 36.96875 -1.421875 32.421875 -1.421875 
Q 20.0625 -1.421875 12.78125 6.34375 
Q 5.515625 14.109375 5.515625 27.296875 
Q 5.515625 40.671875 12.859375 48.328125 
Q 20.21875 56 33.015625 56 
Q 37.15625 56 41.109375 55.140625 
Q 45.0625 54.296875 48.78125 52.59375 
z
" id="DejaVuSans-99"/>
      <path d="M 45.40625 46.390625 
L 45.40625 75.984375 
L 54.390625 75.984375 
L 54.390625 0 
L 45.40625 0 
L 45.40625 8.203125 
Q 42.578125 3.328125 38.25 0.953125 
Q 33.9375 -1.421875 27.875 -1.421875 
Q 17.96875 -1.421875 11.734375 6.484375 
Q 5.515625 14.40625 5.515625 27.296875 
Q 5.515625 40.1875 11.734375 48.09375 
Q 17.96875 56 27.875 56 
Q 33.9375 56 38.25 53.625 
Q 42.578125 51.265625 45.40625 46.390625 
z
M 14.796875 27.296875 
Q 14.796875 17.390625 18.875 11.75 
Q 22.953125 6.109375 30.078125 6.109375 
Q 37.203125 6.109375 41.296875 11.75 
Q 45.40625 17.390625 45.40625 27.296875 
Q 45.40625 37.203125 41.296875 42.84375 
Q 37.203125 48.484375 30.078125 48.484375 
Q 22.953125 48.484375 18.875 42.84375 
Q 14.796875 37.203125 14.796875 27.296875 
z
" id="DejaVuSans-100"/>
      <path d="M 64.40625 67.28125 
L 64.40625 56.890625 
Q 59.421875 61.53125 53.78125 63.8125 
Q 48.140625 66.109375 41.796875 66.109375 
Q 29.296875 66.109375 22.65625 58.46875 
Q 16.015625 50.828125 16.015625 36.375 
Q 16.015625 21.96875 22.65625 14.328125 
Q 29.296875 6.6875 41.796875 6.6875 
Q 48.140625 6.6875 53.78125 8.984375 
Q 59.421875 11.28125 64.40625 15.921875 
L 64.40625 5.609375 
Q 59.234375 2.09375 53.4375 0.328125 
Q 47.65625 -1.421875 41.21875 -1.421875 
Q 24.65625 -1.421875 15.125 8.703125 
Q 5.609375 18.84375 5.609375 36.375 
Q 5.609375 53.953125 15.125 64.078125 
Q 24.65625 74.21875 41.21875 74.21875 
Q 47.75 74.21875 53.53125 72.484375 
Q 59.328125 70.75 64.40625 67.28125 
z
" id="DejaVuSans-67"/>
      <path d="M 44.28125 53.078125 
L 44.28125 44.578125 
Q 40.484375 46.53125 36.375 47.5 
Q 32.28125 48.484375 27.875 48.484375 
Q 21.1875 48.484375 17.84375 46.4375 
Q 14.5 44.390625 14.5 40.28125 
Q 14.5 37.15625 16.890625 35.375 
Q 19.28125 33.59375 26.515625 31.984375 
L 29.59375 31.296875 
Q 39.15625 29.25 43.1875 25.515625 
Q 47.21875 21.78125 47.21875 15.09375 
Q 47.21875 7.46875 41.1875 3.015625 
Q 35.15625 -1.421875 24.609375 -1.421875 
Q 20.21875 -1.421875 15.453125 -0.5625 
Q 10.6875 0.296875 5.421875 2 
L 5.421875 11.28125 
Q 10.40625 8.6875 15.234375 7.390625 
Q 20.0625 6.109375 24.8125 6.109375 
Q 31.15625 6.109375 34.5625 8.28125 
Q 37.984375 10.453125 37.984375 14.40625 
Q 37.984375 18.0625 35.515625 20.015625 
Q 33.0625 21.96875 24.703125 23.78125 
L 21.578125 24.515625 
Q 13.234375 26.265625 9.515625 29.90625 
Q 5.8125 33.546875 5.8125 39.890625 
Q 5.8125 47.609375 11.28125 51.796875 
Q 16.75 56 26.8125 56 
Q 31.78125 56 36.171875 55.265625 
Q 40.578125 54.546875 44.28125 53.078125 
z
" id="DejaVuSans-115"/>
     </defs>
     <g transform="translate(218 136.876875)scale(0.2 -0.2)">
      <use xlink:href="#DejaVuSans-84"/>
      <use x="44.083984" xlink:href="#DejaVuSans-111"/>
      <use x="105.265625" xlink:href="#DejaVuSans-116"/>
      <use x="144.474609" xlink:href="#DejaVuSans-97"/>
      <use x="205.753906" xlink:href="#DejaVuSans-108"/>
      <use x="233.537109" xlink:href="#DejaVuSans-32"/>
      <use x="265.324219" xlink:href="#DejaVuSans-68"/>
      <use x="342.326172" xlink:href="#DejaVuSans-101"/>
      <use x="403.849609" xlink:href="#DejaVuSans-116"/>
      <use x="443.058594" xlink:href="#DejaVuSans-101"/>
      <use x="504.582031" xlink:href="#DejaVuSans-99"/>
      <use x="559.5625" xlink:href="#DejaVuSans-116"/>
      <use x="598.771484" xlink:href="#DejaVuSans-101"/>
      <use x="660.294922" xlink:href="#DejaVuSans-100"/>
      <use x="723.771484" xlink:href="#DejaVuSans-32"/>
      <use x="755.558594" xlink:href="#DejaVuSans-67"/>
      <use x="825.382812" xlink:href="#DejaVuSans-97"/>
      <use x="886.662109" xlink:href="#DejaVuSans-115"/>
      <use x="938.761719" xlink:href="#DejaVuSans-101"/>
      <use x="1000.285156" xlink:href="#DejaVuSans-115"/>
     </g>
    </g>
    <g id="line2d_30">
     <path d="M 162 159.233125 
L 202 159.233125 
" style="fill:none;stroke:#008000;stroke-linecap:square;stroke-width:1.5;"/>
    </g>
    <g id="line2d_31"/>
    <g id="text_14">
     <!-- Ground Truth - Testing -->
     <defs>
      <path d="M 59.515625 10.40625 
L 59.515625 29.984375 
L 43.40625 29.984375 
L 43.40625 38.09375 
L 69.28125 38.09375 
L 69.28125 6.78125 
Q 63.578125 2.734375 56.6875 0.65625 
Q 49.8125 -1.421875 42 -1.421875 
Q 24.90625 -1.421875 15.25 8.5625 
Q 5.609375 18.5625 5.609375 36.375 
Q 5.609375 54.25 15.25 64.234375 
Q 24.90625 74.21875 42 74.21875 
Q 49.125 74.21875 55.546875 72.453125 
Q 61.96875 70.703125 67.390625 67.28125 
L 67.390625 56.78125 
Q 61.921875 61.421875 55.765625 63.765625 
Q 49.609375 66.109375 42.828125 66.109375 
Q 29.4375 66.109375 22.71875 58.640625 
Q 16.015625 51.171875 16.015625 36.375 
Q 16.015625 21.625 22.71875 14.15625 
Q 29.4375 6.6875 42.828125 6.6875 
Q 48.046875 6.6875 52.140625 7.59375 
Q 56.25 8.5 59.515625 10.40625 
z
" id="DejaVuSans-71"/>
      <path d="M 41.109375 46.296875 
Q 39.59375 47.171875 37.8125 47.578125 
Q 36.03125 48 33.890625 48 
Q 26.265625 48 22.1875 43.046875 
Q 18.109375 38.09375 18.109375 28.8125 
L 18.109375 0 
L 9.078125 0 
L 9.078125 54.6875 
L 18.109375 54.6875 
L 18.109375 46.1875 
Q 20.953125 51.171875 25.484375 53.578125 
Q 30.03125 56 36.53125 56 
Q 37.453125 56 38.578125 55.875 
Q 39.703125 55.765625 41.0625 55.515625 
z
" id="DejaVuSans-114"/>
      <path d="M 8.5 21.578125 
L 8.5 54.6875 
L 17.484375 54.6875 
L 17.484375 21.921875 
Q 17.484375 14.15625 20.5 10.265625 
Q 23.53125 6.390625 29.59375 6.390625 
Q 36.859375 6.390625 41.078125 11.03125 
Q 45.3125 15.671875 45.3125 23.6875 
L 45.3125 54.6875 
L 54.296875 54.6875 
L 54.296875 0 
L 45.3125 0 
L 45.3125 8.40625 
Q 42.046875 3.421875 37.71875 1 
Q 33.40625 -1.421875 27.6875 -1.421875 
Q 18.265625 -1.421875 13.375 4.4375 
Q 8.5 10.296875 8.5 21.578125 
z
M 31.109375 56 
z
" id="DejaVuSans-117"/>
      <path d="M 54.890625 33.015625 
L 54.890625 0 
L 45.90625 0 
L 45.90625 32.71875 
Q 45.90625 40.484375 42.875 44.328125 
Q 39.84375 48.1875 33.796875 48.1875 
Q 26.515625 48.1875 22.3125 43.546875 
Q 18.109375 38.921875 18.109375 30.90625 
L 18.109375 0 
L 9.078125 0 
L 9.078125 54.6875 
L 18.109375 54.6875 
L 18.109375 46.1875 
Q 21.34375 51.125 25.703125 53.5625 
Q 30.078125 56 35.796875 56 
Q 45.21875 56 50.046875 50.171875 
Q 54.890625 44.34375 54.890625 33.015625 
z
" id="DejaVuSans-110"/>
      <path d="M 54.890625 33.015625 
L 54.890625 0 
L 45.90625 0 
L 45.90625 32.71875 
Q 45.90625 40.484375 42.875 44.328125 
Q 39.84375 48.1875 33.796875 48.1875 
Q 26.515625 48.1875 22.3125 43.546875 
Q 18.109375 38.921875 18.109375 30.90625 
L 18.109375 0 
L 9.078125 0 
L 9.078125 75.984375 
L 18.109375 75.984375 
L 18.109375 46.1875 
Q 21.34375 51.125 25.703125 53.5625 
Q 30.078125 56 35.796875 56 
Q 45.21875 56 50.046875 50.171875 
Q 54.890625 44.34375 54.890625 33.015625 
z
" id="DejaVuSans-104"/>
      <path d="M 9.421875 54.6875 
L 18.40625 54.6875 
L 18.40625 0 
L 9.421875 0 
z
M 9.421875 75.984375 
L 18.40625 75.984375 
L 18.40625 64.59375 
L 9.421875 64.59375 
z
" id="DejaVuSans-105"/>
      <path d="M 45.40625 27.984375 
Q 45.40625 37.75 41.375 43.109375 
Q 37.359375 48.484375 30.078125 48.484375 
Q 22.859375 48.484375 18.828125 43.109375 
Q 14.796875 37.75 14.796875 27.984375 
Q 14.796875 18.265625 18.828125 12.890625 
Q 22.859375 7.515625 30.078125 7.515625 
Q 37.359375 7.515625 41.375 12.890625 
Q 45.40625 18.265625 45.40625 27.984375 
z
M 54.390625 6.78125 
Q 54.390625 -7.171875 48.1875 -13.984375 
Q 42 -20.796875 29.203125 -20.796875 
Q 24.46875 -20.796875 20.265625 -20.09375 
Q 16.0625 -19.390625 12.109375 -17.921875 
L 12.109375 -9.1875 
Q 16.0625 -11.328125 19.921875 -12.34375 
Q 23.78125 -13.375 27.78125 -13.375 
Q 36.625 -13.375 41.015625 -8.765625 
Q 45.40625 -4.15625 45.40625 5.171875 
L 45.40625 9.625 
Q 42.625 4.78125 38.28125 2.390625 
Q 33.9375 0 27.875 0 
Q 17.828125 0 11.671875 7.65625 
Q 5.515625 15.328125 5.515625 27.984375 
Q 5.515625 40.671875 11.671875 48.328125 
Q 17.828125 56 27.875 56 
Q 33.9375 56 38.28125 53.609375 
Q 42.625 51.21875 45.40625 46.390625 
L 45.40625 54.6875 
L 54.390625 54.6875 
z
" id="DejaVuSans-103"/>
     </defs>
     <g transform="translate(218 166.233125)scale(0.2 -0.2)">
      <use xlink:href="#DejaVuSans-71"/>
      <use x="77.490234" xlink:href="#DejaVuSans-114"/>
      <use x="116.353516" xlink:href="#DejaVuSans-111"/>
      <use x="177.535156" xlink:href="#DejaVuSans-117"/>
      <use x="240.914062" xlink:href="#DejaVuSans-110"/>
      <use x="304.292969" xlink:href="#DejaVuSans-100"/>
      <use x="367.769531" xlink:href="#DejaVuSans-32"/>
      <use x="399.556641" xlink:href="#DejaVuSans-84"/>
      <use x="445.890625" xlink:href="#DejaVuSans-114"/>
      <use x="487.003906" xlink:href="#DejaVuSans-117"/>
      <use x="550.382812" xlink:href="#DejaVuSans-116"/>
      <use x="589.591797" xlink:href="#DejaVuSans-104"/>
      <use x="652.970703" xlink:href="#DejaVuSans-32"/>
      <use x="684.757812" xlink:href="#DejaVuSans-45"/>
      <use x="720.841797" xlink:href="#DejaVuSans-32"/>
      <use x="752.628906" xlink:href="#DejaVuSans-84"/>
      <use x="796.712891" xlink:href="#DejaVuSans-101"/>
      <use x="858.236328" xlink:href="#DejaVuSans-115"/>
      <use x="910.335938" xlink:href="#DejaVuSans-116"/>
      <use x="949.544922" xlink:href="#DejaVuSans-105"/>
      <use x="977.328125" xlink:href="#DejaVuSans-110"/>
      <use x="1040.707031" xlink:href="#DejaVuSans-103"/>
     </g>
    </g>
    <g id="line2d_32">
     <path d="M 162 188.589375 
L 202 188.589375 
" style="fill:none;stroke:#ff0000;stroke-linecap:square;stroke-width:1.5;"/>
    </g>
    <g id="line2d_33"/>
    <g id="text_15">
     <!-- Ground Truth - Training -->
     <g transform="translate(218 195.589375)scale(0.2 -0.2)">
      <use xlink:href="#DejaVuSans-71"/>
      <use x="77.490234" xlink:href="#DejaVuSans-114"/>
      <use x="116.353516" xlink:href="#DejaVuSans-111"/>
      <use x="177.535156" xlink:href="#DejaVuSans-117"/>
      <use x="240.914062" xlink:href="#DejaVuSans-110"/>
      <use x="304.292969" xlink:href="#DejaVuSans-100"/>
      <use x="367.769531" xlink:href="#DejaVuSans-32"/>
      <use x="399.556641" xlink:href="#DejaVuSans-84"/>
      <use x="445.890625" xlink:href="#DejaVuSans-114"/>
      <use x="487.003906" xlink:href="#DejaVuSans-117"/>
      <use x="550.382812" xlink:href="#DejaVuSans-116"/>
      <use x="589.591797" xlink:href="#DejaVuSans-104"/>
      <use x="652.970703" xlink:href="#DejaVuSans-32"/>
      <use x="684.757812" xlink:href="#DejaVuSans-45"/>
      <use x="720.841797" xlink:href="#DejaVuSans-32"/>
      <use x="752.628906" xlink:href="#DejaVuSans-84"/>
      <use x="798.962891" xlink:href="#DejaVuSans-114"/>
      <use x="840.076172" xlink:href="#DejaVuSans-97"/>
      <use x="901.355469" xlink:href="#DejaVuSans-105"/>
      <use x="929.138672" xlink:href="#DejaVuSans-110"/>
      <use x="992.517578" xlink:href="#DejaVuSans-105"/>
      <use x="1020.300781" xlink:href="#DejaVuSans-110"/>
      <use x="1083.679688" xlink:href="#DejaVuSans-103"/>
     </g>
    </g>
    <g id="patch_8">
     <path d="M 162 224.945625 
L 202 224.945625 
L 202 210.945625 
L 162 210.945625 
z
" style="fill:#0000ff;opacity:0.1;stroke:#0000ff;stroke-linejoin:miter;"/>
    </g>
    <g id="text_16">
     <!-- IQR -->
     <defs>
      <path d="M 9.8125 72.90625 
L 19.671875 72.90625 
L 19.671875 0 
L 9.8125 0 
z
" id="DejaVuSans-73"/>
      <path d="M 39.40625 66.21875 
Q 28.65625 66.21875 22.328125 58.203125 
Q 16.015625 50.203125 16.015625 36.375 
Q 16.015625 22.609375 22.328125 14.59375 
Q 28.65625 6.59375 39.40625 6.59375 
Q 50.140625 6.59375 56.421875 14.59375 
Q 62.703125 22.609375 62.703125 36.375 
Q 62.703125 50.203125 56.421875 58.203125 
Q 50.140625 66.21875 39.40625 66.21875 
z
M 53.21875 1.3125 
L 66.21875 -12.890625 
L 54.296875 -12.890625 
L 43.5 -1.21875 
Q 41.890625 -1.3125 41.03125 -1.359375 
Q 40.1875 -1.421875 39.40625 -1.421875 
Q 24.03125 -1.421875 14.8125 8.859375 
Q 5.609375 19.140625 5.609375 36.375 
Q 5.609375 53.65625 14.8125 63.9375 
Q 24.03125 74.21875 39.40625 74.21875 
Q 54.734375 74.21875 63.90625 63.9375 
Q 73.09375 53.65625 73.09375 36.375 
Q 73.09375 23.6875 67.984375 14.640625 
Q 62.890625 5.609375 53.21875 1.3125 
z
" id="DejaVuSans-81"/>
      <path d="M 44.390625 34.1875 
Q 47.5625 33.109375 50.5625 29.59375 
Q 53.5625 26.078125 56.59375 19.921875 
L 66.609375 0 
L 56 0 
L 46.6875 18.703125 
Q 43.0625 26.03125 39.671875 28.421875 
Q 36.28125 30.8125 30.421875 30.8125 
L 19.671875 30.8125 
L 19.671875 0 
L 9.8125 0 
L 9.8125 72.90625 
L 32.078125 72.90625 
Q 44.578125 72.90625 50.734375 67.671875 
Q 56.890625 62.453125 56.890625 51.90625 
Q 56.890625 45.015625 53.6875 40.46875 
Q 50.484375 35.9375 44.390625 34.1875 
z
M 19.671875 64.796875 
L 19.671875 38.921875 
L 32.078125 38.921875 
Q 39.203125 38.921875 42.84375 42.21875 
Q 46.484375 45.515625 46.484375 51.90625 
Q 46.484375 58.296875 42.84375 61.546875 
Q 39.203125 64.796875 32.078125 64.796875 
z
" id="DejaVuSans-82"/>
     </defs>
     <g transform="translate(218 224.945625)scale(0.2 -0.2)">
      <use xlink:href="#DejaVuSans-73"/>
      <use x="29.492188" xlink:href="#DejaVuSans-81"/>
      <use x="108.203125" xlink:href="#DejaVuSans-82"/>
     </g>
    </g>
    <g id="patch_9">
     <path d="M 162 254.301875 
L 202 254.301875 
L 202 240.301875 
L 162 240.301875 
z
" style="fill:#0000ff;opacity:0.05;stroke:#0000ff;stroke-linejoin:miter;"/>
    </g>
    <g id="text_17">
     <!-- 95% CI -->
     <defs>
      <path d="M 72.703125 32.078125 
Q 68.453125 32.078125 66.03125 28.46875 
Q 63.625 24.859375 63.625 18.40625 
Q 63.625 12.0625 66.03125 8.421875 
Q 68.453125 4.78125 72.703125 4.78125 
Q 76.859375 4.78125 79.265625 8.421875 
Q 81.6875 12.0625 81.6875 18.40625 
Q 81.6875 24.8125 79.265625 28.4375 
Q 76.859375 32.078125 72.703125 32.078125 
z
M 72.703125 38.28125 
Q 80.421875 38.28125 84.953125 32.90625 
Q 89.5 27.546875 89.5 18.40625 
Q 89.5 9.28125 84.9375 3.921875 
Q 80.375 -1.421875 72.703125 -1.421875 
Q 64.890625 -1.421875 60.34375 3.921875 
Q 55.8125 9.28125 55.8125 18.40625 
Q 55.8125 27.59375 60.375 32.9375 
Q 64.9375 38.28125 72.703125 38.28125 
z
M 22.3125 68.015625 
Q 18.109375 68.015625 15.6875 64.375 
Q 13.28125 60.75 13.28125 54.390625 
Q 13.28125 47.953125 15.671875 44.328125 
Q 18.0625 40.71875 22.3125 40.71875 
Q 26.5625 40.71875 28.96875 44.328125 
Q 31.390625 47.953125 31.390625 54.390625 
Q 31.390625 60.6875 28.953125 64.34375 
Q 26.515625 68.015625 22.3125 68.015625 
z
M 66.40625 74.21875 
L 74.21875 74.21875 
L 28.609375 -1.421875 
L 20.796875 -1.421875 
z
M 22.3125 74.21875 
Q 30.03125 74.21875 34.609375 68.875 
Q 39.203125 63.53125 39.203125 54.390625 
Q 39.203125 45.171875 34.640625 39.84375 
Q 30.078125 34.515625 22.3125 34.515625 
Q 14.546875 34.515625 10.03125 39.859375 
Q 5.515625 45.21875 5.515625 54.390625 
Q 5.515625 63.484375 10.046875 68.84375 
Q 14.59375 74.21875 22.3125 74.21875 
z
" id="DejaVuSans-37"/>
     </defs>
     <g transform="translate(218 254.301875)scale(0.2 -0.2)">
      <use xlink:href="#DejaVuSans-57"/>
      <use x="63.623047" xlink:href="#DejaVuSans-53"/>
      <use x="127.246094" xlink:href="#DejaVuSans-37"/>
      <use x="222.265625" xlink:href="#DejaVuSans-32"/>
      <use x="254.052734" xlink:href="#DejaVuSans-67"/>
      <use x="323.876953" xlink:href="#DejaVuSans-73"/>
     </g>
    </g>
   </g>
  </g>
 </g>
 <defs>
  <clipPath id="p81874f9f0c">
   <rect height="652.32" width="892.8" x="144" y="103.68"/>
  </clipPath>
 </defs>
</svg>
