<?xml version="1.0" encoding="utf-8" standalone="no"?>
<!DOCTYPE svg PUBLIC "-//W3C//DTD SVG 1.1//EN"
  "http://www.w3.org/Graphics/SVG/1.1/DTD/svg11.dtd">
<!-- Created with matplotlib (https://matplotlib.org/) -->
<svg height="864pt" version="1.1" viewBox="0 0 1152 864" width="1152pt" xmlns="http://www.w3.org/2000/svg" xmlns:xlink="http://www.w3.org/1999/xlink">
 <defs>
  <style type="text/css">
*{stroke-linecap:butt;stroke-linejoin:round;}
  </style>
 </defs>
 <g id="figure_1">
  <g id="patch_1">
   <path d="M 0 864 
L 1152 864 
L 1152 0 
L 0 0 
z
" style="fill:#ffffff;"/>
  </g>
  <g id="axes_1">
   <g id="patch_2">
    <path d="M 144 756 
L 1036.8 756 
L 1036.8 103.68 
L 144 103.68 
z
" style="fill:#ffffff;"/>
   </g>
   <g id="PolyCollection_1">
    <defs>
     <path d="M 184.581818 -137.650909 
L 184.581818 -137.650909 
L 189.32823 -137.650909 
L 194.074641 -137.650909 
L 198.821053 -137.650909 
L 203.567464 -137.650909 
L 208.313876 -137.650909 
L 213.060287 -137.650909 
L 217.806699 -137.650909 
L 222.55311 -137.650909 
L 227.299522 -137.650909 
L 232.045933 -137.650909 
L 236.792344 -137.650909 
L 241.538756 -137.650909 
L 246.285167 -137.650909 
L 251.031579 -137.650909 
L 255.77799 -137.650909 
L 260.524402 -137.650909 
L 265.270813 -137.650909 
L 270.017225 -137.650909 
L 274.763636 -137.650909 
L 279.510048 -137.650909 
L 284.256459 -138.497528 
L 289.002871 -139.842158 
L 293.749282 -140.992201 
L 298.495694 -140.992201 
L 303.242105 -141.250788 
L 307.988517 -142.366712 
L 312.734928 -143.711342 
L 317.48134 -146.090303 
L 322.227751 -148.779563 
L 326.974163 -151.468824 
L 331.720574 -155.363536 
L 336.466986 -157.716638 
L 341.213397 -159.536605 
L 345.959809 -161.995357 
L 350.70622 -163.404615 
L 355.452632 -165.386175 
L 360.199043 -168.500551 
L 364.945455 -172.534442 
L 369.691866 -176.568332 
L 374.438278 -181.229717 
L 379.184689 -185.189183 
L 383.9311 -186.533813 
L 388.677512 -188.798454 
L 393.423923 -191.935924 
L 398.170335 -194.923991 
L 402.916746 -197.613251 
L 407.663158 -199.726242 
L 412.409569 -201.070872 
L 417.155981 -202.415502 
L 421.902392 -203.93224 
L 426.648804 -205.551757 
L 431.395215 -206.896387 
L 436.141627 -208.241017 
L 440.888038 -211.000448 
L 445.63445 -216.96804 
L 450.380861 -222.346561 
L 455.127273 -227.388924 
L 459.873684 -232.767444 
L 464.620096 -238.145965 
L 469.366507 -241.974495 
L 474.112919 -243.319125 
L 478.85933 -244.663755 
L 483.605742 -246.008385 
L 488.352153 -248.473541 
L 493.098565 -250.938696 
L 497.844976 -254.985835 
L 502.591388 -258.935686 
L 507.337799 -262.633419 
L 512.084211 -266.331152 
L 516.830622 -270.029244 
L 521.577033 -275.071607 
L 526.323445 -280.618207 
L 531.069856 -286.669042 
L 535.816268 -289.011646 
L 540.562679 -291.028591 
L 545.309091 -293.045537 
L 550.055502 -295.062482 
L 554.801914 -297.079427 
L 559.548325 -300.159757 
L 564.294737 -302.849017 
L 569.041148 -305.293279 
L 573.78756 -308.082745 
L 578.533971 -309.908326 
L 583.280383 -312.261428 
L 588.026794 -314.614531 
L 592.773206 -316.967634 
L 597.519617 -318.963482 
L 602.266029 -319.29964 
L 607.01244 -319.635797 
L 611.758852 -319.971955 
L 616.505263 -320.308112 
L 621.251675 -320.308112 
L 625.998086 -320.308112 
L 630.744498 -320.308112 
L 635.490909 -320.308112 
L 640.237321 -320.308112 
L 644.983732 -320.308112 
L 649.730144 -320.308112 
L 654.476555 -320.740739 
L 659.222967 -321.749211 
L 663.969378 -323.08217 
L 668.715789 -324.4268 
L 673.462201 -324.762958 
L 678.208612 -325.510637 
L 682.955024 -326.519109 
L 687.701435 -327.527582 
L 692.447847 -328.758742 
L 697.194258 -330.103372 
L 701.94067 -331.448002 
L 706.687081 -332.456475 
L 711.433493 -333.066864 
L 716.179904 -333.066864 
L 720.926316 -333.066864 
L 725.672727 -333.066864 
L 735.16555 -333.066864 
L 739.911962 -333.066864 
L 744.658373 -333.066864 
L 758.897608 -333.066864 
L 763.644019 -333.066864 
L 768.390431 -333.066864 
L 773.136842 -333.066864 
L 782.629665 -333.066864 
L 792.122488 -333.066864 
L 796.8689 -333.066864 
L 801.615311 -333.066864 
L 815.854545 -333.066864 
L 825.347368 -333.066864 
L 853.825837 -333.066864 
L 872.811483 -333.066864 
L 996.218182 -333.066864 
L 996.218182 -516.684554 
L 996.218182 -516.684554 
L 872.811483 -516.684554 
L 853.825837 -516.684554 
L 825.347368 -516.684554 
L 815.854545 -516.684554 
L 801.615311 -516.684554 
L 796.8689 -516.684554 
L 792.122488 -516.684554 
L 782.629665 -516.684554 
L 773.136842 -516.684554 
L 768.390431 -516.684554 
L 763.644019 -516.684554 
L 758.897608 -516.684554 
L 744.658373 -516.07378 
L 739.911962 -514.729149 
L 735.16555 -513.384519 
L 725.672727 -512.039889 
L 720.926316 -510.695259 
L 716.179904 -509.350629 
L 711.433493 -508.005999 
L 706.687081 -506.661368 
L 701.94067 -505.316738 
L 697.194258 -503.972108 
L 692.447847 -501.282848 
L 687.701435 -498.593588 
L 682.955024 -495.904327 
L 678.208612 -493.215067 
L 673.462201 -490.525807 
L 668.715789 -487.836546 
L 663.969378 -485.147286 
L 659.222967 -482.458026 
L 654.476555 -479.768765 
L 649.730144 -477.079505 
L 644.983732 -475.428347 
L 640.237321 -474.083717 
L 635.490909 -471.394457 
L 630.744498 -468.705196 
L 625.998086 -466.015936 
L 621.251675 -463.326676 
L 616.505263 -460.637416 
L 611.758852 -457.948155 
L 607.01244 -455.258895 
L 602.266029 -452.569635 
L 597.519617 -449.880374 
L 592.773206 -447.191114 
L 588.026794 -443.157223 
L 583.280383 -439.500263 
L 578.533971 -438.155633 
L 573.78756 -436.811002 
L 569.041148 -434.121742 
L 564.294737 -431.432482 
L 559.548325 -428.743221 
L 554.801914 -426.053961 
L 550.055502 -422.020071 
L 545.309091 -416.64155 
L 540.562679 -411.263029 
L 535.816268 -405.884509 
L 531.069856 -400.505988 
L 526.323445 -397.746325 
L 521.577033 -395.057065 
L 516.830622 -392.367805 
L 512.084211 -385.134903 
L 507.337799 -378.742692 
L 502.591388 -377.398062 
L 497.844976 -376.053432 
L 493.098565 -374.484697 
L 488.352153 -371.795436 
L 483.605742 -369.106176 
L 478.85933 -366.416916 
L 474.112919 -363.727655 
L 469.366507 -361.038395 
L 464.620096 -358.349135 
L 459.873684 -350.227641 
L 455.127273 -347.919493 
L 450.380861 -347.381641 
L 445.63445 -343.821886 
L 440.888038 -338.443365 
L 436.141627 -333.064845 
L 431.395215 -329.628568 
L 426.648804 -325.594677 
L 421.902392 -321.560787 
L 417.155981 -319.71192 
L 412.409569 -316.275643 
L 407.663158 -312.241753 
L 402.916746 -307.582523 
L 398.170335 -299.514742 
L 393.423923 -291.446961 
L 388.677512 -282.401268 
L 383.9311 -273.616351 
L 379.184689 -268.926715 
L 374.438278 -264.071106 
L 369.691866 -258.841988 
L 364.945455 -254.808098 
L 360.199043 -250.101892 
L 355.452632 -245.346743 
L 350.70622 -240.154903 
L 345.959809 -233.431753 
L 341.213397 -226.586363 
L 336.466986 -219.863212 
L 331.720574 -211.036189 
L 326.974163 -202.968408 
L 322.227751 -194.900627 
L 317.48134 -187.841319 
L 312.734928 -183.78993 
L 307.988517 -179.756039 
L 303.242105 -175.850209 
L 298.495694 -167.784246 
L 293.749282 -159.414414 
L 289.002871 -153.448801 
L 284.256459 -148.070281 
L 279.510048 -144.574239 
L 274.763636 -142.762905 
L 270.017225 -140.950425 
L 265.270813 -139.522489 
L 260.524402 -138.177859 
L 255.77799 -137.650909 
L 251.031579 -137.650909 
L 246.285167 -137.650909 
L 241.538756 -137.650909 
L 236.792344 -137.650909 
L 232.045933 -137.650909 
L 227.299522 -137.650909 
L 222.55311 -137.650909 
L 217.806699 -137.650909 
L 213.060287 -137.650909 
L 208.313876 -137.650909 
L 203.567464 -137.650909 
L 198.821053 -137.650909 
L 194.074641 -137.650909 
L 189.32823 -137.650909 
L 184.581818 -137.650909 
z
" id="mf2b4eccbec" style="stroke:#0000ff;stroke-opacity:0.1;"/>
    </defs>
    <g clip-path="url(#pefdbb78800)">
     <use style="fill:#0000ff;fill-opacity:0.1;stroke:#0000ff;stroke-opacity:0.1;" x="0" xlink:href="#mf2b4eccbec" y="864"/>
    </g>
   </g>
   <g id="PolyCollection_2">
    <defs>
     <path d="M 184.581818 -137.650909 
L 184.581818 -137.650909 
L 189.32823 -137.650909 
L 194.074641 -137.650909 
L 198.821053 -137.650909 
L 203.567464 -137.650909 
L 208.313876 -137.650909 
L 213.060287 -137.650909 
L 217.806699 -137.650909 
L 222.55311 -137.650909 
L 227.299522 -137.650909 
L 232.045933 -137.650909 
L 236.792344 -137.650909 
L 241.538756 -137.650909 
L 246.285167 -137.650909 
L 251.031579 -137.650909 
L 255.77799 -137.650909 
L 260.524402 -137.650909 
L 265.270813 -137.650909 
L 270.017225 -137.650909 
L 274.763636 -137.650909 
L 279.510048 -137.650909 
L 284.256459 -137.650909 
L 289.002871 -137.650909 
L 293.749282 -137.650909 
L 298.495694 -137.650909 
L 303.242105 -137.650909 
L 307.988517 -137.650909 
L 312.734928 -137.650909 
L 317.48134 -137.650909 
L 322.227751 -137.650909 
L 326.974163 -137.650909 
L 331.720574 -137.650909 
L 336.466986 -137.650909 
L 341.213397 -137.650909 
L 345.959809 -137.650909 
L 350.70622 -138.39172 
L 355.452632 -138.39172 
L 360.199043 -138.39172 
L 364.945455 -138.39172 
L 369.691866 -138.39172 
L 374.438278 -138.39172 
L 379.184689 -139.064035 
L 383.9311 -140.408665 
L 388.677512 -141.753296 
L 393.423923 -143.097926 
L 398.170335 -144.845945 
L 402.916746 -147.535205 
L 407.663158 -150.224466 
L 412.409569 -152.913726 
L 417.155981 -155.602986 
L 421.902392 -159.514638 
L 426.648804 -163.932708 
L 431.395215 -169.081639 
L 436.141627 -169.081639 
L 440.888038 -169.081639 
L 445.63445 -169.081639 
L 450.380861 -169.081639 
L 455.127273 -169.081639 
L 459.873684 -169.081639 
L 464.620096 -170.426269 
L 469.366507 -171.770899 
L 474.112919 -173.11553 
L 478.85933 -174.46016 
L 483.605742 -175.80479 
L 488.352153 -177.14942 
L 493.098565 -178.49405 
L 497.844976 -179.83868 
L 502.591388 -181.183311 
L 507.337799 -182.527941 
L 512.084211 -183.872571 
L 516.830622 -185.217201 
L 521.577033 -185.889516 
L 526.323445 -185.889516 
L 531.069856 -185.889516 
L 535.816268 -185.889516 
L 540.562679 -186.561831 
L 545.309091 -187.234146 
L 550.055502 -188.578776 
L 554.801914 -189.923407 
L 559.548325 -191.268037 
L 564.294737 -192.612667 
L 569.041148 -193.957297 
L 573.78756 -195.301927 
L 578.533971 -196.646557 
L 583.280383 -197.991188 
L 588.026794 -199.2433 
L 592.773206 -199.2433 
L 597.519617 -199.2433 
L 602.266029 -199.2433 
L 607.01244 -199.2433 
L 611.758852 -199.2433 
L 616.505263 -199.2433 
L 621.251675 -199.2433 
L 625.998086 -199.2433 
L 630.744498 -199.2433 
L 635.490909 -199.2433 
L 640.237321 -199.2433 
L 644.983732 -199.2433 
L 649.730144 -199.2433 
L 654.476555 -199.2433 
L 659.222967 -199.2433 
L 663.969378 -199.2433 
L 668.715789 -199.2433 
L 673.462201 -199.2433 
L 678.208612 -199.2433 
L 682.955024 -199.2433 
L 687.701435 -199.2433 
L 692.447847 -199.2433 
L 697.194258 -199.2433 
L 701.94067 -199.2433 
L 706.687081 -199.2433 
L 711.433493 -199.2433 
L 716.179904 -199.2433 
L 720.926316 -199.2433 
L 725.672727 -199.2433 
L 735.16555 -199.2433 
L 739.911962 -199.2433 
L 744.658373 -199.2433 
L 758.897608 -199.2433 
L 763.644019 -199.2433 
L 768.390431 -199.2433 
L 773.136842 -199.2433 
L 782.629665 -199.2433 
L 792.122488 -199.2433 
L 796.8689 -199.2433 
L 801.615311 -199.2433 
L 815.854545 -199.2433 
L 825.347368 -199.2433 
L 853.825837 -199.2433 
L 872.811483 -199.2433 
L 996.218182 -199.2433 
L 996.218182 -730.669091 
L 996.218182 -730.669091 
L 872.811483 -730.669091 
L 853.825837 -730.669091 
L 825.347368 -730.669091 
L 815.854545 -730.669091 
L 801.615311 -730.669091 
L 796.8689 -730.669091 
L 792.122488 -730.669091 
L 782.629665 -729.324461 
L 773.136842 -727.979831 
L 768.390431 -726.6352 
L 763.644019 -725.29057 
L 758.897608 -723.94594 
L 744.658373 -722.60131 
L 739.911962 -721.25668 
L 735.16555 -719.91205 
L 725.672727 -718.567419 
L 720.926316 -717.222789 
L 716.179904 -715.878159 
L 711.433493 -714.533529 
L 706.687081 -713.188899 
L 701.94067 -711.844269 
L 697.194258 -710.499638 
L 692.447847 -709.155008 
L 687.701435 -707.810378 
L 682.955024 -706.465748 
L 678.208612 -705.121118 
L 673.462201 -703.776488 
L 668.715789 -702.431858 
L 663.969378 -701.087227 
L 659.222967 -699.742597 
L 654.476555 -698.397967 
L 649.730144 -695.708707 
L 644.983732 -693.019446 
L 640.237321 -690.330186 
L 635.490909 -686.296296 
L 630.744498 -680.917775 
L 625.998086 -675.539254 
L 621.251675 -668.816103 
L 616.505263 -662.092953 
L 611.758852 -655.369802 
L 607.01244 -648.646651 
L 602.266029 -643.26813 
L 597.519617 -637.88961 
L 592.773206 -632.511089 
L 588.026794 -627.132568 
L 583.280383 -621.754048 
L 578.533971 -616.375527 
L 573.78756 -610.997007 
L 569.041148 -605.618486 
L 564.294737 -600.239965 
L 559.548325 -594.861445 
L 554.801914 -589.482924 
L 550.055502 -585.449033 
L 545.309091 -581.415143 
L 540.562679 -578.725883 
L 535.816268 -574.691992 
L 531.069856 -569.313471 
L 526.323445 -563.934951 
L 521.577033 -557.884115 
L 516.830622 -551.160964 
L 512.084211 -544.437813 
L 507.337799 -536.907885 
L 502.591388 -528.840104 
L 497.844976 -520.100008 
L 493.098565 -510.687596 
L 488.352153 -499.392703 
L 483.605742 -490.962111 
L 478.85933 -481.99791 
L 474.112919 -472.921656 
L 469.366507 -465.862348 
L 464.620096 -459.139197 
L 459.873684 -453.568587 
L 455.127273 -448.190066 
L 450.380861 -442.811545 
L 445.63445 -437.433025 
L 440.888038 -431.651115 
L 436.141627 -425.600279 
L 431.395215 -419.41498 
L 426.648804 -412.422904 
L 421.902392 -406.297366 
L 417.155981 -402.263476 
L 412.409569 -398.229585 
L 407.663158 -394.195695 
L 402.916746 -390.161804 
L 398.170335 -384.783284 
L 393.423923 -379.404763 
L 388.677512 -374.026242 
L 383.9311 -368.647722 
L 379.184689 -363.269201 
L 374.438278 -357.410455 
L 369.691866 -350.687304 
L 364.945455 -343.964154 
L 360.199043 -337.241003 
L 355.452632 -330.517852 
L 350.70622 -323.794701 
L 345.959809 -315.912387 
L 341.213397 -308.236789 
L 336.466986 -301.513639 
L 331.720574 -293.304318 
L 326.974163 -282.586824 
L 322.227751 -269.140523 
L 317.48134 -255.694221 
L 312.734928 -240.327019 
L 307.988517 -224.191457 
L 303.242105 -207.215501 
L 298.495694 -189.351129 
L 293.749282 -182.153465 
L 289.002871 -176.920748 
L 284.256459 -173.978151 
L 279.510048 -171.569638 
L 274.763636 -170.225008 
L 270.017225 -168.230473 
L 265.270813 -165.541213 
L 260.524402 -160.522523 
L 255.77799 -155.144002 
L 251.031579 -149.765481 
L 246.285167 -144.386961 
L 241.538756 -139.449647 
L 236.792344 -137.987067 
L 232.045933 -137.650909 
L 227.299522 -137.650909 
L 222.55311 -137.650909 
L 217.806699 -137.650909 
L 213.060287 -137.650909 
L 208.313876 -137.650909 
L 203.567464 -137.650909 
L 198.821053 -137.650909 
L 194.074641 -137.650909 
L 189.32823 -137.650909 
L 184.581818 -137.650909 
z
" id="m40417e0691" style="stroke:#0000ff;stroke-opacity:0.05;"/>
    </defs>
    <g clip-path="url(#pefdbb78800)">
     <use style="fill:#0000ff;fill-opacity:0.05;stroke:#0000ff;stroke-opacity:0.05;" x="0" xlink:href="#m40417e0691" y="864"/>
    </g>
   </g>
   <g id="matplotlib.axis_1">
    <g id="xtick_1">
     <g id="line2d_1">
      <path clip-path="url(#pefdbb78800)" d="M 184.581818 756 
L 184.581818 103.68 
" style="fill:none;stroke:#b0b0b0;stroke-linecap:square;stroke-width:0.8;"/>
     </g>
     <g id="line2d_2">
      <defs>
       <path d="M 0 0 
L 0 3.5 
" id="m11658c7bb2" style="stroke:#000000;stroke-width:0.8;"/>
      </defs>
      <g>
       <use style="stroke:#000000;stroke-width:0.8;" x="184.581818" xlink:href="#m11658c7bb2" y="756"/>
      </g>
     </g>
     <g id="text_1">
      <!-- 2020-04 -->
      <defs>
       <path d="M 19.1875 8.296875 
L 53.609375 8.296875 
L 53.609375 0 
L 7.328125 0 
L 7.328125 8.296875 
Q 12.9375 14.109375 22.625 23.890625 
Q 32.328125 33.6875 34.8125 36.53125 
Q 39.546875 41.84375 41.421875 45.53125 
Q 43.3125 49.21875 43.3125 52.78125 
Q 43.3125 58.59375 39.234375 62.25 
Q 35.15625 65.921875 28.609375 65.921875 
Q 23.96875 65.921875 18.8125 64.3125 
Q 13.671875 62.703125 7.8125 59.421875 
L 7.8125 69.390625 
Q 13.765625 71.78125 18.9375 73 
Q 24.125 74.21875 28.421875 74.21875 
Q 39.75 74.21875 46.484375 68.546875 
Q 53.21875 62.890625 53.21875 53.421875 
Q 53.21875 48.921875 51.53125 44.890625 
Q 49.859375 40.875 45.40625 35.40625 
Q 44.1875 33.984375 37.640625 27.21875 
Q 31.109375 20.453125 19.1875 8.296875 
z
" id="DejaVuSans-50"/>
       <path d="M 31.78125 66.40625 
Q 24.171875 66.40625 20.328125 58.90625 
Q 16.5 51.421875 16.5 36.375 
Q 16.5 21.390625 20.328125 13.890625 
Q 24.171875 6.390625 31.78125 6.390625 
Q 39.453125 6.390625 43.28125 13.890625 
Q 47.125 21.390625 47.125 36.375 
Q 47.125 51.421875 43.28125 58.90625 
Q 39.453125 66.40625 31.78125 66.40625 
z
M 31.78125 74.21875 
Q 44.046875 74.21875 50.515625 64.515625 
Q 56.984375 54.828125 56.984375 36.375 
Q 56.984375 17.96875 50.515625 8.265625 
Q 44.046875 -1.421875 31.78125 -1.421875 
Q 19.53125 -1.421875 13.0625 8.265625 
Q 6.59375 17.96875 6.59375 36.375 
Q 6.59375 54.828125 13.0625 64.515625 
Q 19.53125 74.21875 31.78125 74.21875 
z
" id="DejaVuSans-48"/>
       <path d="M 4.890625 31.390625 
L 31.203125 31.390625 
L 31.203125 23.390625 
L 4.890625 23.390625 
z
" id="DejaVuSans-45"/>
       <path d="M 37.796875 64.3125 
L 12.890625 25.390625 
L 37.796875 25.390625 
z
M 35.203125 72.90625 
L 47.609375 72.90625 
L 47.609375 25.390625 
L 58.015625 25.390625 
L 58.015625 17.1875 
L 47.609375 17.1875 
L 47.609375 0 
L 37.796875 0 
L 37.796875 17.1875 
L 4.890625 17.1875 
L 4.890625 26.703125 
z
" id="DejaVuSans-52"/>
      </defs>
      <g transform="translate(142.799006 778.196875)scale(0.2 -0.2)">
       <use xlink:href="#DejaVuSans-50"/>
       <use x="63.623047" xlink:href="#DejaVuSans-48"/>
       <use x="127.246094" xlink:href="#DejaVuSans-50"/>
       <use x="190.869141" xlink:href="#DejaVuSans-48"/>
       <use x="254.492188" xlink:href="#DejaVuSans-45"/>
       <use x="290.576172" xlink:href="#DejaVuSans-48"/>
       <use x="354.199219" xlink:href="#DejaVuSans-52"/>
      </g>
     </g>
    </g>
    <g id="xtick_2">
     <g id="line2d_3">
      <path clip-path="url(#pefdbb78800)" d="M 326.974163 756 
L 326.974163 103.68 
" style="fill:none;stroke:#b0b0b0;stroke-linecap:square;stroke-width:0.8;"/>
     </g>
     <g id="line2d_4">
      <g>
       <use style="stroke:#000000;stroke-width:0.8;" x="326.974163" xlink:href="#m11658c7bb2" y="756"/>
      </g>
     </g>
     <g id="text_2">
      <!-- 2020-05 -->
      <defs>
       <path d="M 10.796875 72.90625 
L 49.515625 72.90625 
L 49.515625 64.59375 
L 19.828125 64.59375 
L 19.828125 46.734375 
Q 21.96875 47.46875 24.109375 47.828125 
Q 26.265625 48.1875 28.421875 48.1875 
Q 40.625 48.1875 47.75 41.5 
Q 54.890625 34.8125 54.890625 23.390625 
Q 54.890625 11.625 47.5625 5.09375 
Q 40.234375 -1.421875 26.90625 -1.421875 
Q 22.3125 -1.421875 17.546875 -0.640625 
Q 12.796875 0.140625 7.71875 1.703125 
L 7.71875 11.625 
Q 12.109375 9.234375 16.796875 8.0625 
Q 21.484375 6.890625 26.703125 6.890625 
Q 35.15625 6.890625 40.078125 11.328125 
Q 45.015625 15.765625 45.015625 23.390625 
Q 45.015625 31 40.078125 35.4375 
Q 35.15625 39.890625 26.703125 39.890625 
Q 22.75 39.890625 18.8125 39.015625 
Q 14.890625 38.140625 10.796875 36.28125 
z
" id="DejaVuSans-53"/>
      </defs>
      <g transform="translate(285.19135 778.196875)scale(0.2 -0.2)">
       <use xlink:href="#DejaVuSans-50"/>
       <use x="63.623047" xlink:href="#DejaVuSans-48"/>
       <use x="127.246094" xlink:href="#DejaVuSans-50"/>
       <use x="190.869141" xlink:href="#DejaVuSans-48"/>
       <use x="254.492188" xlink:href="#DejaVuSans-45"/>
       <use x="290.576172" xlink:href="#DejaVuSans-48"/>
       <use x="354.199219" xlink:href="#DejaVuSans-53"/>
      </g>
     </g>
    </g>
    <g id="xtick_3">
     <g id="line2d_5">
      <path clip-path="url(#pefdbb78800)" d="M 474.112919 756 
L 474.112919 103.68 
" style="fill:none;stroke:#b0b0b0;stroke-linecap:square;stroke-width:0.8;"/>
     </g>
     <g id="line2d_6">
      <g>
       <use style="stroke:#000000;stroke-width:0.8;" x="474.112919" xlink:href="#m11658c7bb2" y="756"/>
      </g>
     </g>
     <g id="text_3">
      <!-- 2020-06 -->
      <defs>
       <path d="M 33.015625 40.375 
Q 26.375 40.375 22.484375 35.828125 
Q 18.609375 31.296875 18.609375 23.390625 
Q 18.609375 15.53125 22.484375 10.953125 
Q 26.375 6.390625 33.015625 6.390625 
Q 39.65625 6.390625 43.53125 10.953125 
Q 47.40625 15.53125 47.40625 23.390625 
Q 47.40625 31.296875 43.53125 35.828125 
Q 39.65625 40.375 33.015625 40.375 
z
M 52.59375 71.296875 
L 52.59375 62.3125 
Q 48.875 64.0625 45.09375 64.984375 
Q 41.3125 65.921875 37.59375 65.921875 
Q 27.828125 65.921875 22.671875 59.328125 
Q 17.53125 52.734375 16.796875 39.40625 
Q 19.671875 43.65625 24.015625 45.921875 
Q 28.375 48.1875 33.59375 48.1875 
Q 44.578125 48.1875 50.953125 41.515625 
Q 57.328125 34.859375 57.328125 23.390625 
Q 57.328125 12.15625 50.6875 5.359375 
Q 44.046875 -1.421875 33.015625 -1.421875 
Q 20.359375 -1.421875 13.671875 8.265625 
Q 6.984375 17.96875 6.984375 36.375 
Q 6.984375 53.65625 15.1875 63.9375 
Q 23.390625 74.21875 37.203125 74.21875 
Q 40.921875 74.21875 44.703125 73.484375 
Q 48.484375 72.75 52.59375 71.296875 
z
" id="DejaVuSans-54"/>
      </defs>
      <g transform="translate(432.330106 778.196875)scale(0.2 -0.2)">
       <use xlink:href="#DejaVuSans-50"/>
       <use x="63.623047" xlink:href="#DejaVuSans-48"/>
       <use x="127.246094" xlink:href="#DejaVuSans-50"/>
       <use x="190.869141" xlink:href="#DejaVuSans-48"/>
       <use x="254.492188" xlink:href="#DejaVuSans-45"/>
       <use x="290.576172" xlink:href="#DejaVuSans-48"/>
       <use x="354.199219" xlink:href="#DejaVuSans-54"/>
      </g>
     </g>
    </g>
    <g id="xtick_4">
     <g id="line2d_7">
      <path clip-path="url(#pefdbb78800)" d="M 616.505263 756 
L 616.505263 103.68 
" style="fill:none;stroke:#b0b0b0;stroke-linecap:square;stroke-width:0.8;"/>
     </g>
     <g id="line2d_8">
      <g>
       <use style="stroke:#000000;stroke-width:0.8;" x="616.505263" xlink:href="#m11658c7bb2" y="756"/>
      </g>
     </g>
     <g id="text_4">
      <!-- 2020-07 -->
      <defs>
       <path d="M 8.203125 72.90625 
L 55.078125 72.90625 
L 55.078125 68.703125 
L 28.609375 0 
L 18.3125 0 
L 43.21875 64.59375 
L 8.203125 64.59375 
z
" id="DejaVuSans-55"/>
      </defs>
      <g transform="translate(574.722451 778.196875)scale(0.2 -0.2)">
       <use xlink:href="#DejaVuSans-50"/>
       <use x="63.623047" xlink:href="#DejaVuSans-48"/>
       <use x="127.246094" xlink:href="#DejaVuSans-50"/>
       <use x="190.869141" xlink:href="#DejaVuSans-48"/>
       <use x="254.492188" xlink:href="#DejaVuSans-45"/>
       <use x="290.576172" xlink:href="#DejaVuSans-48"/>
       <use x="354.199219" xlink:href="#DejaVuSans-55"/>
      </g>
     </g>
    </g>
    <g id="xtick_5">
     <g id="line2d_9">
      <path clip-path="url(#pefdbb78800)" d="M 763.644019 756 
L 763.644019 103.68 
" style="fill:none;stroke:#b0b0b0;stroke-linecap:square;stroke-width:0.8;"/>
     </g>
     <g id="line2d_10">
      <g>
       <use style="stroke:#000000;stroke-width:0.8;" x="763.644019" xlink:href="#m11658c7bb2" y="756"/>
      </g>
     </g>
     <g id="text_5">
      <!-- 2020-08 -->
      <defs>
       <path d="M 31.78125 34.625 
Q 24.75 34.625 20.71875 30.859375 
Q 16.703125 27.09375 16.703125 20.515625 
Q 16.703125 13.921875 20.71875 10.15625 
Q 24.75 6.390625 31.78125 6.390625 
Q 38.8125 6.390625 42.859375 10.171875 
Q 46.921875 13.96875 46.921875 20.515625 
Q 46.921875 27.09375 42.890625 30.859375 
Q 38.875 34.625 31.78125 34.625 
z
M 21.921875 38.8125 
Q 15.578125 40.375 12.03125 44.71875 
Q 8.5 49.078125 8.5 55.328125 
Q 8.5 64.0625 14.71875 69.140625 
Q 20.953125 74.21875 31.78125 74.21875 
Q 42.671875 74.21875 48.875 69.140625 
Q 55.078125 64.0625 55.078125 55.328125 
Q 55.078125 49.078125 51.53125 44.71875 
Q 48 40.375 41.703125 38.8125 
Q 48.828125 37.15625 52.796875 32.3125 
Q 56.78125 27.484375 56.78125 20.515625 
Q 56.78125 9.90625 50.3125 4.234375 
Q 43.84375 -1.421875 31.78125 -1.421875 
Q 19.734375 -1.421875 13.25 4.234375 
Q 6.78125 9.90625 6.78125 20.515625 
Q 6.78125 27.484375 10.78125 32.3125 
Q 14.796875 37.15625 21.921875 38.8125 
z
M 18.3125 54.390625 
Q 18.3125 48.734375 21.84375 45.5625 
Q 25.390625 42.390625 31.78125 42.390625 
Q 38.140625 42.390625 41.71875 45.5625 
Q 45.3125 48.734375 45.3125 54.390625 
Q 45.3125 60.0625 41.71875 63.234375 
Q 38.140625 66.40625 31.78125 66.40625 
Q 25.390625 66.40625 21.84375 63.234375 
Q 18.3125 60.0625 18.3125 54.390625 
z
" id="DejaVuSans-56"/>
      </defs>
      <g transform="translate(721.861207 778.196875)scale(0.2 -0.2)">
       <use xlink:href="#DejaVuSans-50"/>
       <use x="63.623047" xlink:href="#DejaVuSans-48"/>
       <use x="127.246094" xlink:href="#DejaVuSans-50"/>
       <use x="190.869141" xlink:href="#DejaVuSans-48"/>
       <use x="254.492188" xlink:href="#DejaVuSans-45"/>
       <use x="290.576172" xlink:href="#DejaVuSans-48"/>
       <use x="354.199219" xlink:href="#DejaVuSans-56"/>
      </g>
     </g>
    </g>
    <g id="xtick_6">
     <g id="line2d_11">
      <path clip-path="url(#pefdbb78800)" d="M 910.782775 756 
L 910.782775 103.68 
" style="fill:none;stroke:#b0b0b0;stroke-linecap:square;stroke-width:0.8;"/>
     </g>
     <g id="line2d_12">
      <g>
       <use style="stroke:#000000;stroke-width:0.8;" x="910.782775" xlink:href="#m11658c7bb2" y="756"/>
      </g>
     </g>
     <g id="text_6">
      <!-- 2020-09 -->
      <defs>
       <path d="M 10.984375 1.515625 
L 10.984375 10.5 
Q 14.703125 8.734375 18.5 7.8125 
Q 22.3125 6.890625 25.984375 6.890625 
Q 35.75 6.890625 40.890625 13.453125 
Q 46.046875 20.015625 46.78125 33.40625 
Q 43.953125 29.203125 39.59375 26.953125 
Q 35.25 24.703125 29.984375 24.703125 
Q 19.046875 24.703125 12.671875 31.3125 
Q 6.296875 37.9375 6.296875 49.421875 
Q 6.296875 60.640625 12.9375 67.421875 
Q 19.578125 74.21875 30.609375 74.21875 
Q 43.265625 74.21875 49.921875 64.515625 
Q 56.59375 54.828125 56.59375 36.375 
Q 56.59375 19.140625 48.40625 8.859375 
Q 40.234375 -1.421875 26.421875 -1.421875 
Q 22.703125 -1.421875 18.890625 -0.6875 
Q 15.09375 0.046875 10.984375 1.515625 
z
M 30.609375 32.421875 
Q 37.25 32.421875 41.125 36.953125 
Q 45.015625 41.5 45.015625 49.421875 
Q 45.015625 57.28125 41.125 61.84375 
Q 37.25 66.40625 30.609375 66.40625 
Q 23.96875 66.40625 20.09375 61.84375 
Q 16.21875 57.28125 16.21875 49.421875 
Q 16.21875 41.5 20.09375 36.953125 
Q 23.96875 32.421875 30.609375 32.421875 
z
" id="DejaVuSans-57"/>
      </defs>
      <g transform="translate(868.999963 778.196875)scale(0.2 -0.2)">
       <use xlink:href="#DejaVuSans-50"/>
       <use x="63.623047" xlink:href="#DejaVuSans-48"/>
       <use x="127.246094" xlink:href="#DejaVuSans-50"/>
       <use x="190.869141" xlink:href="#DejaVuSans-48"/>
       <use x="254.492188" xlink:href="#DejaVuSans-45"/>
       <use x="290.576172" xlink:href="#DejaVuSans-48"/>
       <use x="354.199219" xlink:href="#DejaVuSans-57"/>
      </g>
     </g>
    </g>
   </g>
   <g id="matplotlib.axis_2">
    <g id="ytick_1">
     <g id="line2d_13">
      <path clip-path="url(#pefdbb78800)" d="M 144 726.349091 
L 1036.8 726.349091 
" style="fill:none;stroke:#b0b0b0;stroke-linecap:square;stroke-width:0.8;"/>
     </g>
     <g id="line2d_14">
      <defs>
       <path d="M 0 0 
L -3.5 0 
" id="mcb81f665c0" style="stroke:#000000;stroke-width:0.8;"/>
      </defs>
      <g>
       <use style="stroke:#000000;stroke-width:0.8;" x="144" xlink:href="#mcb81f665c0" y="726.349091"/>
      </g>
     </g>
     <g id="text_7">
      <!-- 0.0 -->
      <defs>
       <path d="M 10.6875 12.40625 
L 21 12.40625 
L 21 0 
L 10.6875 0 
z
" id="DejaVuSans-46"/>
      </defs>
      <g transform="translate(105.19375 733.947528)scale(0.2 -0.2)">
       <use xlink:href="#DejaVuSans-48"/>
       <use x="63.623047" xlink:href="#DejaVuSans-46"/>
       <use x="95.410156" xlink:href="#DejaVuSans-48"/>
      </g>
     </g>
    </g>
    <g id="ytick_2">
     <g id="line2d_15">
      <path clip-path="url(#pefdbb78800)" d="M 144 584.967953 
L 1036.8 584.967953 
" style="fill:none;stroke:#b0b0b0;stroke-linecap:square;stroke-width:0.8;"/>
     </g>
     <g id="line2d_16">
      <g>
       <use style="stroke:#000000;stroke-width:0.8;" x="144" xlink:href="#mcb81f665c0" y="584.967953"/>
      </g>
     </g>
     <g id="text_8">
      <!-- 0.5 -->
      <g transform="translate(105.19375 592.56639)scale(0.2 -0.2)">
       <use xlink:href="#DejaVuSans-48"/>
       <use x="63.623047" xlink:href="#DejaVuSans-46"/>
       <use x="95.410156" xlink:href="#DejaVuSans-53"/>
      </g>
     </g>
    </g>
    <g id="ytick_3">
     <g id="line2d_17">
      <path clip-path="url(#pefdbb78800)" d="M 144 443.586814 
L 1036.8 443.586814 
" style="fill:none;stroke:#b0b0b0;stroke-linecap:square;stroke-width:0.8;"/>
     </g>
     <g id="line2d_18">
      <g>
       <use style="stroke:#000000;stroke-width:0.8;" x="144" xlink:href="#mcb81f665c0" y="443.586814"/>
      </g>
     </g>
     <g id="text_9">
      <!-- 1.0 -->
      <defs>
       <path d="M 12.40625 8.296875 
L 28.515625 8.296875 
L 28.515625 63.921875 
L 10.984375 60.40625 
L 10.984375 69.390625 
L 28.421875 72.90625 
L 38.28125 72.90625 
L 38.28125 8.296875 
L 54.390625 8.296875 
L 54.390625 0 
L 12.40625 0 
z
" id="DejaVuSans-49"/>
      </defs>
      <g transform="translate(105.19375 451.185252)scale(0.2 -0.2)">
       <use xlink:href="#DejaVuSans-49"/>
       <use x="63.623047" xlink:href="#DejaVuSans-46"/>
       <use x="95.410156" xlink:href="#DejaVuSans-48"/>
      </g>
     </g>
    </g>
    <g id="ytick_4">
     <g id="line2d_19">
      <path clip-path="url(#pefdbb78800)" d="M 144 302.205676 
L 1036.8 302.205676 
" style="fill:none;stroke:#b0b0b0;stroke-linecap:square;stroke-width:0.8;"/>
     </g>
     <g id="line2d_20">
      <g>
       <use style="stroke:#000000;stroke-width:0.8;" x="144" xlink:href="#mcb81f665c0" y="302.205676"/>
      </g>
     </g>
     <g id="text_10">
      <!-- 1.5 -->
      <g transform="translate(105.19375 309.804113)scale(0.2 -0.2)">
       <use xlink:href="#DejaVuSans-49"/>
       <use x="63.623047" xlink:href="#DejaVuSans-46"/>
       <use x="95.410156" xlink:href="#DejaVuSans-53"/>
      </g>
     </g>
    </g>
    <g id="ytick_5">
     <g id="line2d_21">
      <path clip-path="url(#pefdbb78800)" d="M 144 160.824537 
L 1036.8 160.824537 
" style="fill:none;stroke:#b0b0b0;stroke-linecap:square;stroke-width:0.8;"/>
     </g>
     <g id="line2d_22">
      <g>
       <use style="stroke:#000000;stroke-width:0.8;" x="144" xlink:href="#mcb81f665c0" y="160.824537"/>
      </g>
     </g>
     <g id="text_11">
      <!-- 2.0 -->
      <g transform="translate(105.19375 168.422975)scale(0.2 -0.2)">
       <use xlink:href="#DejaVuSans-50"/>
       <use x="63.623047" xlink:href="#DejaVuSans-46"/>
       <use x="95.410156" xlink:href="#DejaVuSans-48"/>
      </g>
     </g>
    </g>
   </g>
   <g id="line2d_23">
    <path clip-path="url(#pefdbb78800)" d="M 184.581818 726.349091 
L 265.270813 726.349091 
L 279.510048 723.427396 
L 284.256459 722.063513 
L 289.002871 720.458592 
L 293.749282 717.399974 
L 303.242105 710.682112 
L 312.734928 705.303592 
L 317.48134 701.692053 
L 322.227751 698.51119 
L 331.720574 693.132669 
L 336.466986 688.155253 
L 341.213397 682.524614 
L 345.959809 676.585831 
L 350.70622 671.808993 
L 355.452632 666.791157 
L 360.199043 660.068006 
L 364.945455 653.788016 
L 369.691866 652.076668 
L 374.438278 650.732038 
L 379.184689 647.295351 
L 421.902392 598.888665 
L 426.648804 597.315873 
L 445.63445 591.937352 
L 450.380861 587.614284 
L 459.873684 576.857243 
L 464.620096 571.767836 
L 469.366507 566.100202 
L 474.112919 560.183829 
L 478.85933 555.881012 
L 483.605742 548.226791 
L 488.352153 545.537531 
L 493.098565 542.434711 
L 502.591388 531.67767 
L 516.830622 519.575998 
L 521.577033 515.990318 
L 526.323445 513.12232 
L 531.069856 510.835902 
L 583.280383 496.04497 
L 611.758852 496.04497 
L 616.505263 495.562907 
L 630.744498 487.495126 
L 635.490909 487.213684 
L 996.218182 487.213684 
L 996.218182 487.213684 
" style="fill:none;stroke:#1f77b4;stroke-linecap:square;stroke-width:1.5;"/>
   </g>
   <g id="line2d_24">
    <path clip-path="url(#pefdbb78800)" d="M 184.581818 725.004461 
L 189.32823 725.004461 
L 194.074641 725.004461 
L 198.821053 725.004461 
L 203.567464 725.004461 
L 208.313876 725.004461 
L 213.060287 725.004461 
L 217.806699 725.004461 
L 222.55311 725.004461 
L 227.299522 725.004461 
L 232.045933 725.004461 
L 236.792344 725.004461 
L 241.538756 725.004461 
L 246.285167 725.004461 
L 251.031579 725.004461 
L 255.77799 725.004461 
L 260.524402 725.004461 
L 265.270813 725.004461 
L 270.017225 725.004461 
L 274.763636 723.659831 
L 279.510048 722.3152 
L 284.256459 720.97057 
L 289.002871 720.97057 
L 293.749282 718.28131 
L 298.495694 718.28131 
L 303.242105 710.213529 
L 307.988517 708.868899 
L 312.734928 708.868899 
L 317.48134 692.733337 
L 322.227751 688.699446 
L 326.974163 687.354816 
L 331.720574 673.908515 
L 336.466986 671.219254 
L 341.213397 665.840734 
L 345.959809 663.151473 
L 350.70622 660.462213 
L 355.452632 657.772953 
L 360.199043 656.428322 
L 364.945455 655.083692 
L 369.691866 651.049802 
L 374.438278 649.705172 
L 379.184689 647.015911 
L 383.9311 644.326651 
L 388.677512 644.326651 
L 393.423923 644.326651 
L 398.170335 638.94813 
" style="fill:none;stroke:#008000;stroke-linecap:square;stroke-width:1.5;"/>
   </g>
   <g id="line2d_25">
    <path clip-path="url(#pefdbb78800)" d="M 184.581818 725.004461 
L 189.32823 725.004461 
L 194.074641 725.004461 
L 198.821053 725.004461 
L 203.567464 725.004461 
L 208.313876 725.004461 
L 213.060287 725.004461 
L 217.806699 725.004461 
L 222.55311 725.004461 
L 227.299522 725.004461 
L 232.045933 725.004461 
L 236.792344 725.004461 
L 241.538756 725.004461 
L 246.285167 725.004461 
L 251.031579 725.004461 
L 255.77799 725.004461 
L 260.524402 725.004461 
L 265.270813 725.004461 
L 270.017225 725.004461 
L 274.763636 723.659831 
L 279.510048 722.3152 
L 284.256459 720.97057 
L 289.002871 720.97057 
L 293.749282 718.28131 
L 298.495694 718.28131 
L 303.242105 710.213529 
L 307.988517 708.868899 
L 312.734928 708.868899 
L 317.48134 692.733337 
L 322.227751 688.699446 
L 326.974163 687.354816 
L 331.720574 673.908515 
L 336.466986 671.219254 
L 341.213397 665.840734 
L 345.959809 663.151473 
L 350.70622 660.462213 
L 355.452632 657.772953 
L 360.199043 656.428322 
" style="fill:none;stroke:#ff0000;stroke-linecap:square;stroke-width:1.5;"/>
   </g>
   <g id="patch_3">
    <path d="M 144 756 
L 144 103.68 
" style="fill:none;stroke:#000000;stroke-linecap:square;stroke-linejoin:miter;stroke-width:0.8;"/>
   </g>
   <g id="patch_4">
    <path d="M 1036.8 756 
L 1036.8 103.68 
" style="fill:none;stroke:#000000;stroke-linecap:square;stroke-linejoin:miter;stroke-width:0.8;"/>
   </g>
   <g id="patch_5">
    <path d="M 144 756 
L 1036.8 756 
" style="fill:none;stroke:#000000;stroke-linecap:square;stroke-linejoin:miter;stroke-width:0.8;"/>
   </g>
   <g id="patch_6">
    <path d="M 144 103.68 
L 1036.8 103.68 
" style="fill:none;stroke:#000000;stroke-linecap:square;stroke-linejoin:miter;stroke-width:0.8;"/>
   </g>
   <g id="legend_1">
    <g id="patch_7">
     <path d="M 158 266.46125 
L 451.41875 266.46125 
Q 455.41875 266.46125 455.41875 262.46125 
L 455.41875 117.68 
Q 455.41875 113.68 451.41875 113.68 
L 158 113.68 
Q 154 113.68 154 117.68 
L 154 262.46125 
Q 154 266.46125 158 266.46125 
z
" style="fill:#ffffff;opacity:0.8;stroke:#cccccc;stroke-linejoin:miter;"/>
    </g>
    <g id="line2d_26">
     <path d="M 162 129.876875 
L 202 129.876875 
" style="fill:none;stroke:#1f77b4;stroke-linecap:square;stroke-width:1.5;"/>
    </g>
    <g id="line2d_27"/>
    <g id="text_12">
     <!-- Total Detected Cases -->
     <defs>
      <path d="M -0.296875 72.90625 
L 61.375 72.90625 
L 61.375 64.59375 
L 35.5 64.59375 
L 35.5 0 
L 25.59375 0 
L 25.59375 64.59375 
L -0.296875 64.59375 
z
" id="DejaVuSans-84"/>
      <path d="M 30.609375 48.390625 
Q 23.390625 48.390625 19.1875 42.75 
Q 14.984375 37.109375 14.984375 27.296875 
Q 14.984375 17.484375 19.15625 11.84375 
Q 23.34375 6.203125 30.609375 6.203125 
Q 37.796875 6.203125 41.984375 11.859375 
Q 46.1875 17.53125 46.1875 27.296875 
Q 46.1875 37.015625 41.984375 42.703125 
Q 37.796875 48.390625 30.609375 48.390625 
z
M 30.609375 56 
Q 42.328125 56 49.015625 48.375 
Q 55.71875 40.765625 55.71875 27.296875 
Q 55.71875 13.875 49.015625 6.21875 
Q 42.328125 -1.421875 30.609375 -1.421875 
Q 18.84375 -1.421875 12.171875 6.21875 
Q 5.515625 13.875 5.515625 27.296875 
Q 5.515625 40.765625 12.171875 48.375 
Q 18.84375 56 30.609375 56 
z
" id="DejaVuSans-111"/>
      <path d="M 18.3125 70.21875 
L 18.3125 54.6875 
L 36.8125 54.6875 
L 36.8125 47.703125 
L 18.3125 47.703125 
L 18.3125 18.015625 
Q 18.3125 11.328125 20.140625 9.421875 
Q 21.96875 7.515625 27.59375 7.515625 
L 36.8125 7.515625 
L 36.8125 0 
L 27.59375 0 
Q 17.1875 0 13.234375 3.875 
Q 9.28125 7.765625 9.28125 18.015625 
L 9.28125 47.703125 
L 2.6875 47.703125 
L 2.6875 54.6875 
L 9.28125 54.6875 
L 9.28125 70.21875 
z
" id="DejaVuSans-116"/>
      <path d="M 34.28125 27.484375 
Q 23.390625 27.484375 19.1875 25 
Q 14.984375 22.515625 14.984375 16.5 
Q 14.984375 11.71875 18.140625 8.90625 
Q 21.296875 6.109375 26.703125 6.109375 
Q 34.1875 6.109375 38.703125 11.40625 
Q 43.21875 16.703125 43.21875 25.484375 
L 43.21875 27.484375 
z
M 52.203125 31.203125 
L 52.203125 0 
L 43.21875 0 
L 43.21875 8.296875 
Q 40.140625 3.328125 35.546875 0.953125 
Q 30.953125 -1.421875 24.3125 -1.421875 
Q 15.921875 -1.421875 10.953125 3.296875 
Q 6 8.015625 6 15.921875 
Q 6 25.140625 12.171875 29.828125 
Q 18.359375 34.515625 30.609375 34.515625 
L 43.21875 34.515625 
L 43.21875 35.40625 
Q 43.21875 41.609375 39.140625 45 
Q 35.0625 48.390625 27.6875 48.390625 
Q 23 48.390625 18.546875 47.265625 
Q 14.109375 46.140625 10.015625 43.890625 
L 10.015625 52.203125 
Q 14.9375 54.109375 19.578125 55.046875 
Q 24.21875 56 28.609375 56 
Q 40.484375 56 46.34375 49.84375 
Q 52.203125 43.703125 52.203125 31.203125 
z
" id="DejaVuSans-97"/>
      <path d="M 9.421875 75.984375 
L 18.40625 75.984375 
L 18.40625 0 
L 9.421875 0 
z
" id="DejaVuSans-108"/>
      <path id="DejaVuSans-32"/>
      <path d="M 19.671875 64.796875 
L 19.671875 8.109375 
L 31.59375 8.109375 
Q 46.6875 8.109375 53.6875 14.9375 
Q 60.6875 21.78125 60.6875 36.53125 
Q 60.6875 51.171875 53.6875 57.984375 
Q 46.6875 64.796875 31.59375 64.796875 
z
M 9.8125 72.90625 
L 30.078125 72.90625 
Q 51.265625 72.90625 61.171875 64.09375 
Q 71.09375 55.28125 71.09375 36.53125 
Q 71.09375 17.671875 61.125 8.828125 
Q 51.171875 0 30.078125 0 
L 9.8125 0 
z
" id="DejaVuSans-68"/>
      <path d="M 56.203125 29.59375 
L 56.203125 25.203125 
L 14.890625 25.203125 
Q 15.484375 15.921875 20.484375 11.0625 
Q 25.484375 6.203125 34.421875 6.203125 
Q 39.59375 6.203125 44.453125 7.46875 
Q 49.3125 8.734375 54.109375 11.28125 
L 54.109375 2.78125 
Q 49.265625 0.734375 44.1875 -0.34375 
Q 39.109375 -1.421875 33.890625 -1.421875 
Q 20.796875 -1.421875 13.15625 6.1875 
Q 5.515625 13.8125 5.515625 26.8125 
Q 5.515625 40.234375 12.765625 48.109375 
Q 20.015625 56 32.328125 56 
Q 43.359375 56 49.78125 48.890625 
Q 56.203125 41.796875 56.203125 29.59375 
z
M 47.21875 32.234375 
Q 47.125 39.59375 43.09375 43.984375 
Q 39.0625 48.390625 32.421875 48.390625 
Q 24.90625 48.390625 20.390625 44.140625 
Q 15.875 39.890625 15.1875 32.171875 
z
" id="DejaVuSans-101"/>
      <path d="M 48.78125 52.59375 
L 48.78125 44.1875 
Q 44.96875 46.296875 41.140625 47.34375 
Q 37.3125 48.390625 33.40625 48.390625 
Q 24.65625 48.390625 19.8125 42.84375 
Q 14.984375 37.3125 14.984375 27.296875 
Q 14.984375 17.28125 19.8125 11.734375 
Q 24.65625 6.203125 33.40625 6.203125 
Q 37.3125 6.203125 41.140625 7.25 
Q 44.96875 8.296875 48.78125 10.40625 
L 48.78125 2.09375 
Q 45.015625 0.34375 40.984375 -0.53125 
Q 36.96875 -1.421875 32.421875 -1.421875 
Q 20.0625 -1.421875 12.78125 6.34375 
Q 5.515625 14.109375 5.515625 27.296875 
Q 5.515625 40.671875 12.859375 48.328125 
Q 20.21875 56 33.015625 56 
Q 37.15625 56 41.109375 55.140625 
Q 45.0625 54.296875 48.78125 52.59375 
z
" id="DejaVuSans-99"/>
      <path d="M 45.40625 46.390625 
L 45.40625 75.984375 
L 54.390625 75.984375 
L 54.390625 0 
L 45.40625 0 
L 45.40625 8.203125 
Q 42.578125 3.328125 38.25 0.953125 
Q 33.9375 -1.421875 27.875 -1.421875 
Q 17.96875 -1.421875 11.734375 6.484375 
Q 5.515625 14.40625 5.515625 27.296875 
Q 5.515625 40.1875 11.734375 48.09375 
Q 17.96875 56 27.875 56 
Q 33.9375 56 38.25 53.625 
Q 42.578125 51.265625 45.40625 46.390625 
z
M 14.796875 27.296875 
Q 14.796875 17.390625 18.875 11.75 
Q 22.953125 6.109375 30.078125 6.109375 
Q 37.203125 6.109375 41.296875 11.75 
Q 45.40625 17.390625 45.40625 27.296875 
Q 45.40625 37.203125 41.296875 42.84375 
Q 37.203125 48.484375 30.078125 48.484375 
Q 22.953125 48.484375 18.875 42.84375 
Q 14.796875 37.203125 14.796875 27.296875 
z
" id="DejaVuSans-100"/>
      <path d="M 64.40625 67.28125 
L 64.40625 56.890625 
Q 59.421875 61.53125 53.78125 63.8125 
Q 48.140625 66.109375 41.796875 66.109375 
Q 29.296875 66.109375 22.65625 58.46875 
Q 16.015625 50.828125 16.015625 36.375 
Q 16.015625 21.96875 22.65625 14.328125 
Q 29.296875 6.6875 41.796875 6.6875 
Q 48.140625 6.6875 53.78125 8.984375 
Q 59.421875 11.28125 64.40625 15.921875 
L 64.40625 5.609375 
Q 59.234375 2.09375 53.4375 0.328125 
Q 47.65625 -1.421875 41.21875 -1.421875 
Q 24.65625 -1.421875 15.125 8.703125 
Q 5.609375 18.84375 5.609375 36.375 
Q 5.609375 53.953125 15.125 64.078125 
Q 24.65625 74.21875 41.21875 74.21875 
Q 47.75 74.21875 53.53125 72.484375 
Q 59.328125 70.75 64.40625 67.28125 
z
" id="DejaVuSans-67"/>
      <path d="M 44.28125 53.078125 
L 44.28125 44.578125 
Q 40.484375 46.53125 36.375 47.5 
Q 32.28125 48.484375 27.875 48.484375 
Q 21.1875 48.484375 17.84375 46.4375 
Q 14.5 44.390625 14.5 40.28125 
Q 14.5 37.15625 16.890625 35.375 
Q 19.28125 33.59375 26.515625 31.984375 
L 29.59375 31.296875 
Q 39.15625 29.25 43.1875 25.515625 
Q 47.21875 21.78125 47.21875 15.09375 
Q 47.21875 7.46875 41.1875 3.015625 
Q 35.15625 -1.421875 24.609375 -1.421875 
Q 20.21875 -1.421875 15.453125 -0.5625 
Q 10.6875 0.296875 5.421875 2 
L 5.421875 11.28125 
Q 10.40625 8.6875 15.234375 7.390625 
Q 20.0625 6.109375 24.8125 6.109375 
Q 31.15625 6.109375 34.5625 8.28125 
Q 37.984375 10.453125 37.984375 14.40625 
Q 37.984375 18.0625 35.515625 20.015625 
Q 33.0625 21.96875 24.703125 23.78125 
L 21.578125 24.515625 
Q 13.234375 26.265625 9.515625 29.90625 
Q 5.8125 33.546875 5.8125 39.890625 
Q 5.8125 47.609375 11.28125 51.796875 
Q 16.75 56 26.8125 56 
Q 31.78125 56 36.171875 55.265625 
Q 40.578125 54.546875 44.28125 53.078125 
z
" id="DejaVuSans-115"/>
     </defs>
     <g transform="translate(218 136.876875)scale(0.2 -0.2)">
      <use xlink:href="#DejaVuSans-84"/>
      <use x="44.083984" xlink:href="#DejaVuSans-111"/>
      <use x="105.265625" xlink:href="#DejaVuSans-116"/>
      <use x="144.474609" xlink:href="#DejaVuSans-97"/>
      <use x="205.753906" xlink:href="#DejaVuSans-108"/>
      <use x="233.537109" xlink:href="#DejaVuSans-32"/>
      <use x="265.324219" xlink:href="#DejaVuSans-68"/>
      <use x="342.326172" xlink:href="#DejaVuSans-101"/>
      <use x="403.849609" xlink:href="#DejaVuSans-116"/>
      <use x="443.058594" xlink:href="#DejaVuSans-101"/>
      <use x="504.582031" xlink:href="#DejaVuSans-99"/>
      <use x="559.5625" xlink:href="#DejaVuSans-116"/>
      <use x="598.771484" xlink:href="#DejaVuSans-101"/>
      <use x="660.294922" xlink:href="#DejaVuSans-100"/>
      <use x="723.771484" xlink:href="#DejaVuSans-32"/>
      <use x="755.558594" xlink:href="#DejaVuSans-67"/>
      <use x="825.382812" xlink:href="#DejaVuSans-97"/>
      <use x="886.662109" xlink:href="#DejaVuSans-115"/>
      <use x="938.761719" xlink:href="#DejaVuSans-101"/>
      <use x="1000.285156" xlink:href="#DejaVuSans-115"/>
     </g>
    </g>
    <g id="line2d_28">
     <path d="M 162 159.233125 
L 202 159.233125 
" style="fill:none;stroke:#008000;stroke-linecap:square;stroke-width:1.5;"/>
    </g>
    <g id="line2d_29"/>
    <g id="text_13">
     <!-- Ground Truth - Testing -->
     <defs>
      <path d="M 59.515625 10.40625 
L 59.515625 29.984375 
L 43.40625 29.984375 
L 43.40625 38.09375 
L 69.28125 38.09375 
L 69.28125 6.78125 
Q 63.578125 2.734375 56.6875 0.65625 
Q 49.8125 -1.421875 42 -1.421875 
Q 24.90625 -1.421875 15.25 8.5625 
Q 5.609375 18.5625 5.609375 36.375 
Q 5.609375 54.25 15.25 64.234375 
Q 24.90625 74.21875 42 74.21875 
Q 49.125 74.21875 55.546875 72.453125 
Q 61.96875 70.703125 67.390625 67.28125 
L 67.390625 56.78125 
Q 61.921875 61.421875 55.765625 63.765625 
Q 49.609375 66.109375 42.828125 66.109375 
Q 29.4375 66.109375 22.71875 58.640625 
Q 16.015625 51.171875 16.015625 36.375 
Q 16.015625 21.625 22.71875 14.15625 
Q 29.4375 6.6875 42.828125 6.6875 
Q 48.046875 6.6875 52.140625 7.59375 
Q 56.25 8.5 59.515625 10.40625 
z
" id="DejaVuSans-71"/>
      <path d="M 41.109375 46.296875 
Q 39.59375 47.171875 37.8125 47.578125 
Q 36.03125 48 33.890625 48 
Q 26.265625 48 22.1875 43.046875 
Q 18.109375 38.09375 18.109375 28.8125 
L 18.109375 0 
L 9.078125 0 
L 9.078125 54.6875 
L 18.109375 54.6875 
L 18.109375 46.1875 
Q 20.953125 51.171875 25.484375 53.578125 
Q 30.03125 56 36.53125 56 
Q 37.453125 56 38.578125 55.875 
Q 39.703125 55.765625 41.0625 55.515625 
z
" id="DejaVuSans-114"/>
      <path d="M 8.5 21.578125 
L 8.5 54.6875 
L 17.484375 54.6875 
L 17.484375 21.921875 
Q 17.484375 14.15625 20.5 10.265625 
Q 23.53125 6.390625 29.59375 6.390625 
Q 36.859375 6.390625 41.078125 11.03125 
Q 45.3125 15.671875 45.3125 23.6875 
L 45.3125 54.6875 
L 54.296875 54.6875 
L 54.296875 0 
L 45.3125 0 
L 45.3125 8.40625 
Q 42.046875 3.421875 37.71875 1 
Q 33.40625 -1.421875 27.6875 -1.421875 
Q 18.265625 -1.421875 13.375 4.4375 
Q 8.5 10.296875 8.5 21.578125 
z
M 31.109375 56 
z
" id="DejaVuSans-117"/>
      <path d="M 54.890625 33.015625 
L 54.890625 0 
L 45.90625 0 
L 45.90625 32.71875 
Q 45.90625 40.484375 42.875 44.328125 
Q 39.84375 48.1875 33.796875 48.1875 
Q 26.515625 48.1875 22.3125 43.546875 
Q 18.109375 38.921875 18.109375 30.90625 
L 18.109375 0 
L 9.078125 0 
L 9.078125 54.6875 
L 18.109375 54.6875 
L 18.109375 46.1875 
Q 21.34375 51.125 25.703125 53.5625 
Q 30.078125 56 35.796875 56 
Q 45.21875 56 50.046875 50.171875 
Q 54.890625 44.34375 54.890625 33.015625 
z
" id="DejaVuSans-110"/>
      <path d="M 54.890625 33.015625 
L 54.890625 0 
L 45.90625 0 
L 45.90625 32.71875 
Q 45.90625 40.484375 42.875 44.328125 
Q 39.84375 48.1875 33.796875 48.1875 
Q 26.515625 48.1875 22.3125 43.546875 
Q 18.109375 38.921875 18.109375 30.90625 
L 18.109375 0 
L 9.078125 0 
L 9.078125 75.984375 
L 18.109375 75.984375 
L 18.109375 46.1875 
Q 21.34375 51.125 25.703125 53.5625 
Q 30.078125 56 35.796875 56 
Q 45.21875 56 50.046875 50.171875 
Q 54.890625 44.34375 54.890625 33.015625 
z
" id="DejaVuSans-104"/>
      <path d="M 9.421875 54.6875 
L 18.40625 54.6875 
L 18.40625 0 
L 9.421875 0 
z
M 9.421875 75.984375 
L 18.40625 75.984375 
L 18.40625 64.59375 
L 9.421875 64.59375 
z
" id="DejaVuSans-105"/>
      <path d="M 45.40625 27.984375 
Q 45.40625 37.75 41.375 43.109375 
Q 37.359375 48.484375 30.078125 48.484375 
Q 22.859375 48.484375 18.828125 43.109375 
Q 14.796875 37.75 14.796875 27.984375 
Q 14.796875 18.265625 18.828125 12.890625 
Q 22.859375 7.515625 30.078125 7.515625 
Q 37.359375 7.515625 41.375 12.890625 
Q 45.40625 18.265625 45.40625 27.984375 
z
M 54.390625 6.78125 
Q 54.390625 -7.171875 48.1875 -13.984375 
Q 42 -20.796875 29.203125 -20.796875 
Q 24.46875 -20.796875 20.265625 -20.09375 
Q 16.0625 -19.390625 12.109375 -17.921875 
L 12.109375 -9.1875 
Q 16.0625 -11.328125 19.921875 -12.34375 
Q 23.78125 -13.375 27.78125 -13.375 
Q 36.625 -13.375 41.015625 -8.765625 
Q 45.40625 -4.15625 45.40625 5.171875 
L 45.40625 9.625 
Q 42.625 4.78125 38.28125 2.390625 
Q 33.9375 0 27.875 0 
Q 17.828125 0 11.671875 7.65625 
Q 5.515625 15.328125 5.515625 27.984375 
Q 5.515625 40.671875 11.671875 48.328125 
Q 17.828125 56 27.875 56 
Q 33.9375 56 38.28125 53.609375 
Q 42.625 51.21875 45.40625 46.390625 
L 45.40625 54.6875 
L 54.390625 54.6875 
z
" id="DejaVuSans-103"/>
     </defs>
     <g transform="translate(218 166.233125)scale(0.2 -0.2)">
      <use xlink:href="#DejaVuSans-71"/>
      <use x="77.490234" xlink:href="#DejaVuSans-114"/>
      <use x="116.353516" xlink:href="#DejaVuSans-111"/>
      <use x="177.535156" xlink:href="#DejaVuSans-117"/>
      <use x="240.914062" xlink:href="#DejaVuSans-110"/>
      <use x="304.292969" xlink:href="#DejaVuSans-100"/>
      <use x="367.769531" xlink:href="#DejaVuSans-32"/>
      <use x="399.556641" xlink:href="#DejaVuSans-84"/>
      <use x="445.890625" xlink:href="#DejaVuSans-114"/>
      <use x="487.003906" xlink:href="#DejaVuSans-117"/>
      <use x="550.382812" xlink:href="#DejaVuSans-116"/>
      <use x="589.591797" xlink:href="#DejaVuSans-104"/>
      <use x="652.970703" xlink:href="#DejaVuSans-32"/>
      <use x="684.757812" xlink:href="#DejaVuSans-45"/>
      <use x="720.841797" xlink:href="#DejaVuSans-32"/>
      <use x="752.628906" xlink:href="#DejaVuSans-84"/>
      <use x="796.712891" xlink:href="#DejaVuSans-101"/>
      <use x="858.236328" xlink:href="#DejaVuSans-115"/>
      <use x="910.335938" xlink:href="#DejaVuSans-116"/>
      <use x="949.544922" xlink:href="#DejaVuSans-105"/>
      <use x="977.328125" xlink:href="#DejaVuSans-110"/>
      <use x="1040.707031" xlink:href="#DejaVuSans-103"/>
     </g>
    </g>
    <g id="line2d_30">
     <path d="M 162 188.589375 
L 202 188.589375 
" style="fill:none;stroke:#ff0000;stroke-linecap:square;stroke-width:1.5;"/>
    </g>
    <g id="line2d_31"/>
    <g id="text_14">
     <!-- Ground Truth - Training -->
     <g transform="translate(218 195.589375)scale(0.2 -0.2)">
      <use xlink:href="#DejaVuSans-71"/>
      <use x="77.490234" xlink:href="#DejaVuSans-114"/>
      <use x="116.353516" xlink:href="#DejaVuSans-111"/>
      <use x="177.535156" xlink:href="#DejaVuSans-117"/>
      <use x="240.914062" xlink:href="#DejaVuSans-110"/>
      <use x="304.292969" xlink:href="#DejaVuSans-100"/>
      <use x="367.769531" xlink:href="#DejaVuSans-32"/>
      <use x="399.556641" xlink:href="#DejaVuSans-84"/>
      <use x="445.890625" xlink:href="#DejaVuSans-114"/>
      <use x="487.003906" xlink:href="#DejaVuSans-117"/>
      <use x="550.382812" xlink:href="#DejaVuSans-116"/>
      <use x="589.591797" xlink:href="#DejaVuSans-104"/>
      <use x="652.970703" xlink:href="#DejaVuSans-32"/>
      <use x="684.757812" xlink:href="#DejaVuSans-45"/>
      <use x="720.841797" xlink:href="#DejaVuSans-32"/>
      <use x="752.628906" xlink:href="#DejaVuSans-84"/>
      <use x="798.962891" xlink:href="#DejaVuSans-114"/>
      <use x="840.076172" xlink:href="#DejaVuSans-97"/>
      <use x="901.355469" xlink:href="#DejaVuSans-105"/>
      <use x="929.138672" xlink:href="#DejaVuSans-110"/>
      <use x="992.517578" xlink:href="#DejaVuSans-105"/>
      <use x="1020.300781" xlink:href="#DejaVuSans-110"/>
      <use x="1083.679688" xlink:href="#DejaVuSans-103"/>
     </g>
    </g>
    <g id="patch_8">
     <path d="M 162 224.945625 
L 202 224.945625 
L 202 210.945625 
L 162 210.945625 
z
" style="fill:#0000ff;opacity:0.1;stroke:#0000ff;stroke-linejoin:miter;"/>
    </g>
    <g id="text_15">
     <!-- IQR -->
     <defs>
      <path d="M 9.8125 72.90625 
L 19.671875 72.90625 
L 19.671875 0 
L 9.8125 0 
z
" id="DejaVuSans-73"/>
      <path d="M 39.40625 66.21875 
Q 28.65625 66.21875 22.328125 58.203125 
Q 16.015625 50.203125 16.015625 36.375 
Q 16.015625 22.609375 22.328125 14.59375 
Q 28.65625 6.59375 39.40625 6.59375 
Q 50.140625 6.59375 56.421875 14.59375 
Q 62.703125 22.609375 62.703125 36.375 
Q 62.703125 50.203125 56.421875 58.203125 
Q 50.140625 66.21875 39.40625 66.21875 
z
M 53.21875 1.3125 
L 66.21875 -12.890625 
L 54.296875 -12.890625 
L 43.5 -1.21875 
Q 41.890625 -1.3125 41.03125 -1.359375 
Q 40.1875 -1.421875 39.40625 -1.421875 
Q 24.03125 -1.421875 14.8125 8.859375 
Q 5.609375 19.140625 5.609375 36.375 
Q 5.609375 53.65625 14.8125 63.9375 
Q 24.03125 74.21875 39.40625 74.21875 
Q 54.734375 74.21875 63.90625 63.9375 
Q 73.09375 53.65625 73.09375 36.375 
Q 73.09375 23.6875 67.984375 14.640625 
Q 62.890625 5.609375 53.21875 1.3125 
z
" id="DejaVuSans-81"/>
      <path d="M 44.390625 34.1875 
Q 47.5625 33.109375 50.5625 29.59375 
Q 53.5625 26.078125 56.59375 19.921875 
L 66.609375 0 
L 56 0 
L 46.6875 18.703125 
Q 43.0625 26.03125 39.671875 28.421875 
Q 36.28125 30.8125 30.421875 30.8125 
L 19.671875 30.8125 
L 19.671875 0 
L 9.8125 0 
L 9.8125 72.90625 
L 32.078125 72.90625 
Q 44.578125 72.90625 50.734375 67.671875 
Q 56.890625 62.453125 56.890625 51.90625 
Q 56.890625 45.015625 53.6875 40.46875 
Q 50.484375 35.9375 44.390625 34.1875 
z
M 19.671875 64.796875 
L 19.671875 38.921875 
L 32.078125 38.921875 
Q 39.203125 38.921875 42.84375 42.21875 
Q 46.484375 45.515625 46.484375 51.90625 
Q 46.484375 58.296875 42.84375 61.546875 
Q 39.203125 64.796875 32.078125 64.796875 
z
" id="DejaVuSans-82"/>
     </defs>
     <g transform="translate(218 224.945625)scale(0.2 -0.2)">
      <use xlink:href="#DejaVuSans-73"/>
      <use x="29.492188" xlink:href="#DejaVuSans-81"/>
      <use x="108.203125" xlink:href="#DejaVuSans-82"/>
     </g>
    </g>
    <g id="patch_9">
     <path d="M 162 254.301875 
L 202 254.301875 
L 202 240.301875 
L 162 240.301875 
z
" style="fill:#0000ff;opacity:0.05;stroke:#0000ff;stroke-linejoin:miter;"/>
    </g>
    <g id="text_16">
     <!-- 95% CI -->
     <defs>
      <path d="M 72.703125 32.078125 
Q 68.453125 32.078125 66.03125 28.46875 
Q 63.625 24.859375 63.625 18.40625 
Q 63.625 12.0625 66.03125 8.421875 
Q 68.453125 4.78125 72.703125 4.78125 
Q 76.859375 4.78125 79.265625 8.421875 
Q 81.6875 12.0625 81.6875 18.40625 
Q 81.6875 24.8125 79.265625 28.4375 
Q 76.859375 32.078125 72.703125 32.078125 
z
M 72.703125 38.28125 
Q 80.421875 38.28125 84.953125 32.90625 
Q 89.5 27.546875 89.5 18.40625 
Q 89.5 9.28125 84.9375 3.921875 
Q 80.375 -1.421875 72.703125 -1.421875 
Q 64.890625 -1.421875 60.34375 3.921875 
Q 55.8125 9.28125 55.8125 18.40625 
Q 55.8125 27.59375 60.375 32.9375 
Q 64.9375 38.28125 72.703125 38.28125 
z
M 22.3125 68.015625 
Q 18.109375 68.015625 15.6875 64.375 
Q 13.28125 60.75 13.28125 54.390625 
Q 13.28125 47.953125 15.671875 44.328125 
Q 18.0625 40.71875 22.3125 40.71875 
Q 26.5625 40.71875 28.96875 44.328125 
Q 31.390625 47.953125 31.390625 54.390625 
Q 31.390625 60.6875 28.953125 64.34375 
Q 26.515625 68.015625 22.3125 68.015625 
z
M 66.40625 74.21875 
L 74.21875 74.21875 
L 28.609375 -1.421875 
L 20.796875 -1.421875 
z
M 22.3125 74.21875 
Q 30.03125 74.21875 34.609375 68.875 
Q 39.203125 63.53125 39.203125 54.390625 
Q 39.203125 45.171875 34.640625 39.84375 
Q 30.078125 34.515625 22.3125 34.515625 
Q 14.546875 34.515625 10.03125 39.859375 
Q 5.515625 45.21875 5.515625 54.390625 
Q 5.515625 63.484375 10.046875 68.84375 
Q 14.59375 74.21875 22.3125 74.21875 
z
" id="DejaVuSans-37"/>
     </defs>
     <g transform="translate(218 254.301875)scale(0.2 -0.2)">
      <use xlink:href="#DejaVuSans-57"/>
      <use x="63.623047" xlink:href="#DejaVuSans-53"/>
      <use x="127.246094" xlink:href="#DejaVuSans-37"/>
      <use x="222.265625" xlink:href="#DejaVuSans-32"/>
      <use x="254.052734" xlink:href="#DejaVuSans-67"/>
      <use x="323.876953" xlink:href="#DejaVuSans-73"/>
     </g>
    </g>
   </g>
  </g>
 </g>
 <defs>
  <clipPath id="pefdbb78800">
   <rect height="652.32" width="892.8" x="144" y="103.68"/>
  </clipPath>
 </defs>
</svg>
