<?xml version="1.0" encoding="utf-8" standalone="no"?>
<!DOCTYPE svg PUBLIC "-//W3C//DTD SVG 1.1//EN"
  "http://www.w3.org/Graphics/SVG/1.1/DTD/svg11.dtd">
<!-- Created with matplotlib (https://matplotlib.org/) -->
<svg height="2880pt" version="1.1" viewBox="0 0 1152 2880" width="1152pt" xmlns="http://www.w3.org/2000/svg" xmlns:xlink="http://www.w3.org/1999/xlink">
 <defs>
  <style type="text/css">
*{stroke-linecap:butt;stroke-linejoin:round;}
  </style>
 </defs>
 <g id="figure_1">
  <g id="patch_1">
   <path d="M 0 2880 
L 1152 2880 
L 1152 0 
L 0 0 
z
" style="fill:#ffffff;"/>
  </g>
  <g id="axes_1">
   <g id="patch_2">
    <path d="M 144 2520 
L 1036.8 2520 
L 1036.8 345.6 
L 144 345.6 
z
" style="fill:#ffffff;"/>
   </g>
   <g id="PolyCollection_1">
    <defs>
     <path d="M 184.581818 -458.836364 
L 184.581818 -458.836364 
L 189.32823 -458.836364 
L 194.074641 -458.836364 
L 198.821053 -458.836364 
L 203.567464 -458.836364 
L 208.313876 -458.836364 
L 213.060287 -458.836364 
L 217.806699 -458.836364 
L 222.55311 -458.836364 
L 227.299522 -458.836364 
L 232.045933 -458.836364 
L 236.792344 -458.836364 
L 241.538756 -458.836364 
L 246.285167 -458.836364 
L 251.031579 -458.836364 
L 255.77799 -458.836364 
L 260.524402 -458.836364 
L 265.270813 -458.836364 
L 270.017225 -458.836364 
L 274.763636 -458.836364 
L 279.510048 -458.836364 
L 284.256459 -458.836364 
L 289.002871 -458.836364 
L 293.749282 -458.836364 
L 298.495694 -458.836364 
L 303.242105 -458.836364 
L 307.988517 -458.836364 
L 312.734928 -458.836364 
L 317.48134 -458.836364 
L 322.227751 -458.836364 
L 326.974163 -458.836364 
L 331.720574 -458.836364 
L 336.466986 -458.836364 
L 341.213397 -458.836364 
L 345.959809 -458.836364 
L 350.70622 -458.836364 
L 355.452632 -458.836364 
L 360.199043 -458.836364 
L 364.945455 -458.836364 
L 369.691866 -458.836364 
L 374.438278 -458.836364 
L 379.184689 -461.337906 
L 383.9311 -463.839448 
L 388.677512 -463.839448 
L 393.423923 -463.839448 
L 398.170335 -463.839448 
L 402.916746 -463.839448 
L 407.663158 -463.839448 
L 412.409569 -458.836364 
L 417.155981 -458.836364 
L 421.902392 -458.836364 
L 426.648804 -458.836364 
L 431.395215 -458.836364 
L 436.141627 -458.836364 
L 440.888038 -458.836364 
L 445.63445 -458.836364 
L 450.380861 -458.836364 
L 455.127273 -458.836364 
L 459.873684 -458.836364 
L 464.620096 -458.836364 
L 469.366507 -458.836364 
L 474.112919 -458.836364 
L 478.85933 -458.836364 
L 483.605742 -458.836364 
L 488.352153 -458.836364 
L 493.098565 -458.836364 
L 497.844976 -458.836364 
L 502.591388 -458.836364 
L 507.337799 -458.836364 
L 512.084211 -458.836364 
L 516.830622 -458.836364 
L 521.577033 -458.836364 
L 526.323445 -458.836364 
L 531.069856 -458.836364 
L 535.816268 -458.836364 
L 540.562679 -458.836364 
L 545.309091 -458.836364 
L 550.055502 -458.836364 
L 554.801914 -458.836364 
L 559.548325 -458.836364 
L 564.294737 -458.836364 
L 569.041148 -458.836364 
L 573.78756 -458.836364 
L 578.533971 -458.836364 
L 583.280383 -458.836364 
L 588.026794 -458.836364 
L 592.773206 -458.836364 
L 597.519617 -458.836364 
L 602.266029 -458.836364 
L 607.01244 -458.836364 
L 611.758852 -458.836364 
L 616.505263 -458.836364 
L 621.251675 -458.836364 
L 625.998086 -458.836364 
L 630.744498 -458.836364 
L 635.490909 -458.836364 
L 640.237321 -458.836364 
L 644.983732 -458.836364 
L 649.730144 -458.836364 
L 654.476555 -458.836364 
L 659.222967 -458.836364 
L 663.969378 -458.836364 
L 668.715789 -458.836364 
L 673.462201 -458.836364 
L 678.208612 -458.836364 
L 682.955024 -458.836364 
L 687.701435 -458.836364 
L 692.447847 -458.836364 
L 697.194258 -458.836364 
L 701.94067 -458.836364 
L 706.687081 -458.836364 
L 711.433493 -458.836364 
L 716.179904 -458.836364 
L 720.926316 -458.836364 
L 725.672727 -458.836364 
L 735.16555 -458.836364 
L 739.911962 -458.836364 
L 744.658373 -458.836364 
L 758.897608 -458.836364 
L 763.644019 -458.836364 
L 768.390431 -458.836364 
L 773.136842 -458.836364 
L 782.629665 -458.836364 
L 792.122488 -458.836364 
L 796.8689 -458.836364 
L 801.615311 -458.836364 
L 815.854545 -458.836364 
L 825.347368 -458.836364 
L 853.825837 -458.836364 
L 872.811483 -458.836364 
L 996.218182 -458.836364 
L 996.218182 -463.839448 
L 996.218182 -463.839448 
L 872.811483 -463.839448 
L 853.825837 -463.839448 
L 825.347368 -463.839448 
L 815.854545 -463.839448 
L 801.615311 -463.839448 
L 796.8689 -463.839448 
L 792.122488 -463.839448 
L 782.629665 -463.839448 
L 773.136842 -463.839448 
L 768.390431 -468.842533 
L 763.644019 -468.842533 
L 758.897608 -468.842533 
L 744.658373 -468.842533 
L 739.911962 -468.842533 
L 735.16555 -468.842533 
L 725.672727 -468.842533 
L 720.926316 -468.842533 
L 716.179904 -468.842533 
L 711.433493 -468.842533 
L 706.687081 -468.842533 
L 701.94067 -468.842533 
L 697.194258 -468.842533 
L 692.447847 -468.842533 
L 687.701435 -468.842533 
L 682.955024 -468.842533 
L 678.208612 -468.842533 
L 673.462201 -468.842533 
L 668.715789 -468.842533 
L 663.969378 -468.842533 
L 659.222967 -468.842533 
L 654.476555 -468.842533 
L 649.730144 -473.845618 
L 644.983732 -473.845618 
L 640.237321 -473.845618 
L 635.490909 -478.848703 
L 630.744498 -478.848703 
L 625.998086 -483.851787 
L 621.251675 -483.851787 
L 616.505263 -483.851787 
L 611.758852 -483.851787 
L 607.01244 -478.848703 
L 602.266029 -478.848703 
L 597.519617 -478.848703 
L 592.773206 -478.848703 
L 588.026794 -478.848703 
L 583.280383 -478.848703 
L 578.533971 -478.848703 
L 573.78756 -478.848703 
L 569.041148 -480.516398 
L 564.294737 -480.516398 
L 559.548325 -480.516398 
L 554.801914 -483.851787 
L 550.055502 -483.851787 
L 545.309091 -483.851787 
L 540.562679 -488.854872 
L 535.816268 -488.854872 
L 531.069856 -488.854872 
L 526.323445 -488.854872 
L 521.577033 -488.854872 
L 516.830622 -493.857957 
L 512.084211 -492.190262 
L 507.337799 -488.854872 
L 502.591388 -493.857957 
L 497.844976 -493.857957 
L 493.098565 -500.862276 
L 488.352153 -503.864127 
L 483.605742 -503.864127 
L 478.85933 -500.111813 
L 474.112919 -498.861042 
L 469.366507 -498.861042 
L 464.620096 -498.861042 
L 459.873684 -498.861042 
L 455.127273 -498.861042 
L 450.380861 -496.359499 
L 445.63445 -493.857957 
L 440.888038 -493.857957 
L 436.141627 -493.857957 
L 431.395215 -493.857957 
L 426.648804 -493.857957 
L 421.902392 -489.271796 
L 417.155981 -488.854872 
L 412.409569 -489.271796 
L 407.663158 -490.105643 
L 402.916746 -488.854872 
L 398.170335 -488.854872 
L 393.423923 -492.493479 
L 388.677512 -491.523184 
L 383.9311 -488.854872 
L 379.184689 -488.854872 
L 374.438278 -488.854872 
L 369.691866 -491.209265 
L 364.945455 -493.857957 
L 360.199043 -497.610271 
L 355.452632 -498.861042 
L 350.70622 -498.861042 
L 345.959809 -498.861042 
L 341.213397 -499.124362 
L 336.466986 -491.883055 
L 331.720574 -498.713892 
L 326.974163 -508.867211 
L 322.227751 -508.867211 
L 317.48134 -516.014475 
L 312.734928 -518.873381 
L 307.988517 -522.000309 
L 303.242105 -525.305918 
L 298.495694 -517.714772 
L 293.749282 -497.484046 
L 289.002871 -488.854872 
L 284.256459 -483.243304 
L 279.510048 -483.000199 
L 274.763636 -478.848703 
L 270.017225 -474.695198 
L 265.270813 -477.509849 
L 260.524402 -478.848703 
L 255.77799 -478.848703 
L 251.031579 -478.848703 
L 246.285167 -477.207066 
L 241.538756 -464.278315 
L 236.792344 -460.087135 
L 232.045933 -458.836364 
L 227.299522 -458.836364 
L 222.55311 -458.836364 
L 217.806699 -458.836364 
L 213.060287 -458.836364 
L 208.313876 -458.836364 
L 203.567464 -458.836364 
L 198.821053 -458.836364 
L 194.074641 -458.836364 
L 189.32823 -458.836364 
L 184.581818 -458.836364 
z
" id="mf3ba074a1c" style="stroke:#008000;stroke-opacity:0.3;"/>
    </defs>
    <g clip-path="url(#pedee8baf6c)">
     <use style="fill:#008000;fill-opacity:0.3;stroke:#008000;stroke-opacity:0.3;" x="0" xlink:href="#mf3ba074a1c" y="2880"/>
    </g>
   </g>
   <g id="PolyCollection_2">
    <defs>
     <path d="M 184.581818 -667.443246 
L 184.581818 -620.892805 
L 189.32823 -677.57123 
L 194.074641 -725.897578 
L 198.821053 -770.278391 
L 203.567464 -821.381328 
L 208.313876 -865.811432 
L 213.060287 -875.968556 
L 217.806699 -889.236872 
L 222.55311 -939.946957 
L 227.299522 -983.591732 
L 232.045933 -997.740066 
L 236.792344 -999.377981 
L 241.538756 -1048.712261 
L 246.285167 -1085.472731 
L 251.031579 -1124.246638 
L 255.77799 -1141.604279 
L 260.524402 -1178.495773 
L 265.270813 -1214.018971 
L 270.017225 -1282.873855 
L 274.763636 -1314.363859 
L 279.510048 -1328.840871 
L 284.256459 -1363.968913 
L 289.002871 -1411.22914 
L 293.749282 -1461.508156 
L 298.495694 -1518.429075 
L 303.242105 -1541.936607 
L 307.988517 -1562.965416 
L 312.734928 -1548.427096 
L 317.48134 -1518.01884 
L 322.227751 -1513.577598 
L 326.974163 -1486.870222 
L 331.720574 -1449.923633 
L 336.466986 -1400.667072 
L 341.213397 -1359.15338 
L 345.959809 -1301.0223 
L 350.70622 -1261.998239 
L 355.452632 -1244.583993 
L 360.199043 -1199.29291 
L 364.945455 -1168.02363 
L 369.691866 -1135.407366 
L 374.438278 -1101.732757 
L 379.184689 -1066.711163 
L 383.9311 -1027.648617 
L 388.677512 -986.661807 
L 393.423923 -936.630959 
L 398.170335 -894.104739 
L 402.916746 -872.091166 
L 407.663158 -851.578518 
L 412.409569 -821.059701 
L 417.155981 -801.54767 
L 421.902392 -785.037491 
L 426.648804 -754.018365 
L 431.395215 -721.498314 
L 436.141627 -688.978263 
L 440.888038 -666.464382 
L 445.63445 -646.452043 
L 450.380861 -631.442788 
L 455.127273 -631.442788 
L 459.873684 -622.270466 
L 464.620096 -608.928907 
L 469.366507 -593.919652 
L 474.112919 -573.907313 
L 478.85933 -556.396517 
L 483.605742 -543.888805 
L 488.352153 -543.888805 
L 493.098565 -536.384178 
L 497.844976 -528.87955 
L 502.591388 -528.87955 
L 507.337799 -523.876466 
L 512.084211 -523.876466 
L 516.830622 -523.876466 
L 521.577033 -516.371838 
L 526.323445 -508.867211 
L 531.069856 -508.867211 
L 535.816268 -503.864127 
L 540.562679 -498.861042 
L 545.309091 -496.359499 
L 550.055502 -493.857957 
L 554.801914 -493.857957 
L 559.548325 -488.854872 
L 564.294737 -478.848703 
L 569.041148 -478.848703 
L 573.78756 -478.848703 
L 578.533971 -478.848703 
L 583.280383 -478.848703 
L 588.026794 -478.848703 
L 592.773206 -471.344076 
L 597.519617 -471.344076 
L 602.266029 -471.344076 
L 607.01244 -471.344076 
L 611.758852 -471.344076 
L 616.505263 -468.842533 
L 621.251675 -468.842533 
L 625.998086 -463.839448 
L 630.744498 -463.839448 
L 635.490909 -461.337906 
L 640.237321 -461.337906 
L 644.983732 -461.337906 
L 649.730144 -458.836364 
L 654.476555 -458.836364 
L 659.222967 -458.836364 
L 663.969378 -458.836364 
L 668.715789 -458.836364 
L 673.462201 -458.836364 
L 678.208612 -458.836364 
L 682.955024 -458.836364 
L 687.701435 -458.836364 
L 692.447847 -458.836364 
L 697.194258 -458.836364 
L 701.94067 -458.836364 
L 706.687081 -458.836364 
L 711.433493 -458.836364 
L 716.179904 -458.836364 
L 720.926316 -458.836364 
L 725.672727 -458.836364 
L 735.16555 -458.836364 
L 739.911962 -458.836364 
L 744.658373 -458.836364 
L 758.897608 -458.836364 
L 763.644019 -458.836364 
L 768.390431 -458.836364 
L 773.136842 -458.836364 
L 782.629665 -458.836364 
L 792.122488 -458.836364 
L 796.8689 -458.836364 
L 801.615311 -458.836364 
L 815.854545 -458.836364 
L 825.347368 -458.836364 
L 853.825837 -458.836364 
L 872.811483 -458.836364 
L 996.218182 -458.836364 
L 996.218182 -463.839448 
L 996.218182 -463.839448 
L 872.811483 -463.839448 
L 853.825837 -463.839448 
L 825.347368 -463.839448 
L 815.854545 -463.839448 
L 801.615311 -463.839448 
L 796.8689 -463.839448 
L 792.122488 -463.839448 
L 782.629665 -468.842533 
L 773.136842 -468.842533 
L 768.390431 -468.842533 
L 763.644019 -468.842533 
L 758.897608 -468.842533 
L 744.658373 -468.842533 
L 739.911962 -468.842533 
L 735.16555 -468.842533 
L 725.672727 -481.350245 
L 720.926316 -481.350245 
L 716.179904 -481.350245 
L 711.433493 -481.350245 
L 706.687081 -481.350245 
L 701.94067 -481.350245 
L 697.194258 -481.350245 
L 692.447847 -481.350245 
L 687.701435 -481.350245 
L 682.955024 -481.350245 
L 678.208612 -481.350245 
L 673.462201 -481.350245 
L 668.715789 -481.350245 
L 663.969378 -481.350245 
L 659.222967 -483.851787 
L 654.476555 -493.857957 
L 649.730144 -493.857957 
L 644.983732 -493.857957 
L 640.237321 -498.861042 
L 635.490909 -498.861042 
L 630.744498 -498.861042 
L 625.998086 -506.365669 
L 621.251675 -506.365669 
L 616.505263 -506.365669 
L 611.758852 -506.365669 
L 607.01244 -506.365669 
L 602.266029 -513.870296 
L 597.519617 -513.870296 
L 592.773206 -521.374923 
L 588.026794 -528.87955 
L 583.280383 -528.87955 
L 578.533971 -528.87955 
L 573.78756 -533.882635 
L 569.041148 -533.882635 
L 564.294737 -546.390347 
L 559.548325 -558.898059 
L 554.801914 -563.901144 
L 550.055502 -568.904229 
L 545.309091 -576.408856 
L 540.562679 -585.581178 
L 535.816268 -593.919652 
L 531.069856 -606.927673 
L 526.323445 -623.938161 
L 521.577033 -634.778178 
L 516.830622 -653.95667 
L 512.084211 -662.295144 
L 507.337799 -678.972094 
L 502.591388 -686.476721 
L 497.844976 -698.984433 
L 493.098565 -717.996155 
L 488.352153 -731.504484 
L 483.605742 -739.009111 
L 478.85933 -751.516823 
L 474.112919 -772.154547 
L 469.366507 -796.822535 
L 464.620096 -812.387687 
L 459.873684 -829.064637 
L 455.127273 -864.08623 
L 450.380861 -909.113993 
L 445.63445 -938.131885 
L 440.888038 -961.646383 
L 436.141627 -994.166434 
L 431.395215 -1034.691421 
L 426.648804 -1063.494895 
L 421.902392 -1087.223811 
L 417.155981 -1120.494325 
L 412.409569 -1151.763604 
L 407.663158 -1208.941716 
L 402.916746 -1252.017726 
L 398.170335 -1292.987043 
L 393.423923 -1336.195502 
L 388.677512 -1392.745521 
L 383.9311 -1467.616246 
L 379.184689 -1524.49342 
L 374.438278 -1594.991432 
L 369.691866 -1656.62034 
L 364.945455 -1707.500994 
L 360.199043 -1810.419714 
L 355.452632 -1913.205312 
L 350.70622 -1997.910316 
L 345.959809 -2071.35838 
L 341.213397 -2134.313864 
L 336.466986 -2211.100975 
L 331.720574 -2298.877134 
L 326.974163 -2326.835949 
L 322.227751 -2351.173342 
L 317.48134 -2398.407252 
L 312.734928 -2435.563636 
L 307.988517 -2412.887334 
L 303.242105 -2351.789223 
L 298.495694 -2239.189402 
L 293.749282 -2146.759446 
L 289.002871 -2077.501056 
L 284.256459 -1978.891237 
L 279.510048 -1940.106819 
L 274.763636 -1908.386032 
L 270.017225 -1832.665082 
L 265.270813 -1795.951116 
L 260.524402 -1665.864989 
L 255.77799 -1536.834362 
L 251.031579 -1462.60911 
L 246.285167 -1387.499862 
L 241.538756 -1354.994972 
L 236.792344 -1299.442379 
L 232.045933 -1237.683928 
L 227.299522 -1199.07055 
L 222.55311 -1130.841614 
L 217.806699 -1102.531121 
L 213.060287 -1054.691557 
L 208.313876 -989.845588 
L 203.567464 -956.379978 
L 198.821053 -903.52231 
L 194.074641 -823.704189 
L 189.32823 -756.676254 
L 184.581818 -667.443246 
z
" id="m84fee65975" style="stroke:#0000ff;stroke-opacity:0.1;"/>
    </defs>
    <g clip-path="url(#pedee8baf6c)">
     <use style="fill:#0000ff;fill-opacity:0.1;stroke:#0000ff;stroke-opacity:0.1;" x="0" xlink:href="#m84fee65975" y="2880"/>
    </g>
   </g>
   <g id="PathCollection_1">
    <defs>
     <path d="M 0 3 
C 0.795609 3 1.55874 2.683901 2.12132 2.12132 
C 2.683901 1.55874 3 0.795609 3 0 
C 3 -0.795609 2.683901 -1.55874 2.12132 -2.12132 
C 1.55874 -2.683901 0.795609 -3 0 -3 
C -0.795609 -3 -1.55874 -2.683901 -2.12132 -2.12132 
C -2.683901 -1.55874 -3 -0.795609 -3 0 
C -3 0.795609 -2.683901 1.55874 -2.12132 2.12132 
C -1.55874 2.683901 -0.795609 3 0 3 
z
" id="m8ff83023f6" style="stroke:#ff0000;"/>
    </defs>
    <g clip-path="url(#pedee8baf6c)">
     <use style="fill:#ff0000;stroke:#ff0000;" x="184.581818" xlink:href="#m8ff83023f6" y="2421.163636"/>
     <use style="fill:#ff0000;stroke:#ff0000;" x="189.32823" xlink:href="#m8ff83023f6" y="2421.163636"/>
     <use style="fill:#ff0000;stroke:#ff0000;" x="194.074641" xlink:href="#m8ff83023f6" y="2421.163636"/>
     <use style="fill:#ff0000;stroke:#ff0000;" x="198.821053" xlink:href="#m8ff83023f6" y="2421.163636"/>
     <use style="fill:#ff0000;stroke:#ff0000;" x="203.567464" xlink:href="#m8ff83023f6" y="2421.163636"/>
     <use style="fill:#ff0000;stroke:#ff0000;" x="208.313876" xlink:href="#m8ff83023f6" y="2421.163636"/>
     <use style="fill:#ff0000;stroke:#ff0000;" x="213.060287" xlink:href="#m8ff83023f6" y="2421.163636"/>
     <use style="fill:#ff0000;stroke:#ff0000;" x="217.806699" xlink:href="#m8ff83023f6" y="2421.163636"/>
     <use style="fill:#ff0000;stroke:#ff0000;" x="222.55311" xlink:href="#m8ff83023f6" y="2421.163636"/>
     <use style="fill:#ff0000;stroke:#ff0000;" x="227.299522" xlink:href="#m8ff83023f6" y="2421.163636"/>
     <use style="fill:#ff0000;stroke:#ff0000;" x="232.045933" xlink:href="#m8ff83023f6" y="2421.163636"/>
     <use style="fill:#ff0000;stroke:#ff0000;" x="236.792344" xlink:href="#m8ff83023f6" y="2421.163636"/>
     <use style="fill:#ff0000;stroke:#ff0000;" x="241.538756" xlink:href="#m8ff83023f6" y="2421.163636"/>
     <use style="fill:#ff0000;stroke:#ff0000;" x="246.285167" xlink:href="#m8ff83023f6" y="2421.163636"/>
     <use style="fill:#ff0000;stroke:#ff0000;" x="251.031579" xlink:href="#m8ff83023f6" y="2421.163636"/>
     <use style="fill:#ff0000;stroke:#ff0000;" x="255.77799" xlink:href="#m8ff83023f6" y="2421.163636"/>
     <use style="fill:#ff0000;stroke:#ff0000;" x="260.524402" xlink:href="#m8ff83023f6" y="2421.163636"/>
     <use style="fill:#ff0000;stroke:#ff0000;" x="265.270813" xlink:href="#m8ff83023f6" y="2421.163636"/>
     <use style="fill:#ff0000;stroke:#ff0000;" x="270.017225" xlink:href="#m8ff83023f6" y="2421.163636"/>
     <use style="fill:#ff0000;stroke:#ff0000;" x="274.763636" xlink:href="#m8ff83023f6" y="2416.160552"/>
     <use style="fill:#ff0000;stroke:#ff0000;" x="279.510048" xlink:href="#m8ff83023f6" y="2416.160552"/>
     <use style="fill:#ff0000;stroke:#ff0000;" x="284.256459" xlink:href="#m8ff83023f6" y="2416.160552"/>
     <use style="fill:#ff0000;stroke:#ff0000;" x="289.002871" xlink:href="#m8ff83023f6" y="2421.163636"/>
     <use style="fill:#ff0000;stroke:#ff0000;" x="293.749282" xlink:href="#m8ff83023f6" y="2411.157467"/>
     <use style="fill:#ff0000;stroke:#ff0000;" x="298.495694" xlink:href="#m8ff83023f6" y="2421.163636"/>
     <use style="fill:#ff0000;stroke:#ff0000;" x="303.242105" xlink:href="#m8ff83023f6" y="2391.145128"/>
     <use style="fill:#ff0000;stroke:#ff0000;" x="307.988517" xlink:href="#m8ff83023f6" y="2416.160552"/>
     <use style="fill:#ff0000;stroke:#ff0000;" x="312.734928" xlink:href="#m8ff83023f6" y="2421.163636"/>
     <use style="fill:#ff0000;stroke:#ff0000;" x="317.48134" xlink:href="#m8ff83023f6" y="2361.126619"/>
     <use style="fill:#ff0000;stroke:#ff0000;" x="322.227751" xlink:href="#m8ff83023f6" y="2406.154382"/>
     <use style="fill:#ff0000;stroke:#ff0000;" x="326.974163" xlink:href="#m8ff83023f6" y="2416.160552"/>
     <use style="fill:#ff0000;stroke:#ff0000;" x="331.720574" xlink:href="#m8ff83023f6" y="2371.132789"/>
     <use style="fill:#ff0000;stroke:#ff0000;" x="336.466986" xlink:href="#m8ff83023f6" y="2411.157467"/>
     <use style="fill:#ff0000;stroke:#ff0000;" x="341.213397" xlink:href="#m8ff83023f6" y="2401.151297"/>
     <use style="fill:#ff0000;stroke:#ff0000;" x="345.959809" xlink:href="#m8ff83023f6" y="2411.157467"/>
     <use style="fill:#ff0000;stroke:#ff0000;" x="350.70622" xlink:href="#m8ff83023f6" y="2411.157467"/>
     <use style="fill:#ff0000;stroke:#ff0000;" x="355.452632" xlink:href="#m8ff83023f6" y="2411.157467"/>
     <use style="fill:#ff0000;stroke:#ff0000;" x="360.199043" xlink:href="#m8ff83023f6" y="2416.160552"/>
     <use style="fill:#ff0000;stroke:#ff0000;" x="364.945455" xlink:href="#m8ff83023f6" y="2416.160552"/>
     <use style="fill:#ff0000;stroke:#ff0000;" x="369.691866" xlink:href="#m8ff83023f6" y="2406.154382"/>
     <use style="fill:#ff0000;stroke:#ff0000;" x="374.438278" xlink:href="#m8ff83023f6" y="2416.160552"/>
     <use style="fill:#ff0000;stroke:#ff0000;" x="379.184689" xlink:href="#m8ff83023f6" y="2411.157467"/>
     <use style="fill:#ff0000;stroke:#ff0000;" x="383.9311" xlink:href="#m8ff83023f6" y="2411.157467"/>
     <use style="fill:#ff0000;stroke:#ff0000;" x="388.677512" xlink:href="#m8ff83023f6" y="2421.163636"/>
     <use style="fill:#ff0000;stroke:#ff0000;" x="393.423923" xlink:href="#m8ff83023f6" y="2421.163636"/>
     <use style="fill:#ff0000;stroke:#ff0000;" x="398.170335" xlink:href="#m8ff83023f6" y="2401.151297"/>
    </g>
   </g>
   <g id="matplotlib.axis_1">
    <g id="xtick_1">
     <g id="line2d_1">
      <path clip-path="url(#pedee8baf6c)" d="M 184.581818 2520 
L 184.581818 345.6 
" style="fill:none;stroke:#b0b0b0;stroke-linecap:square;stroke-width:0.8;"/>
     </g>
     <g id="line2d_2">
      <defs>
       <path d="M 0 0 
L 0 3.5 
" id="m0d9390dd3d" style="stroke:#000000;stroke-width:0.8;"/>
      </defs>
      <g>
       <use style="stroke:#000000;stroke-width:0.8;" x="184.581818" xlink:href="#m0d9390dd3d" y="2520"/>
      </g>
     </g>
     <g id="text_1">
      <!-- 2020-04 -->
      <defs>
       <path d="M 19.1875 8.296875 
L 53.609375 8.296875 
L 53.609375 0 
L 7.328125 0 
L 7.328125 8.296875 
Q 12.9375 14.109375 22.625 23.890625 
Q 32.328125 33.6875 34.8125 36.53125 
Q 39.546875 41.84375 41.421875 45.53125 
Q 43.3125 49.21875 43.3125 52.78125 
Q 43.3125 58.59375 39.234375 62.25 
Q 35.15625 65.921875 28.609375 65.921875 
Q 23.96875 65.921875 18.8125 64.3125 
Q 13.671875 62.703125 7.8125 59.421875 
L 7.8125 69.390625 
Q 13.765625 71.78125 18.9375 73 
Q 24.125 74.21875 28.421875 74.21875 
Q 39.75 74.21875 46.484375 68.546875 
Q 53.21875 62.890625 53.21875 53.421875 
Q 53.21875 48.921875 51.53125 44.890625 
Q 49.859375 40.875 45.40625 35.40625 
Q 44.1875 33.984375 37.640625 27.21875 
Q 31.109375 20.453125 19.1875 8.296875 
z
" id="DejaVuSans-50"/>
       <path d="M 31.78125 66.40625 
Q 24.171875 66.40625 20.328125 58.90625 
Q 16.5 51.421875 16.5 36.375 
Q 16.5 21.390625 20.328125 13.890625 
Q 24.171875 6.390625 31.78125 6.390625 
Q 39.453125 6.390625 43.28125 13.890625 
Q 47.125 21.390625 47.125 36.375 
Q 47.125 51.421875 43.28125 58.90625 
Q 39.453125 66.40625 31.78125 66.40625 
z
M 31.78125 74.21875 
Q 44.046875 74.21875 50.515625 64.515625 
Q 56.984375 54.828125 56.984375 36.375 
Q 56.984375 17.96875 50.515625 8.265625 
Q 44.046875 -1.421875 31.78125 -1.421875 
Q 19.53125 -1.421875 13.0625 8.265625 
Q 6.59375 17.96875 6.59375 36.375 
Q 6.59375 54.828125 13.0625 64.515625 
Q 19.53125 74.21875 31.78125 74.21875 
z
" id="DejaVuSans-48"/>
       <path d="M 4.890625 31.390625 
L 31.203125 31.390625 
L 31.203125 23.390625 
L 4.890625 23.390625 
z
" id="DejaVuSans-45"/>
       <path d="M 37.796875 64.3125 
L 12.890625 25.390625 
L 37.796875 25.390625 
z
M 35.203125 72.90625 
L 47.609375 72.90625 
L 47.609375 25.390625 
L 58.015625 25.390625 
L 58.015625 17.1875 
L 47.609375 17.1875 
L 47.609375 0 
L 37.796875 0 
L 37.796875 17.1875 
L 4.890625 17.1875 
L 4.890625 26.703125 
z
" id="DejaVuSans-52"/>
      </defs>
      <g transform="translate(142.799006 2542.196875)scale(0.2 -0.2)">
       <use xlink:href="#DejaVuSans-50"/>
       <use x="63.623047" xlink:href="#DejaVuSans-48"/>
       <use x="127.246094" xlink:href="#DejaVuSans-50"/>
       <use x="190.869141" xlink:href="#DejaVuSans-48"/>
       <use x="254.492188" xlink:href="#DejaVuSans-45"/>
       <use x="290.576172" xlink:href="#DejaVuSans-48"/>
       <use x="354.199219" xlink:href="#DejaVuSans-52"/>
      </g>
     </g>
    </g>
    <g id="xtick_2">
     <g id="line2d_3">
      <path clip-path="url(#pedee8baf6c)" d="M 326.974163 2520 
L 326.974163 345.6 
" style="fill:none;stroke:#b0b0b0;stroke-linecap:square;stroke-width:0.8;"/>
     </g>
     <g id="line2d_4">
      <g>
       <use style="stroke:#000000;stroke-width:0.8;" x="326.974163" xlink:href="#m0d9390dd3d" y="2520"/>
      </g>
     </g>
     <g id="text_2">
      <!-- 2020-05 -->
      <defs>
       <path d="M 10.796875 72.90625 
L 49.515625 72.90625 
L 49.515625 64.59375 
L 19.828125 64.59375 
L 19.828125 46.734375 
Q 21.96875 47.46875 24.109375 47.828125 
Q 26.265625 48.1875 28.421875 48.1875 
Q 40.625 48.1875 47.75 41.5 
Q 54.890625 34.8125 54.890625 23.390625 
Q 54.890625 11.625 47.5625 5.09375 
Q 40.234375 -1.421875 26.90625 -1.421875 
Q 22.3125 -1.421875 17.546875 -0.640625 
Q 12.796875 0.140625 7.71875 1.703125 
L 7.71875 11.625 
Q 12.109375 9.234375 16.796875 8.0625 
Q 21.484375 6.890625 26.703125 6.890625 
Q 35.15625 6.890625 40.078125 11.328125 
Q 45.015625 15.765625 45.015625 23.390625 
Q 45.015625 31 40.078125 35.4375 
Q 35.15625 39.890625 26.703125 39.890625 
Q 22.75 39.890625 18.8125 39.015625 
Q 14.890625 38.140625 10.796875 36.28125 
z
" id="DejaVuSans-53"/>
      </defs>
      <g transform="translate(285.19135 2542.196875)scale(0.2 -0.2)">
       <use xlink:href="#DejaVuSans-50"/>
       <use x="63.623047" xlink:href="#DejaVuSans-48"/>
       <use x="127.246094" xlink:href="#DejaVuSans-50"/>
       <use x="190.869141" xlink:href="#DejaVuSans-48"/>
       <use x="254.492188" xlink:href="#DejaVuSans-45"/>
       <use x="290.576172" xlink:href="#DejaVuSans-48"/>
       <use x="354.199219" xlink:href="#DejaVuSans-53"/>
      </g>
     </g>
    </g>
    <g id="xtick_3">
     <g id="line2d_5">
      <path clip-path="url(#pedee8baf6c)" d="M 474.112919 2520 
L 474.112919 345.6 
" style="fill:none;stroke:#b0b0b0;stroke-linecap:square;stroke-width:0.8;"/>
     </g>
     <g id="line2d_6">
      <g>
       <use style="stroke:#000000;stroke-width:0.8;" x="474.112919" xlink:href="#m0d9390dd3d" y="2520"/>
      </g>
     </g>
     <g id="text_3">
      <!-- 2020-06 -->
      <defs>
       <path d="M 33.015625 40.375 
Q 26.375 40.375 22.484375 35.828125 
Q 18.609375 31.296875 18.609375 23.390625 
Q 18.609375 15.53125 22.484375 10.953125 
Q 26.375 6.390625 33.015625 6.390625 
Q 39.65625 6.390625 43.53125 10.953125 
Q 47.40625 15.53125 47.40625 23.390625 
Q 47.40625 31.296875 43.53125 35.828125 
Q 39.65625 40.375 33.015625 40.375 
z
M 52.59375 71.296875 
L 52.59375 62.3125 
Q 48.875 64.0625 45.09375 64.984375 
Q 41.3125 65.921875 37.59375 65.921875 
Q 27.828125 65.921875 22.671875 59.328125 
Q 17.53125 52.734375 16.796875 39.40625 
Q 19.671875 43.65625 24.015625 45.921875 
Q 28.375 48.1875 33.59375 48.1875 
Q 44.578125 48.1875 50.953125 41.515625 
Q 57.328125 34.859375 57.328125 23.390625 
Q 57.328125 12.15625 50.6875 5.359375 
Q 44.046875 -1.421875 33.015625 -1.421875 
Q 20.359375 -1.421875 13.671875 8.265625 
Q 6.984375 17.96875 6.984375 36.375 
Q 6.984375 53.65625 15.1875 63.9375 
Q 23.390625 74.21875 37.203125 74.21875 
Q 40.921875 74.21875 44.703125 73.484375 
Q 48.484375 72.75 52.59375 71.296875 
z
" id="DejaVuSans-54"/>
      </defs>
      <g transform="translate(432.330106 2542.196875)scale(0.2 -0.2)">
       <use xlink:href="#DejaVuSans-50"/>
       <use x="63.623047" xlink:href="#DejaVuSans-48"/>
       <use x="127.246094" xlink:href="#DejaVuSans-50"/>
       <use x="190.869141" xlink:href="#DejaVuSans-48"/>
       <use x="254.492188" xlink:href="#DejaVuSans-45"/>
       <use x="290.576172" xlink:href="#DejaVuSans-48"/>
       <use x="354.199219" xlink:href="#DejaVuSans-54"/>
      </g>
     </g>
    </g>
    <g id="xtick_4">
     <g id="line2d_7">
      <path clip-path="url(#pedee8baf6c)" d="M 616.505263 2520 
L 616.505263 345.6 
" style="fill:none;stroke:#b0b0b0;stroke-linecap:square;stroke-width:0.8;"/>
     </g>
     <g id="line2d_8">
      <g>
       <use style="stroke:#000000;stroke-width:0.8;" x="616.505263" xlink:href="#m0d9390dd3d" y="2520"/>
      </g>
     </g>
     <g id="text_4">
      <!-- 2020-07 -->
      <defs>
       <path d="M 8.203125 72.90625 
L 55.078125 72.90625 
L 55.078125 68.703125 
L 28.609375 0 
L 18.3125 0 
L 43.21875 64.59375 
L 8.203125 64.59375 
z
" id="DejaVuSans-55"/>
      </defs>
      <g transform="translate(574.722451 2542.196875)scale(0.2 -0.2)">
       <use xlink:href="#DejaVuSans-50"/>
       <use x="63.623047" xlink:href="#DejaVuSans-48"/>
       <use x="127.246094" xlink:href="#DejaVuSans-50"/>
       <use x="190.869141" xlink:href="#DejaVuSans-48"/>
       <use x="254.492188" xlink:href="#DejaVuSans-45"/>
       <use x="290.576172" xlink:href="#DejaVuSans-48"/>
       <use x="354.199219" xlink:href="#DejaVuSans-55"/>
      </g>
     </g>
    </g>
    <g id="xtick_5">
     <g id="line2d_9">
      <path clip-path="url(#pedee8baf6c)" d="M 763.644019 2520 
L 763.644019 345.6 
" style="fill:none;stroke:#b0b0b0;stroke-linecap:square;stroke-width:0.8;"/>
     </g>
     <g id="line2d_10">
      <g>
       <use style="stroke:#000000;stroke-width:0.8;" x="763.644019" xlink:href="#m0d9390dd3d" y="2520"/>
      </g>
     </g>
     <g id="text_5">
      <!-- 2020-08 -->
      <defs>
       <path d="M 31.78125 34.625 
Q 24.75 34.625 20.71875 30.859375 
Q 16.703125 27.09375 16.703125 20.515625 
Q 16.703125 13.921875 20.71875 10.15625 
Q 24.75 6.390625 31.78125 6.390625 
Q 38.8125 6.390625 42.859375 10.171875 
Q 46.921875 13.96875 46.921875 20.515625 
Q 46.921875 27.09375 42.890625 30.859375 
Q 38.875 34.625 31.78125 34.625 
z
M 21.921875 38.8125 
Q 15.578125 40.375 12.03125 44.71875 
Q 8.5 49.078125 8.5 55.328125 
Q 8.5 64.0625 14.71875 69.140625 
Q 20.953125 74.21875 31.78125 74.21875 
Q 42.671875 74.21875 48.875 69.140625 
Q 55.078125 64.0625 55.078125 55.328125 
Q 55.078125 49.078125 51.53125 44.71875 
Q 48 40.375 41.703125 38.8125 
Q 48.828125 37.15625 52.796875 32.3125 
Q 56.78125 27.484375 56.78125 20.515625 
Q 56.78125 9.90625 50.3125 4.234375 
Q 43.84375 -1.421875 31.78125 -1.421875 
Q 19.734375 -1.421875 13.25 4.234375 
Q 6.78125 9.90625 6.78125 20.515625 
Q 6.78125 27.484375 10.78125 32.3125 
Q 14.796875 37.15625 21.921875 38.8125 
z
M 18.3125 54.390625 
Q 18.3125 48.734375 21.84375 45.5625 
Q 25.390625 42.390625 31.78125 42.390625 
Q 38.140625 42.390625 41.71875 45.5625 
Q 45.3125 48.734375 45.3125 54.390625 
Q 45.3125 60.0625 41.71875 63.234375 
Q 38.140625 66.40625 31.78125 66.40625 
Q 25.390625 66.40625 21.84375 63.234375 
Q 18.3125 60.0625 18.3125 54.390625 
z
" id="DejaVuSans-56"/>
      </defs>
      <g transform="translate(721.861207 2542.196875)scale(0.2 -0.2)">
       <use xlink:href="#DejaVuSans-50"/>
       <use x="63.623047" xlink:href="#DejaVuSans-48"/>
       <use x="127.246094" xlink:href="#DejaVuSans-50"/>
       <use x="190.869141" xlink:href="#DejaVuSans-48"/>
       <use x="254.492188" xlink:href="#DejaVuSans-45"/>
       <use x="290.576172" xlink:href="#DejaVuSans-48"/>
       <use x="354.199219" xlink:href="#DejaVuSans-56"/>
      </g>
     </g>
    </g>
    <g id="xtick_6">
     <g id="line2d_11">
      <path clip-path="url(#pedee8baf6c)" d="M 910.782775 2520 
L 910.782775 345.6 
" style="fill:none;stroke:#b0b0b0;stroke-linecap:square;stroke-width:0.8;"/>
     </g>
     <g id="line2d_12">
      <g>
       <use style="stroke:#000000;stroke-width:0.8;" x="910.782775" xlink:href="#m0d9390dd3d" y="2520"/>
      </g>
     </g>
     <g id="text_6">
      <!-- 2020-09 -->
      <defs>
       <path d="M 10.984375 1.515625 
L 10.984375 10.5 
Q 14.703125 8.734375 18.5 7.8125 
Q 22.3125 6.890625 25.984375 6.890625 
Q 35.75 6.890625 40.890625 13.453125 
Q 46.046875 20.015625 46.78125 33.40625 
Q 43.953125 29.203125 39.59375 26.953125 
Q 35.25 24.703125 29.984375 24.703125 
Q 19.046875 24.703125 12.671875 31.3125 
Q 6.296875 37.9375 6.296875 49.421875 
Q 6.296875 60.640625 12.9375 67.421875 
Q 19.578125 74.21875 30.609375 74.21875 
Q 43.265625 74.21875 49.921875 64.515625 
Q 56.59375 54.828125 56.59375 36.375 
Q 56.59375 19.140625 48.40625 8.859375 
Q 40.234375 -1.421875 26.421875 -1.421875 
Q 22.703125 -1.421875 18.890625 -0.6875 
Q 15.09375 0.046875 10.984375 1.515625 
z
M 30.609375 32.421875 
Q 37.25 32.421875 41.125 36.953125 
Q 45.015625 41.5 45.015625 49.421875 
Q 45.015625 57.28125 41.125 61.84375 
Q 37.25 66.40625 30.609375 66.40625 
Q 23.96875 66.40625 20.09375 61.84375 
Q 16.21875 57.28125 16.21875 49.421875 
Q 16.21875 41.5 20.09375 36.953125 
Q 23.96875 32.421875 30.609375 32.421875 
z
" id="DejaVuSans-57"/>
      </defs>
      <g transform="translate(868.999963 2542.196875)scale(0.2 -0.2)">
       <use xlink:href="#DejaVuSans-50"/>
       <use x="63.623047" xlink:href="#DejaVuSans-48"/>
       <use x="127.246094" xlink:href="#DejaVuSans-50"/>
       <use x="190.869141" xlink:href="#DejaVuSans-48"/>
       <use x="254.492188" xlink:href="#DejaVuSans-45"/>
       <use x="290.576172" xlink:href="#DejaVuSans-48"/>
       <use x="354.199219" xlink:href="#DejaVuSans-57"/>
      </g>
     </g>
    </g>
   </g>
   <g id="matplotlib.axis_2">
    <g id="ytick_1">
     <g id="line2d_13">
      <path clip-path="url(#pedee8baf6c)" d="M 144 2421.163636 
L 1036.8 2421.163636 
" style="fill:none;stroke:#b0b0b0;stroke-linecap:square;stroke-width:0.8;"/>
     </g>
     <g id="line2d_14">
      <defs>
       <path d="M 0 0 
L -3.5 0 
" id="m58f09ea596" style="stroke:#000000;stroke-width:0.8;"/>
      </defs>
      <g>
       <use style="stroke:#000000;stroke-width:0.8;" x="144" xlink:href="#m58f09ea596" y="2421.163636"/>
      </g>
     </g>
     <g id="text_7">
      <!-- 0.00 -->
      <defs>
       <path d="M 10.6875 12.40625 
L 21 12.40625 
L 21 0 
L 10.6875 0 
z
" id="DejaVuSans-46"/>
      </defs>
      <g transform="translate(92.46875 2428.762074)scale(0.2 -0.2)">
       <use xlink:href="#DejaVuSans-48"/>
       <use x="63.623047" xlink:href="#DejaVuSans-46"/>
       <use x="95.410156" xlink:href="#DejaVuSans-48"/>
       <use x="159.033203" xlink:href="#DejaVuSans-48"/>
      </g>
     </g>
    </g>
    <g id="ytick_2">
     <g id="line2d_15">
      <path clip-path="url(#pedee8baf6c)" d="M 144 2158.138962 
L 1036.8 2158.138962 
" style="fill:none;stroke:#b0b0b0;stroke-linecap:square;stroke-width:0.8;"/>
     </g>
     <g id="line2d_16">
      <g>
       <use style="stroke:#000000;stroke-width:0.8;" x="144" xlink:href="#m58f09ea596" y="2158.138962"/>
      </g>
     </g>
     <g id="text_8">
      <!-- 0.25 -->
      <g transform="translate(92.46875 2165.7374)scale(0.2 -0.2)">
       <use xlink:href="#DejaVuSans-48"/>
       <use x="63.623047" xlink:href="#DejaVuSans-46"/>
       <use x="95.410156" xlink:href="#DejaVuSans-50"/>
       <use x="159.033203" xlink:href="#DejaVuSans-53"/>
      </g>
     </g>
    </g>
    <g id="ytick_3">
     <g id="line2d_17">
      <path clip-path="url(#pedee8baf6c)" d="M 144 1895.114288 
L 1036.8 1895.114288 
" style="fill:none;stroke:#b0b0b0;stroke-linecap:square;stroke-width:0.8;"/>
     </g>
     <g id="line2d_18">
      <g>
       <use style="stroke:#000000;stroke-width:0.8;" x="144" xlink:href="#m58f09ea596" y="1895.114288"/>
      </g>
     </g>
     <g id="text_9">
      <!-- 0.50 -->
      <g transform="translate(92.46875 1902.712726)scale(0.2 -0.2)">
       <use xlink:href="#DejaVuSans-48"/>
       <use x="63.623047" xlink:href="#DejaVuSans-46"/>
       <use x="95.410156" xlink:href="#DejaVuSans-53"/>
       <use x="159.033203" xlink:href="#DejaVuSans-48"/>
      </g>
     </g>
    </g>
    <g id="ytick_4">
     <g id="line2d_19">
      <path clip-path="url(#pedee8baf6c)" d="M 144 1632.089614 
L 1036.8 1632.089614 
" style="fill:none;stroke:#b0b0b0;stroke-linecap:square;stroke-width:0.8;"/>
     </g>
     <g id="line2d_20">
      <g>
       <use style="stroke:#000000;stroke-width:0.8;" x="144" xlink:href="#m58f09ea596" y="1632.089614"/>
      </g>
     </g>
     <g id="text_10">
      <!-- 0.75 -->
      <g transform="translate(92.46875 1639.688052)scale(0.2 -0.2)">
       <use xlink:href="#DejaVuSans-48"/>
       <use x="63.623047" xlink:href="#DejaVuSans-46"/>
       <use x="95.410156" xlink:href="#DejaVuSans-55"/>
       <use x="159.033203" xlink:href="#DejaVuSans-53"/>
      </g>
     </g>
    </g>
    <g id="ytick_5">
     <g id="line2d_21">
      <path clip-path="url(#pedee8baf6c)" d="M 144 1369.06494 
L 1036.8 1369.06494 
" style="fill:none;stroke:#b0b0b0;stroke-linecap:square;stroke-width:0.8;"/>
     </g>
     <g id="line2d_22">
      <g>
       <use style="stroke:#000000;stroke-width:0.8;" x="144" xlink:href="#m58f09ea596" y="1369.06494"/>
      </g>
     </g>
     <g id="text_11">
      <!-- 1.00 -->
      <defs>
       <path d="M 12.40625 8.296875 
L 28.515625 8.296875 
L 28.515625 63.921875 
L 10.984375 60.40625 
L 10.984375 69.390625 
L 28.421875 72.90625 
L 38.28125 72.90625 
L 38.28125 8.296875 
L 54.390625 8.296875 
L 54.390625 0 
L 12.40625 0 
z
" id="DejaVuSans-49"/>
      </defs>
      <g transform="translate(92.46875 1376.663377)scale(0.2 -0.2)">
       <use xlink:href="#DejaVuSans-49"/>
       <use x="63.623047" xlink:href="#DejaVuSans-46"/>
       <use x="95.410156" xlink:href="#DejaVuSans-48"/>
       <use x="159.033203" xlink:href="#DejaVuSans-48"/>
      </g>
     </g>
    </g>
    <g id="ytick_6">
     <g id="line2d_23">
      <path clip-path="url(#pedee8baf6c)" d="M 144 1106.040266 
L 1036.8 1106.040266 
" style="fill:none;stroke:#b0b0b0;stroke-linecap:square;stroke-width:0.8;"/>
     </g>
     <g id="line2d_24">
      <g>
       <use style="stroke:#000000;stroke-width:0.8;" x="144" xlink:href="#m58f09ea596" y="1106.040266"/>
      </g>
     </g>
     <g id="text_12">
      <!-- 1.25 -->
      <g transform="translate(92.46875 1113.638703)scale(0.2 -0.2)">
       <use xlink:href="#DejaVuSans-49"/>
       <use x="63.623047" xlink:href="#DejaVuSans-46"/>
       <use x="95.410156" xlink:href="#DejaVuSans-50"/>
       <use x="159.033203" xlink:href="#DejaVuSans-53"/>
      </g>
     </g>
    </g>
    <g id="ytick_7">
     <g id="line2d_25">
      <path clip-path="url(#pedee8baf6c)" d="M 144 843.015592 
L 1036.8 843.015592 
" style="fill:none;stroke:#b0b0b0;stroke-linecap:square;stroke-width:0.8;"/>
     </g>
     <g id="line2d_26">
      <g>
       <use style="stroke:#000000;stroke-width:0.8;" x="144" xlink:href="#m58f09ea596" y="843.015592"/>
      </g>
     </g>
     <g id="text_13">
      <!-- 1.50 -->
      <g transform="translate(92.46875 850.614029)scale(0.2 -0.2)">
       <use xlink:href="#DejaVuSans-49"/>
       <use x="63.623047" xlink:href="#DejaVuSans-46"/>
       <use x="95.410156" xlink:href="#DejaVuSans-53"/>
       <use x="159.033203" xlink:href="#DejaVuSans-48"/>
      </g>
     </g>
    </g>
    <g id="ytick_8">
     <g id="line2d_27">
      <path clip-path="url(#pedee8baf6c)" d="M 144 579.990918 
L 1036.8 579.990918 
" style="fill:none;stroke:#b0b0b0;stroke-linecap:square;stroke-width:0.8;"/>
     </g>
     <g id="line2d_28">
      <g>
       <use style="stroke:#000000;stroke-width:0.8;" x="144" xlink:href="#m58f09ea596" y="579.990918"/>
      </g>
     </g>
     <g id="text_14">
      <!-- 1.75 -->
      <g transform="translate(92.46875 587.589355)scale(0.2 -0.2)">
       <use xlink:href="#DejaVuSans-49"/>
       <use x="63.623047" xlink:href="#DejaVuSans-46"/>
       <use x="95.410156" xlink:href="#DejaVuSans-55"/>
       <use x="159.033203" xlink:href="#DejaVuSans-53"/>
      </g>
     </g>
    </g>
   </g>
   <g id="line2d_29">
    <path clip-path="url(#pedee8baf6c)" d="M 184.581818 2421.163636 
L 270.017225 2421.163636 
L 274.763636 2420.698233 
L 279.510048 2416.160552 
L 284.256459 2416.160552 
L 289.002871 2413.873427 
L 293.749282 2411.157467 
L 303.242105 2411.157467 
L 307.988517 2406.630866 
L 312.734928 2406.154382 
L 322.227751 2406.154382 
L 326.974163 2405.464301 
L 331.720574 2405.201414 
L 336.466986 2406.154382 
L 369.691866 2406.154382 
L 379.184689 2404.999824 
L 383.9311 2406.154382 
L 398.170335 2406.154382 
L 402.916746 2406.869108 
L 407.663158 2410.657158 
L 412.409569 2406.154382 
L 417.155981 2409.156233 
L 421.902392 2410.15685 
L 426.648804 2406.154382 
L 469.366507 2406.154382 
L 474.112919 2408.155616 
L 478.85933 2407.154999 
L 483.605742 2411.157467 
L 488.352153 2407.822077 
L 493.098565 2406.154382 
L 507.337799 2406.154382 
L 512.084211 2408.655924 
L 516.830622 2406.154382 
L 521.577033 2406.154382 
L 526.323445 2408.655924 
L 535.816268 2411.157467 
L 578.533971 2411.157467 
L 583.280383 2416.160552 
L 649.730144 2416.160552 
L 654.476555 2421.163636 
L 996.218182 2421.163636 
L 996.218182 2421.163636 
" style="fill:none;stroke:#008000;stroke-linecap:square;stroke-width:1.5;"/>
   </g>
   <g id="line2d_30">
    <path clip-path="url(#pedee8baf6c)" d="M 184.581818 2239.38489 
L 189.32823 2164.18701 
L 198.821053 2047.414674 
L 203.567464 2003.20323 
L 208.313876 1952.502579 
L 217.806699 1866.276053 
L 222.55311 1826.273033 
L 227.299522 1791.664393 
L 232.045933 1733.888028 
L 236.792344 1697.063329 
L 241.538756 1664.648802 
L 246.285167 1615.201585 
L 251.031579 1563.968446 
L 255.77799 1510.784138 
L 260.524402 1471.744916 
L 265.270813 1391.833326 
L 270.017225 1351.89676 
L 274.763636 1309.536207 
L 279.510048 1264.029723 
L 284.256459 1246.982877 
L 289.002871 1196.936588 
L 293.749282 1152.548108 
L 298.495694 1129.545341 
L 303.242105 1086.312825 
L 307.988517 1052.592539 
L 312.734928 1029.607965 
L 317.48134 1033.589344 
L 322.227751 1089.610929 
L 331.720574 1136.978985 
L 336.466986 1179.181647 
L 341.213397 1225.163056 
L 345.959809 1287.833276 
L 350.70622 1332.31046 
L 355.452632 1394.530641 
L 360.199043 1439.486932 
L 364.945455 1482.690261 
L 369.691866 1544.122876 
L 374.438278 1590.026179 
L 379.184689 1637.466143 
L 383.9311 1686.619827 
L 388.677512 1715.395145 
L 393.423923 1758.532853 
L 402.916746 1858.3166 
L 407.663158 1895.839735 
L 412.409569 1935.030566 
L 417.155981 1960.323939 
L 421.902392 1990.898346 
L 426.648804 2010.910685 
L 431.395215 2038.427651 
L 436.141627 2062.609228 
L 440.888038 2090.960041 
L 445.63445 2118.477008 
L 450.380861 2135.987804 
L 455.127273 2156.000144 
L 459.873684 2169.341703 
L 464.620096 2188.520195 
L 478.85933 2233.547957 
L 488.352153 2258.563381 
L 493.098565 2268.569551 
L 497.844976 2281.077263 
L 502.591388 2283.578805 
L 507.337799 2298.588059 
L 512.084211 2311.095771 
L 516.830622 2318.600399 
L 521.577033 2328.606568 
L 526.323445 2331.10811 
L 531.069856 2336.111195 
L 535.816268 2346.117365 
L 564.294737 2376.135873 
L 569.041148 2376.135873 
L 573.78756 2381.138958 
L 583.280383 2381.138958 
L 588.026794 2386.142043 
L 592.773206 2386.142043 
L 597.519617 2391.145128 
L 602.266029 2391.145128 
L 607.01244 2396.148213 
L 611.758852 2396.148213 
L 630.744498 2406.154382 
L 635.490909 2406.154382 
L 644.983732 2411.157467 
L 659.222967 2411.157467 
L 668.715789 2416.160552 
L 720.926316 2416.160552 
L 725.672727 2418.662094 
L 735.16555 2418.662094 
L 739.911962 2421.163636 
L 996.218182 2421.163636 
L 996.218182 2421.163636 
" style="fill:none;stroke:#0000ff;stroke-linecap:square;stroke-width:1.5;"/>
   </g>
   <g id="patch_3">
    <path d="M 144 2520 
L 144 345.6 
" style="fill:none;stroke:#000000;stroke-linecap:square;stroke-linejoin:miter;stroke-width:0.8;"/>
   </g>
   <g id="patch_4">
    <path d="M 1036.8 2520 
L 1036.8 345.6 
" style="fill:none;stroke:#000000;stroke-linecap:square;stroke-linejoin:miter;stroke-width:0.8;"/>
   </g>
   <g id="patch_5">
    <path d="M 144 2520 
L 1036.8 2520 
" style="fill:none;stroke:#000000;stroke-linecap:square;stroke-linejoin:miter;stroke-width:0.8;"/>
   </g>
   <g id="patch_6">
    <path d="M 144 345.6 
L 1036.8 345.6 
" style="fill:none;stroke:#000000;stroke-linecap:square;stroke-linejoin:miter;stroke-width:0.8;"/>
   </g>
   <g id="legend_1">
    <g id="patch_7">
     <path d="M 728.39375 549.076562 
L 1019.3 549.076562 
Q 1024.3 549.076562 1024.3 544.076562 
L 1024.3 363.1 
Q 1024.3 358.1 1019.3 358.1 
L 728.39375 358.1 
Q 723.39375 358.1 723.39375 363.1 
L 723.39375 544.076562 
Q 723.39375 549.076562 728.39375 549.076562 
z
" style="fill:#ffffff;opacity:0.8;stroke:#cccccc;stroke-linejoin:miter;"/>
    </g>
    <g id="line2d_31">
     <path d="M 733.39375 378.346094 
L 783.39375 378.346094 
" style="fill:none;stroke:#008000;stroke-linecap:square;stroke-width:1.5;"/>
    </g>
    <g id="line2d_32"/>
    <g id="text_15">
     <!-- Detected Cases -->
     <defs>
      <path d="M 19.671875 64.796875 
L 19.671875 8.109375 
L 31.59375 8.109375 
Q 46.6875 8.109375 53.6875 14.9375 
Q 60.6875 21.78125 60.6875 36.53125 
Q 60.6875 51.171875 53.6875 57.984375 
Q 46.6875 64.796875 31.59375 64.796875 
z
M 9.8125 72.90625 
L 30.078125 72.90625 
Q 51.265625 72.90625 61.171875 64.09375 
Q 71.09375 55.28125 71.09375 36.53125 
Q 71.09375 17.671875 61.125 8.828125 
Q 51.171875 0 30.078125 0 
L 9.8125 0 
z
" id="DejaVuSans-68"/>
      <path d="M 56.203125 29.59375 
L 56.203125 25.203125 
L 14.890625 25.203125 
Q 15.484375 15.921875 20.484375 11.0625 
Q 25.484375 6.203125 34.421875 6.203125 
Q 39.59375 6.203125 44.453125 7.46875 
Q 49.3125 8.734375 54.109375 11.28125 
L 54.109375 2.78125 
Q 49.265625 0.734375 44.1875 -0.34375 
Q 39.109375 -1.421875 33.890625 -1.421875 
Q 20.796875 -1.421875 13.15625 6.1875 
Q 5.515625 13.8125 5.515625 26.8125 
Q 5.515625 40.234375 12.765625 48.109375 
Q 20.015625 56 32.328125 56 
Q 43.359375 56 49.78125 48.890625 
Q 56.203125 41.796875 56.203125 29.59375 
z
M 47.21875 32.234375 
Q 47.125 39.59375 43.09375 43.984375 
Q 39.0625 48.390625 32.421875 48.390625 
Q 24.90625 48.390625 20.390625 44.140625 
Q 15.875 39.890625 15.1875 32.171875 
z
" id="DejaVuSans-101"/>
      <path d="M 18.3125 70.21875 
L 18.3125 54.6875 
L 36.8125 54.6875 
L 36.8125 47.703125 
L 18.3125 47.703125 
L 18.3125 18.015625 
Q 18.3125 11.328125 20.140625 9.421875 
Q 21.96875 7.515625 27.59375 7.515625 
L 36.8125 7.515625 
L 36.8125 0 
L 27.59375 0 
Q 17.1875 0 13.234375 3.875 
Q 9.28125 7.765625 9.28125 18.015625 
L 9.28125 47.703125 
L 2.6875 47.703125 
L 2.6875 54.6875 
L 9.28125 54.6875 
L 9.28125 70.21875 
z
" id="DejaVuSans-116"/>
      <path d="M 48.78125 52.59375 
L 48.78125 44.1875 
Q 44.96875 46.296875 41.140625 47.34375 
Q 37.3125 48.390625 33.40625 48.390625 
Q 24.65625 48.390625 19.8125 42.84375 
Q 14.984375 37.3125 14.984375 27.296875 
Q 14.984375 17.28125 19.8125 11.734375 
Q 24.65625 6.203125 33.40625 6.203125 
Q 37.3125 6.203125 41.140625 7.25 
Q 44.96875 8.296875 48.78125 10.40625 
L 48.78125 2.09375 
Q 45.015625 0.34375 40.984375 -0.53125 
Q 36.96875 -1.421875 32.421875 -1.421875 
Q 20.0625 -1.421875 12.78125 6.34375 
Q 5.515625 14.109375 5.515625 27.296875 
Q 5.515625 40.671875 12.859375 48.328125 
Q 20.21875 56 33.015625 56 
Q 37.15625 56 41.109375 55.140625 
Q 45.0625 54.296875 48.78125 52.59375 
z
" id="DejaVuSans-99"/>
      <path d="M 45.40625 46.390625 
L 45.40625 75.984375 
L 54.390625 75.984375 
L 54.390625 0 
L 45.40625 0 
L 45.40625 8.203125 
Q 42.578125 3.328125 38.25 0.953125 
Q 33.9375 -1.421875 27.875 -1.421875 
Q 17.96875 -1.421875 11.734375 6.484375 
Q 5.515625 14.40625 5.515625 27.296875 
Q 5.515625 40.1875 11.734375 48.09375 
Q 17.96875 56 27.875 56 
Q 33.9375 56 38.25 53.625 
Q 42.578125 51.265625 45.40625 46.390625 
z
M 14.796875 27.296875 
Q 14.796875 17.390625 18.875 11.75 
Q 22.953125 6.109375 30.078125 6.109375 
Q 37.203125 6.109375 41.296875 11.75 
Q 45.40625 17.390625 45.40625 27.296875 
Q 45.40625 37.203125 41.296875 42.84375 
Q 37.203125 48.484375 30.078125 48.484375 
Q 22.953125 48.484375 18.875 42.84375 
Q 14.796875 37.203125 14.796875 27.296875 
z
" id="DejaVuSans-100"/>
      <path id="DejaVuSans-32"/>
      <path d="M 64.40625 67.28125 
L 64.40625 56.890625 
Q 59.421875 61.53125 53.78125 63.8125 
Q 48.140625 66.109375 41.796875 66.109375 
Q 29.296875 66.109375 22.65625 58.46875 
Q 16.015625 50.828125 16.015625 36.375 
Q 16.015625 21.96875 22.65625 14.328125 
Q 29.296875 6.6875 41.796875 6.6875 
Q 48.140625 6.6875 53.78125 8.984375 
Q 59.421875 11.28125 64.40625 15.921875 
L 64.40625 5.609375 
Q 59.234375 2.09375 53.4375 0.328125 
Q 47.65625 -1.421875 41.21875 -1.421875 
Q 24.65625 -1.421875 15.125 8.703125 
Q 5.609375 18.84375 5.609375 36.375 
Q 5.609375 53.953125 15.125 64.078125 
Q 24.65625 74.21875 41.21875 74.21875 
Q 47.75 74.21875 53.53125 72.484375 
Q 59.328125 70.75 64.40625 67.28125 
z
" id="DejaVuSans-67"/>
      <path d="M 34.28125 27.484375 
Q 23.390625 27.484375 19.1875 25 
Q 14.984375 22.515625 14.984375 16.5 
Q 14.984375 11.71875 18.140625 8.90625 
Q 21.296875 6.109375 26.703125 6.109375 
Q 34.1875 6.109375 38.703125 11.40625 
Q 43.21875 16.703125 43.21875 25.484375 
L 43.21875 27.484375 
z
M 52.203125 31.203125 
L 52.203125 0 
L 43.21875 0 
L 43.21875 8.296875 
Q 40.140625 3.328125 35.546875 0.953125 
Q 30.953125 -1.421875 24.3125 -1.421875 
Q 15.921875 -1.421875 10.953125 3.296875 
Q 6 8.015625 6 15.921875 
Q 6 25.140625 12.171875 29.828125 
Q 18.359375 34.515625 30.609375 34.515625 
L 43.21875 34.515625 
L 43.21875 35.40625 
Q 43.21875 41.609375 39.140625 45 
Q 35.0625 48.390625 27.6875 48.390625 
Q 23 48.390625 18.546875 47.265625 
Q 14.109375 46.140625 10.015625 43.890625 
L 10.015625 52.203125 
Q 14.9375 54.109375 19.578125 55.046875 
Q 24.21875 56 28.609375 56 
Q 40.484375 56 46.34375 49.84375 
Q 52.203125 43.703125 52.203125 31.203125 
z
" id="DejaVuSans-97"/>
      <path d="M 44.28125 53.078125 
L 44.28125 44.578125 
Q 40.484375 46.53125 36.375 47.5 
Q 32.28125 48.484375 27.875 48.484375 
Q 21.1875 48.484375 17.84375 46.4375 
Q 14.5 44.390625 14.5 40.28125 
Q 14.5 37.15625 16.890625 35.375 
Q 19.28125 33.59375 26.515625 31.984375 
L 29.59375 31.296875 
Q 39.15625 29.25 43.1875 25.515625 
Q 47.21875 21.78125 47.21875 15.09375 
Q 47.21875 7.46875 41.1875 3.015625 
Q 35.15625 -1.421875 24.609375 -1.421875 
Q 20.21875 -1.421875 15.453125 -0.5625 
Q 10.6875 0.296875 5.421875 2 
L 5.421875 11.28125 
Q 10.40625 8.6875 15.234375 7.390625 
Q 20.0625 6.109375 24.8125 6.109375 
Q 31.15625 6.109375 34.5625 8.28125 
Q 37.984375 10.453125 37.984375 14.40625 
Q 37.984375 18.0625 35.515625 20.015625 
Q 33.0625 21.96875 24.703125 23.78125 
L 21.578125 24.515625 
Q 13.234375 26.265625 9.515625 29.90625 
Q 5.8125 33.546875 5.8125 39.890625 
Q 5.8125 47.609375 11.28125 51.796875 
Q 16.75 56 26.8125 56 
Q 31.78125 56 36.171875 55.265625 
Q 40.578125 54.546875 44.28125 53.078125 
z
" id="DejaVuSans-115"/>
     </defs>
     <g transform="translate(803.39375 387.096094)scale(0.25 -0.25)">
      <use xlink:href="#DejaVuSans-68"/>
      <use x="77.001953" xlink:href="#DejaVuSans-101"/>
      <use x="138.525391" xlink:href="#DejaVuSans-116"/>
      <use x="177.734375" xlink:href="#DejaVuSans-101"/>
      <use x="239.257812" xlink:href="#DejaVuSans-99"/>
      <use x="294.238281" xlink:href="#DejaVuSans-116"/>
      <use x="333.447266" xlink:href="#DejaVuSans-101"/>
      <use x="394.970703" xlink:href="#DejaVuSans-100"/>
      <use x="458.447266" xlink:href="#DejaVuSans-32"/>
      <use x="490.234375" xlink:href="#DejaVuSans-67"/>
      <use x="560.058594" xlink:href="#DejaVuSans-97"/>
      <use x="621.337891" xlink:href="#DejaVuSans-115"/>
      <use x="673.4375" xlink:href="#DejaVuSans-101"/>
      <use x="734.960938" xlink:href="#DejaVuSans-115"/>
     </g>
    </g>
    <g id="line2d_33">
     <path d="M 733.39375 415.041406 
L 783.39375 415.041406 
" style="fill:none;stroke:#0000ff;stroke-linecap:square;stroke-width:1.5;"/>
    </g>
    <g id="line2d_34"/>
    <g id="text_16">
     <!-- Infected Cases -->
     <defs>
      <path d="M 9.8125 72.90625 
L 19.671875 72.90625 
L 19.671875 0 
L 9.8125 0 
z
" id="DejaVuSans-73"/>
      <path d="M 54.890625 33.015625 
L 54.890625 0 
L 45.90625 0 
L 45.90625 32.71875 
Q 45.90625 40.484375 42.875 44.328125 
Q 39.84375 48.1875 33.796875 48.1875 
Q 26.515625 48.1875 22.3125 43.546875 
Q 18.109375 38.921875 18.109375 30.90625 
L 18.109375 0 
L 9.078125 0 
L 9.078125 54.6875 
L 18.109375 54.6875 
L 18.109375 46.1875 
Q 21.34375 51.125 25.703125 53.5625 
Q 30.078125 56 35.796875 56 
Q 45.21875 56 50.046875 50.171875 
Q 54.890625 44.34375 54.890625 33.015625 
z
" id="DejaVuSans-110"/>
      <path d="M 37.109375 75.984375 
L 37.109375 68.5 
L 28.515625 68.5 
Q 23.6875 68.5 21.796875 66.546875 
Q 19.921875 64.59375 19.921875 59.515625 
L 19.921875 54.6875 
L 34.71875 54.6875 
L 34.71875 47.703125 
L 19.921875 47.703125 
L 19.921875 0 
L 10.890625 0 
L 10.890625 47.703125 
L 2.296875 47.703125 
L 2.296875 54.6875 
L 10.890625 54.6875 
L 10.890625 58.5 
Q 10.890625 67.625 15.140625 71.796875 
Q 19.390625 75.984375 28.609375 75.984375 
z
" id="DejaVuSans-102"/>
     </defs>
     <g transform="translate(803.39375 423.791406)scale(0.25 -0.25)">
      <use xlink:href="#DejaVuSans-73"/>
      <use x="29.492188" xlink:href="#DejaVuSans-110"/>
      <use x="92.871094" xlink:href="#DejaVuSans-102"/>
      <use x="128.076172" xlink:href="#DejaVuSans-101"/>
      <use x="189.599609" xlink:href="#DejaVuSans-99"/>
      <use x="244.580078" xlink:href="#DejaVuSans-116"/>
      <use x="283.789062" xlink:href="#DejaVuSans-101"/>
      <use x="345.3125" xlink:href="#DejaVuSans-100"/>
      <use x="408.789062" xlink:href="#DejaVuSans-32"/>
      <use x="440.576172" xlink:href="#DejaVuSans-67"/>
      <use x="510.400391" xlink:href="#DejaVuSans-97"/>
      <use x="571.679688" xlink:href="#DejaVuSans-115"/>
      <use x="623.779297" xlink:href="#DejaVuSans-101"/>
      <use x="685.302734" xlink:href="#DejaVuSans-115"/>
     </g>
    </g>
    <g id="patch_8">
     <path d="M 733.39375 460.486719 
L 783.39375 460.486719 
L 783.39375 442.986719 
L 733.39375 442.986719 
z
" style="fill:#008000;opacity:0.3;stroke:#008000;stroke-linejoin:miter;"/>
    </g>
    <g id="text_17">
     <!-- 95% CI Infected -->
     <defs>
      <path d="M 72.703125 32.078125 
Q 68.453125 32.078125 66.03125 28.46875 
Q 63.625 24.859375 63.625 18.40625 
Q 63.625 12.0625 66.03125 8.421875 
Q 68.453125 4.78125 72.703125 4.78125 
Q 76.859375 4.78125 79.265625 8.421875 
Q 81.6875 12.0625 81.6875 18.40625 
Q 81.6875 24.8125 79.265625 28.4375 
Q 76.859375 32.078125 72.703125 32.078125 
z
M 72.703125 38.28125 
Q 80.421875 38.28125 84.953125 32.90625 
Q 89.5 27.546875 89.5 18.40625 
Q 89.5 9.28125 84.9375 3.921875 
Q 80.375 -1.421875 72.703125 -1.421875 
Q 64.890625 -1.421875 60.34375 3.921875 
Q 55.8125 9.28125 55.8125 18.40625 
Q 55.8125 27.59375 60.375 32.9375 
Q 64.9375 38.28125 72.703125 38.28125 
z
M 22.3125 68.015625 
Q 18.109375 68.015625 15.6875 64.375 
Q 13.28125 60.75 13.28125 54.390625 
Q 13.28125 47.953125 15.671875 44.328125 
Q 18.0625 40.71875 22.3125 40.71875 
Q 26.5625 40.71875 28.96875 44.328125 
Q 31.390625 47.953125 31.390625 54.390625 
Q 31.390625 60.6875 28.953125 64.34375 
Q 26.515625 68.015625 22.3125 68.015625 
z
M 66.40625 74.21875 
L 74.21875 74.21875 
L 28.609375 -1.421875 
L 20.796875 -1.421875 
z
M 22.3125 74.21875 
Q 30.03125 74.21875 34.609375 68.875 
Q 39.203125 63.53125 39.203125 54.390625 
Q 39.203125 45.171875 34.640625 39.84375 
Q 30.078125 34.515625 22.3125 34.515625 
Q 14.546875 34.515625 10.03125 39.859375 
Q 5.515625 45.21875 5.515625 54.390625 
Q 5.515625 63.484375 10.046875 68.84375 
Q 14.59375 74.21875 22.3125 74.21875 
z
" id="DejaVuSans-37"/>
     </defs>
     <g transform="translate(803.39375 460.486719)scale(0.25 -0.25)">
      <use xlink:href="#DejaVuSans-57"/>
      <use x="63.623047" xlink:href="#DejaVuSans-53"/>
      <use x="127.246094" xlink:href="#DejaVuSans-37"/>
      <use x="222.265625" xlink:href="#DejaVuSans-32"/>
      <use x="254.052734" xlink:href="#DejaVuSans-67"/>
      <use x="323.876953" xlink:href="#DejaVuSans-73"/>
      <use x="353.369141" xlink:href="#DejaVuSans-32"/>
      <use x="385.15625" xlink:href="#DejaVuSans-73"/>
      <use x="414.648438" xlink:href="#DejaVuSans-110"/>
      <use x="478.027344" xlink:href="#DejaVuSans-102"/>
      <use x="513.232422" xlink:href="#DejaVuSans-101"/>
      <use x="574.755859" xlink:href="#DejaVuSans-99"/>
      <use x="629.736328" xlink:href="#DejaVuSans-116"/>
      <use x="668.945312" xlink:href="#DejaVuSans-101"/>
      <use x="730.46875" xlink:href="#DejaVuSans-100"/>
     </g>
    </g>
    <g id="patch_9">
     <path d="M 733.39375 497.182031 
L 783.39375 497.182031 
L 783.39375 479.682031 
L 733.39375 479.682031 
z
" style="fill:#0000ff;opacity:0.1;stroke:#0000ff;stroke-linejoin:miter;"/>
    </g>
    <g id="text_18">
     <!-- 95% CI Detected -->
     <g transform="translate(803.39375 497.182031)scale(0.25 -0.25)">
      <use xlink:href="#DejaVuSans-57"/>
      <use x="63.623047" xlink:href="#DejaVuSans-53"/>
      <use x="127.246094" xlink:href="#DejaVuSans-37"/>
      <use x="222.265625" xlink:href="#DejaVuSans-32"/>
      <use x="254.052734" xlink:href="#DejaVuSans-67"/>
      <use x="323.876953" xlink:href="#DejaVuSans-73"/>
      <use x="353.369141" xlink:href="#DejaVuSans-32"/>
      <use x="385.15625" xlink:href="#DejaVuSans-68"/>
      <use x="462.158203" xlink:href="#DejaVuSans-101"/>
      <use x="523.681641" xlink:href="#DejaVuSans-116"/>
      <use x="562.890625" xlink:href="#DejaVuSans-101"/>
      <use x="624.414062" xlink:href="#DejaVuSans-99"/>
      <use x="679.394531" xlink:href="#DejaVuSans-116"/>
      <use x="718.603516" xlink:href="#DejaVuSans-101"/>
      <use x="780.126953" xlink:href="#DejaVuSans-100"/>
     </g>
    </g>
    <g id="PathCollection_2">
     <g>
      <use style="fill:#ff0000;stroke:#ff0000;" x="758.39375" xlink:href="#m8ff83023f6" y="527.314844"/>
     </g>
    </g>
    <g id="text_19">
     <!-- Ground Truth -->
     <defs>
      <path d="M 59.515625 10.40625 
L 59.515625 29.984375 
L 43.40625 29.984375 
L 43.40625 38.09375 
L 69.28125 38.09375 
L 69.28125 6.78125 
Q 63.578125 2.734375 56.6875 0.65625 
Q 49.8125 -1.421875 42 -1.421875 
Q 24.90625 -1.421875 15.25 8.5625 
Q 5.609375 18.5625 5.609375 36.375 
Q 5.609375 54.25 15.25 64.234375 
Q 24.90625 74.21875 42 74.21875 
Q 49.125 74.21875 55.546875 72.453125 
Q 61.96875 70.703125 67.390625 67.28125 
L 67.390625 56.78125 
Q 61.921875 61.421875 55.765625 63.765625 
Q 49.609375 66.109375 42.828125 66.109375 
Q 29.4375 66.109375 22.71875 58.640625 
Q 16.015625 51.171875 16.015625 36.375 
Q 16.015625 21.625 22.71875 14.15625 
Q 29.4375 6.6875 42.828125 6.6875 
Q 48.046875 6.6875 52.140625 7.59375 
Q 56.25 8.5 59.515625 10.40625 
z
" id="DejaVuSans-71"/>
      <path d="M 41.109375 46.296875 
Q 39.59375 47.171875 37.8125 47.578125 
Q 36.03125 48 33.890625 48 
Q 26.265625 48 22.1875 43.046875 
Q 18.109375 38.09375 18.109375 28.8125 
L 18.109375 0 
L 9.078125 0 
L 9.078125 54.6875 
L 18.109375 54.6875 
L 18.109375 46.1875 
Q 20.953125 51.171875 25.484375 53.578125 
Q 30.03125 56 36.53125 56 
Q 37.453125 56 38.578125 55.875 
Q 39.703125 55.765625 41.0625 55.515625 
z
" id="DejaVuSans-114"/>
      <path d="M 30.609375 48.390625 
Q 23.390625 48.390625 19.1875 42.75 
Q 14.984375 37.109375 14.984375 27.296875 
Q 14.984375 17.484375 19.15625 11.84375 
Q 23.34375 6.203125 30.609375 6.203125 
Q 37.796875 6.203125 41.984375 11.859375 
Q 46.1875 17.53125 46.1875 27.296875 
Q 46.1875 37.015625 41.984375 42.703125 
Q 37.796875 48.390625 30.609375 48.390625 
z
M 30.609375 56 
Q 42.328125 56 49.015625 48.375 
Q 55.71875 40.765625 55.71875 27.296875 
Q 55.71875 13.875 49.015625 6.21875 
Q 42.328125 -1.421875 30.609375 -1.421875 
Q 18.84375 -1.421875 12.171875 6.21875 
Q 5.515625 13.875 5.515625 27.296875 
Q 5.515625 40.765625 12.171875 48.375 
Q 18.84375 56 30.609375 56 
z
" id="DejaVuSans-111"/>
      <path d="M 8.5 21.578125 
L 8.5 54.6875 
L 17.484375 54.6875 
L 17.484375 21.921875 
Q 17.484375 14.15625 20.5 10.265625 
Q 23.53125 6.390625 29.59375 6.390625 
Q 36.859375 6.390625 41.078125 11.03125 
Q 45.3125 15.671875 45.3125 23.6875 
L 45.3125 54.6875 
L 54.296875 54.6875 
L 54.296875 0 
L 45.3125 0 
L 45.3125 8.40625 
Q 42.046875 3.421875 37.71875 1 
Q 33.40625 -1.421875 27.6875 -1.421875 
Q 18.265625 -1.421875 13.375 4.4375 
Q 8.5 10.296875 8.5 21.578125 
z
M 31.109375 56 
z
" id="DejaVuSans-117"/>
      <path d="M -0.296875 72.90625 
L 61.375 72.90625 
L 61.375 64.59375 
L 35.5 64.59375 
L 35.5 0 
L 25.59375 0 
L 25.59375 64.59375 
L -0.296875 64.59375 
z
" id="DejaVuSans-84"/>
      <path d="M 54.890625 33.015625 
L 54.890625 0 
L 45.90625 0 
L 45.90625 32.71875 
Q 45.90625 40.484375 42.875 44.328125 
Q 39.84375 48.1875 33.796875 48.1875 
Q 26.515625 48.1875 22.3125 43.546875 
Q 18.109375 38.921875 18.109375 30.90625 
L 18.109375 0 
L 9.078125 0 
L 9.078125 75.984375 
L 18.109375 75.984375 
L 18.109375 46.1875 
Q 21.34375 51.125 25.703125 53.5625 
Q 30.078125 56 35.796875 56 
Q 45.21875 56 50.046875 50.171875 
Q 54.890625 44.34375 54.890625 33.015625 
z
" id="DejaVuSans-104"/>
     </defs>
     <g transform="translate(803.39375 533.877344)scale(0.25 -0.25)">
      <use xlink:href="#DejaVuSans-71"/>
      <use x="77.490234" xlink:href="#DejaVuSans-114"/>
      <use x="116.353516" xlink:href="#DejaVuSans-111"/>
      <use x="177.535156" xlink:href="#DejaVuSans-117"/>
      <use x="240.914062" xlink:href="#DejaVuSans-110"/>
      <use x="304.292969" xlink:href="#DejaVuSans-100"/>
      <use x="367.769531" xlink:href="#DejaVuSans-32"/>
      <use x="399.556641" xlink:href="#DejaVuSans-84"/>
      <use x="445.890625" xlink:href="#DejaVuSans-114"/>
      <use x="487.003906" xlink:href="#DejaVuSans-117"/>
      <use x="550.382812" xlink:href="#DejaVuSans-116"/>
      <use x="589.591797" xlink:href="#DejaVuSans-104"/>
     </g>
    </g>
   </g>
  </g>
 </g>
 <defs>
  <clipPath id="pedee8baf6c">
   <rect height="2174.4" width="892.8" x="144" y="345.6"/>
  </clipPath>
 </defs>
</svg>
